<svg width="285" height="25" viewBox="0 0 285 25" fill="none" xmlns="http://www.w3.org/2000/svg">
<path d="M0.820312 19.0001L4.44141 1.86725H9.15234C10.2305 1.86725 11.1602 2.00006 11.9414 2.26569C12.7227 2.53131 13.3242 2.94537 13.7461 3.50787C14.1758 4.07037 14.3906 4.80475 14.3906 5.711C14.3906 6.48444 14.2344 7.17194 13.9219 7.7735C13.6172 8.36725 13.1797 8.85944 12.6094 9.25006C12.0469 9.63287 11.3711 9.9024 10.582 10.0587V10.1641C11.3711 10.3751 12.0117 10.7657 12.5039 11.336C12.9961 11.8985 13.2422 12.6329 13.2422 13.5391C13.2422 14.7735 12.9492 15.7969 12.3633 16.6094C11.7852 17.4141 10.9922 18.0157 9.98438 18.4141C8.98438 18.8047 7.84375 19.0001 6.5625 19.0001H0.820312ZM4.08984 16.6446H6.71484C7.46484 16.6446 8.11328 16.5274 8.66016 16.293C9.21484 16.0587 9.64062 15.711 9.9375 15.2501C10.2422 14.7891 10.3945 14.2227 10.3945 13.5508C10.3945 12.8399 10.1719 12.2696 9.72656 11.8399C9.28906 11.4102 8.58594 11.1954 7.61719 11.1954H5.25L4.08984 16.6446ZM5.71875 8.93365H8.0625C8.72656 8.93365 9.31641 8.8399 9.83203 8.6524C10.3555 8.45709 10.7656 8.16022 11.0625 7.76178C11.3672 7.35553 11.5195 6.8399 11.5195 6.2149C11.5195 5.55865 11.3086 5.05865 10.8867 4.7149C10.4727 4.37115 9.80859 4.19928 8.89453 4.19928H6.72656L5.71875 8.93365ZM19.2305 19.2344C18.5352 19.2344 17.9414 19.0977 17.4492 18.8243C16.9648 18.5508 16.5938 18.1563 16.3359 17.6407C16.0859 17.1172 15.9609 16.4922 15.9609 15.7657C15.9609 15.4454 15.9844 15.0938 16.0312 14.711C16.0859 14.3204 16.1523 13.918 16.2305 13.504L17.8242 6.0274H20.5664L18.8906 13.9024C18.8359 14.2071 18.7891 14.4844 18.75 14.7344C18.7188 14.9766 18.7031 15.1993 18.7031 15.4024C18.7031 15.9258 18.8242 16.3243 19.0664 16.5977C19.3164 16.8633 19.7031 16.9962 20.2266 16.9962C20.7891 16.9962 21.3359 16.7852 21.8672 16.3633C22.4062 15.9337 22.8945 15.3126 23.332 14.5001C23.7695 13.6876 24.1094 12.7071 24.3516 11.5587L25.5234 6.0274H28.2422L25.5 19.0001H23.3438L23.625 16.5391H23.5078C23.1953 17.0001 22.832 17.4376 22.418 17.8516C22.0039 18.2579 21.5352 18.5899 21.0117 18.8477C20.4883 19.1055 19.8945 19.2344 19.2305 19.2344ZM33.5391 19.2344C32.8672 19.2344 32.2578 19.0743 31.7109 18.754C31.1719 18.4337 30.7422 17.9376 30.4219 17.2657C30.1016 16.586 29.9414 15.7149 29.9414 14.6524C29.9414 13.7618 30.0312 12.8907 30.2109 12.0391C30.3984 11.1797 30.668 10.3751 31.0195 9.62506C31.3711 8.86725 31.8008 8.20319 32.3086 7.63287C32.8164 7.05475 33.3906 6.60553 34.0312 6.28522C34.6797 5.95709 35.3828 5.79303 36.1406 5.79303C36.7031 5.79303 37.1836 5.89069 37.582 6.086C37.9805 6.28131 38.3164 6.53912 38.5898 6.85944C38.8633 7.17975 39.0938 7.5274 39.2812 7.9024H39.3867C39.4102 7.69928 39.4375 7.44147 39.4688 7.12897C39.5078 6.80865 39.5547 6.4649 39.6094 6.09772C39.6641 5.72272 39.7305 5.35944 39.8086 5.00787L40.7109 0.765686H43.4414L39.5742 19.0001H37.4297L37.6875 16.9024H37.6055C37.2617 17.3399 36.8867 17.7344 36.4805 18.086C36.082 18.4376 35.6406 18.7188 35.1562 18.9297C34.6719 19.1329 34.1328 19.2344 33.5391 19.2344ZM34.6055 16.9962C34.9727 16.9962 35.3242 16.9024 35.6602 16.7149C36.0039 16.5274 36.3203 16.2696 36.6094 15.9415C36.9062 15.6055 37.1758 15.2227 37.418 14.793C37.6602 14.3555 37.8672 13.8907 38.0391 13.3985C38.2109 12.9063 38.3438 12.4063 38.4375 11.8985C38.5312 11.3907 38.5781 10.8985 38.5781 10.4219C38.5781 9.69537 38.4023 9.11725 38.0508 8.68756C37.707 8.25006 37.1914 8.03131 36.5039 8.03131C36.0586 8.03131 35.6445 8.15631 35.2617 8.40631C34.8789 8.65631 34.5312 8.99615 34.2188 9.42584C33.9062 9.85553 33.6367 10.3516 33.4102 10.9141C33.1914 11.4688 33.0234 12.0626 32.9062 12.6954C32.7891 13.3282 32.7305 13.961 32.7305 14.5938C32.7305 15.3829 32.8867 15.9805 33.1992 16.3868C33.5195 16.793 33.9883 16.9962 34.6055 16.9962ZM46.6641 24.7657C45.0938 24.7657 43.8672 24.4727 42.9844 23.8868C42.1094 23.3087 41.6719 22.5001 41.6719 21.461C41.6719 20.6485 41.9492 19.9454 42.5039 19.3516C43.0508 18.7579 43.9219 18.2618 45.1172 17.8633C44.8203 17.6993 44.5977 17.4922 44.4492 17.2422C44.3008 16.9922 44.2266 16.7032 44.2266 16.3751C44.2266 15.836 44.4102 15.3712 44.7773 14.9805C45.1523 14.5821 45.7148 14.2071 46.4648 13.8555C45.957 13.5352 45.5664 13.129 45.293 12.6368C45.0195 12.1368 44.8828 11.5508 44.8828 10.879C44.8906 10.1133 45.0156 9.41803 45.2578 8.79303C45.5078 8.16803 45.8633 7.63287 46.3242 7.18756C46.7773 6.74225 47.3242 6.3985 47.9648 6.15631C48.6055 5.91412 49.3164 5.79303 50.0977 5.79303C50.4102 5.79303 50.7227 5.81647 51.0352 5.86334C51.3477 5.9024 51.6562 5.9649 51.9609 6.05084H56.4375L56.0977 7.60944L53.8008 7.98444C53.9258 8.20319 54.0156 8.45319 54.0703 8.73444C54.1328 9.01569 54.1641 9.32037 54.1641 9.6485C54.1641 10.3985 54.0391 11.0782 53.7891 11.6876C53.5469 12.2891 53.1992 12.8047 52.7461 13.2344C52.3086 13.6563 51.7734 13.9805 51.1406 14.2071C50.5156 14.4258 49.8125 14.5391 49.0312 14.5469C48.8125 14.5469 48.6133 14.5391 48.4336 14.5235C48.2539 14.5001 48.0938 14.4727 47.9531 14.4415C47.5078 14.5899 47.1758 14.7735 46.957 14.9922C46.7383 15.2032 46.6289 15.4337 46.6289 15.6837C46.6289 15.8868 46.6914 16.0508 46.8164 16.1758C46.9336 16.2852 47.0977 16.3712 47.3086 16.4337C47.5195 16.4883 47.7812 16.5352 48.0938 16.5743L49.5938 16.7618C50.4844 16.8712 51.2109 17.0547 51.7734 17.3126C52.3438 17.5704 52.7617 17.918 53.0273 18.3555C53.3008 18.7852 53.4375 19.3204 53.4375 19.961C53.4375 20.8047 53.2578 21.5391 52.8984 22.1641C52.5469 22.7891 52.0312 23.3047 51.3516 23.711C50.7812 24.0547 50.1016 24.3165 49.3125 24.4962C48.5234 24.6758 47.6406 24.7657 46.6641 24.7657ZM46.8047 22.8555C47.4844 22.8555 48.082 22.7969 48.5977 22.6797C49.1211 22.5626 49.5547 22.3907 49.8984 22.1641C50.2266 21.9532 50.4766 21.6993 50.6484 21.4024C50.8203 21.1055 50.9062 20.7657 50.9062 20.3829C50.9062 20.211 50.8789 20.0587 50.8242 19.9258C50.7773 19.8008 50.7031 19.6876 50.6016 19.586C50.4141 19.3985 50.1562 19.254 49.8281 19.1524C49.5 19.0508 49.0898 18.9727 48.5977 18.918L46.8633 18.7305C46.2617 18.8399 45.7539 19.0079 45.3398 19.2344C44.9336 19.461 44.625 19.7344 44.4141 20.0547C44.2109 20.3829 44.1094 20.7501 44.1094 21.1563C44.1094 21.7032 44.3359 22.1212 44.7891 22.4102C45.2422 22.7071 45.9141 22.8555 46.8047 22.8555ZM49.0781 12.7774C49.6094 12.7774 50.0664 12.6251 50.4492 12.3204C50.832 12.0079 51.125 11.5938 51.3281 11.0782C51.5391 10.5547 51.6445 9.97272 51.6445 9.33209C51.6445 9.03522 51.6055 8.7774 51.5273 8.55865C51.457 8.3399 51.3477 8.16022 51.1992 8.01959C51.0664 7.87897 50.8984 7.7735 50.6953 7.70319C50.5 7.63287 50.2734 7.59772 50.0156 7.59772C49.6172 7.59772 49.2578 7.68756 48.9375 7.86725C48.625 8.03912 48.3555 8.28131 48.1289 8.59381C47.9102 8.8985 47.7383 9.25787 47.6133 9.67194C47.4961 10.086 47.4375 10.5313 47.4375 11.0079C47.4375 11.2422 47.4609 11.4532 47.5078 11.6407C47.5625 11.8282 47.6406 11.9922 47.7422 12.1329C48.0078 12.5626 48.4531 12.7774 49.0781 12.7774ZM61.6523 19.2344C60.6602 19.2344 59.793 19.0469 59.0508 18.6719C58.3164 18.2891 57.7461 17.7305 57.3398 16.9962C56.9414 16.254 56.7422 15.3477 56.7422 14.2774C56.7422 13.2149 56.8945 12.1797 57.1992 11.1719C57.5039 10.1563 57.9531 9.24225 58.5469 8.42975C59.1406 7.61725 59.8633 6.97272 60.7148 6.49615C61.5664 6.01959 62.5352 5.78131 63.6211 5.78131C64.9492 5.78131 65.9453 6.08209 66.6094 6.68365C67.2812 7.2774 67.6172 8.06647 67.6172 9.05084C67.6172 9.72272 67.4648 10.336 67.1602 10.8907C66.8555 11.4454 66.3906 11.9258 65.7656 12.3321C65.1484 12.7305 64.3633 13.0391 63.4102 13.2579C62.4648 13.4766 61.3516 13.586 60.0703 13.586H59.543C59.5352 13.7032 59.5273 13.8243 59.5195 13.9493C59.5117 14.0665 59.5078 14.1837 59.5078 14.3008C59.5078 15.168 59.7344 15.8516 60.1875 16.3516C60.6406 16.8438 61.3008 17.0899 62.168 17.0899C62.8242 17.0899 63.4297 17.0079 63.9844 16.8438C64.5391 16.6797 65.1602 16.4337 65.8477 16.1055V18.2735C65.2148 18.5782 64.5742 18.8165 63.9258 18.9883C63.2773 19.1524 62.5195 19.2344 61.6523 19.2344ZM59.8828 11.5938H60.2812C61.2344 11.5938 62.0625 11.504 62.7656 11.3243C63.4688 11.1368 64.0117 10.8633 64.3945 10.504C64.7773 10.1368 64.9688 9.69147 64.9688 9.16803C64.9688 8.76178 64.8398 8.44537 64.582 8.21881C64.332 7.98444 63.957 7.86725 63.457 7.86725C62.9648 7.86725 62.4805 8.01959 62.0039 8.32428C61.5273 8.62115 61.1016 9.05084 60.7266 9.61334C60.3516 10.168 60.0703 10.8282 59.8828 11.5938ZM72.8672 19.2344C71.9219 19.2344 71.1523 19.0235 70.5586 18.6016C69.9727 18.1719 69.6797 17.4219 69.6797 16.3516C69.6797 16.1407 69.6914 15.9102 69.7148 15.6602C69.7461 15.4024 69.7891 15.1368 69.8438 14.8633L71.2734 8.11334H69.3984L69.6562 6.80084L71.8711 5.8985L73.3477 3.15631H75.0703L74.4609 6.0274H77.7656L77.3203 8.11334H74.0273L72.5859 14.8751C72.5469 15.0391 72.5117 15.2149 72.4805 15.4024C72.457 15.5821 72.4453 15.7462 72.4453 15.8946C72.4453 16.2462 72.543 16.5196 72.7383 16.7149C72.9336 16.9102 73.2305 17.0079 73.6289 17.0079C73.9336 17.0079 74.2266 16.9766 74.5078 16.9141C74.7891 16.8516 75.0977 16.7618 75.4336 16.6446V18.7188C75.1445 18.8516 74.7695 18.9688 74.3086 19.0704C73.8477 19.1797 73.3672 19.2344 72.8672 19.2344ZM84.2344 19.0001L87.8555 1.86725H92.5664C93.6445 1.86725 94.5742 2.00006 95.3555 2.26569C96.1367 2.53131 96.7383 2.94537 97.1602 3.50787C97.5898 4.07037 97.8047 4.80475 97.8047 5.711C97.8047 6.48444 97.6484 7.17194 97.3359 7.7735C97.0312 8.36725 96.5938 8.85944 96.0234 9.25006C95.4609 9.63287 94.7852 9.9024 93.9961 10.0587V10.1641C94.7852 10.3751 95.4258 10.7657 95.918 11.336C96.4102 11.8985 96.6562 12.6329 96.6562 13.5391C96.6562 14.7735 96.3633 15.7969 95.7773 16.6094C95.1992 17.4141 94.4062 18.0157 93.3984 18.4141C92.3984 18.8047 91.2578 19.0001 89.9766 19.0001H84.2344ZM87.5039 16.6446H90.1289C90.8789 16.6446 91.5273 16.5274 92.0742 16.293C92.6289 16.0587 93.0547 15.711 93.3516 15.2501C93.6562 14.7891 93.8086 14.2227 93.8086 13.5508C93.8086 12.8399 93.5859 12.2696 93.1406 11.8399C92.7031 11.4102 92 11.1954 91.0312 11.1954H88.6641L87.5039 16.6446ZM89.1328 8.93365H91.4766C92.1406 8.93365 92.7305 8.8399 93.2461 8.6524C93.7695 8.45709 94.1797 8.16022 94.4766 7.76178C94.7812 7.35553 94.9336 6.8399 94.9336 6.2149C94.9336 5.55865 94.7227 5.05865 94.3008 4.7149C93.8867 4.37115 93.2227 4.19928 92.3086 4.19928H90.1406L89.1328 8.93365ZM104.098 19.2344C103.105 19.2344 102.238 19.0469 101.496 18.6719C100.762 18.2891 100.191 17.7305 99.7852 16.9962C99.3867 16.254 99.1875 15.3477 99.1875 14.2774C99.1875 13.2149 99.3398 12.1797 99.6445 11.1719C99.9492 10.1563 100.398 9.24225 100.992 8.42975C101.586 7.61725 102.309 6.97272 103.16 6.49615C104.012 6.01959 104.98 5.78131 106.066 5.78131C107.395 5.78131 108.391 6.08209 109.055 6.68365C109.727 7.2774 110.062 8.06647 110.062 9.05084C110.062 9.72272 109.91 10.336 109.605 10.8907C109.301 11.4454 108.836 11.9258 108.211 12.3321C107.594 12.7305 106.809 13.0391 105.855 13.2579C104.91 13.4766 103.797 13.586 102.516 13.586H101.988C101.98 13.7032 101.973 13.8243 101.965 13.9493C101.957 14.0665 101.953 14.1837 101.953 14.3008C101.953 15.168 102.18 15.8516 102.633 16.3516C103.086 16.8438 103.746 17.0899 104.613 17.0899C105.27 17.0899 105.875 17.0079 106.43 16.8438C106.984 16.6797 107.605 16.4337 108.293 16.1055V18.2735C107.66 18.5782 107.02 18.8165 106.371 18.9883C105.723 19.1524 104.965 19.2344 104.098 19.2344ZM102.328 11.5938H102.727C103.68 11.5938 104.508 11.504 105.211 11.3243C105.914 11.1368 106.457 10.8633 106.84 10.504C107.223 10.1368 107.414 9.69147 107.414 9.16803C107.414 8.76178 107.285 8.44537 107.027 8.21881C106.777 7.98444 106.402 7.86725 105.902 7.86725C105.41 7.86725 104.926 8.01959 104.449 8.32428C103.973 8.62115 103.547 9.05084 103.172 9.61334C102.797 10.168 102.516 10.8282 102.328 11.5938ZM115.312 19.2344C114.367 19.2344 113.598 19.0235 113.004 18.6016C112.418 18.1719 112.125 17.4219 112.125 16.3516C112.125 16.1407 112.137 15.9102 112.16 15.6602C112.191 15.4024 112.234 15.1368 112.289 14.8633L113.719 8.11334H111.844L112.102 6.80084L114.316 5.8985L115.793 3.15631H117.516L116.906 6.0274H120.211L119.766 8.11334H116.473L115.031 14.8751C114.992 15.0391 114.957 15.2149 114.926 15.4024C114.902 15.5821 114.891 15.7462 114.891 15.8946C114.891 16.2462 114.988 16.5196 115.184 16.7149C115.379 16.9102 115.676 17.0079 116.074 17.0079C116.379 17.0079 116.672 16.9766 116.953 16.9141C117.234 16.8516 117.543 16.7618 117.879 16.6446V18.7188C117.59 18.8516 117.215 18.9688 116.754 19.0704C116.293 19.1797 115.812 19.2344 115.312 19.2344ZM124.195 19.2344C123.25 19.2344 122.48 19.0235 121.887 18.6016C121.301 18.1719 121.008 17.4219 121.008 16.3516C121.008 16.1407 121.02 15.9102 121.043 15.6602C121.074 15.4024 121.117 15.1368 121.172 14.8633L122.602 8.11334H120.727L120.984 6.80084L123.199 5.8985L124.676 3.15631H126.398L125.789 6.0274H129.094L128.648 8.11334H125.355L123.914 14.8751C123.875 15.0391 123.84 15.2149 123.809 15.4024C123.785 15.5821 123.773 15.7462 123.773 15.8946C123.773 16.2462 123.871 16.5196 124.066 16.7149C124.262 16.9102 124.559 17.0079 124.957 17.0079C125.262 17.0079 125.555 16.9766 125.836 16.9141C126.117 16.8516 126.426 16.7618 126.762 16.6446V18.7188C126.473 18.8516 126.098 18.9688 125.637 19.0704C125.176 19.1797 124.695 19.2344 124.195 19.2344ZM134.543 19.2344C133.551 19.2344 132.684 19.0469 131.941 18.6719C131.207 18.2891 130.637 17.7305 130.23 16.9962C129.832 16.254 129.633 15.3477 129.633 14.2774C129.633 13.2149 129.785 12.1797 130.09 11.1719C130.395 10.1563 130.844 9.24225 131.438 8.42975C132.031 7.61725 132.754 6.97272 133.605 6.49615C134.457 6.01959 135.426 5.78131 136.512 5.78131C137.84 5.78131 138.836 6.08209 139.5 6.68365C140.172 7.2774 140.508 8.06647 140.508 9.05084C140.508 9.72272 140.355 10.336 140.051 10.8907C139.746 11.4454 139.281 11.9258 138.656 12.3321C138.039 12.7305 137.254 13.0391 136.301 13.2579C135.355 13.4766 134.242 13.586 132.961 13.586H132.434C132.426 13.7032 132.418 13.8243 132.41 13.9493C132.402 14.0665 132.398 14.1837 132.398 14.3008C132.398 15.168 132.625 15.8516 133.078 16.3516C133.531 16.8438 134.191 17.0899 135.059 17.0899C135.715 17.0899 136.32 17.0079 136.875 16.8438C137.43 16.6797 138.051 16.4337 138.738 16.1055V18.2735C138.105 18.5782 137.465 18.8165 136.816 18.9883C136.168 19.1524 135.41 19.2344 134.543 19.2344ZM132.773 11.5938H133.172C134.125 11.5938 134.953 11.504 135.656 11.3243C136.359 11.1368 136.902 10.8633 137.285 10.504C137.668 10.1368 137.859 9.69147 137.859 9.16803C137.859 8.76178 137.73 8.44537 137.473 8.21881C137.223 7.98444 136.848 7.86725 136.348 7.86725C135.855 7.86725 135.371 8.01959 134.895 8.32428C134.418 8.62115 133.992 9.05084 133.617 9.61334C133.242 10.168 132.961 10.8282 132.773 11.5938ZM141.75 19.0001L144.504 6.0274H146.648L146.367 8.47662H146.496C146.832 7.97662 147.195 7.5235 147.586 7.11725C147.984 6.711 148.426 6.38678 148.91 6.14459C149.395 5.9024 149.934 5.78131 150.527 5.78131C150.738 5.78131 150.957 5.79694 151.184 5.82819C151.418 5.85162 151.621 5.88678 151.793 5.93365L151.195 8.51178C151.023 8.4649 150.836 8.42584 150.633 8.39459C150.43 8.36334 150.215 8.34772 149.988 8.34772C149.473 8.34772 148.988 8.46881 148.535 8.711C148.082 8.95319 147.672 9.28912 147.305 9.71881C146.938 10.1485 146.621 10.6524 146.355 11.2305C146.09 11.8008 145.883 12.4219 145.734 13.0938L144.492 19.0001H141.75ZM152.883 19.3165C152.367 19.3165 151.988 19.1797 151.746 18.9063C151.512 18.6329 151.395 18.2969 151.395 17.8985C151.395 17.3594 151.551 16.8751 151.863 16.4454C152.184 16.0157 152.711 15.8008 153.445 15.8008C153.875 15.8008 154.219 15.9258 154.477 16.1758C154.742 16.4258 154.875 16.7813 154.875 17.2422C154.875 17.8047 154.699 18.293 154.348 18.7071C154.004 19.1133 153.516 19.3165 152.883 19.3165ZM164.484 19.0001L168.105 1.86725H170.883L167.754 16.6094H174.105L173.602 19.0001H164.484ZM176.203 19.0001L178.957 6.0274H181.699L178.945 19.0001H176.203ZM180.938 4.08209C180.531 4.08209 180.191 3.98444 179.918 3.78912C179.645 3.586 179.508 3.26959 179.508 2.8399C179.508 2.48053 179.574 2.16803 179.707 1.9024C179.848 1.63678 180.047 1.43365 180.305 1.29303C180.57 1.14459 180.887 1.07037 181.254 1.07037C181.66 1.07037 181.992 1.16803 182.25 1.36334C182.508 1.55084 182.637 1.85553 182.637 2.2774C182.637 2.82428 182.484 3.26178 182.18 3.5899C181.875 3.91803 181.461 4.08209 180.938 4.08209ZM185.004 19.0001L183.422 6.0274H186.141L186.797 13.1524C186.828 13.4571 186.855 13.8204 186.879 14.2422C186.902 14.6641 186.922 15.0782 186.938 15.4844C186.961 15.8829 186.973 16.211 186.973 16.4688H187.066C187.199 16.1485 187.352 15.7852 187.523 15.379C187.703 14.9649 187.883 14.5626 188.062 14.1719C188.242 13.7735 188.402 13.4376 188.543 13.1641L192.258 6.0274H195.199L188.156 19.0001H185.004ZM199.957 19.2344C198.965 19.2344 198.098 19.0469 197.355 18.6719C196.621 18.2891 196.051 17.7305 195.645 16.9962C195.246 16.254 195.047 15.3477 195.047 14.2774C195.047 13.2149 195.199 12.1797 195.504 11.1719C195.809 10.1563 196.258 9.24225 196.852 8.42975C197.445 7.61725 198.168 6.97272 199.02 6.49615C199.871 6.01959 200.84 5.78131 201.926 5.78131C203.254 5.78131 204.25 6.08209 204.914 6.68365C205.586 7.2774 205.922 8.06647 205.922 9.05084C205.922 9.72272 205.77 10.336 205.465 10.8907C205.16 11.4454 204.695 11.9258 204.07 12.3321C203.453 12.7305 202.668 13.0391 201.715 13.2579C200.77 13.4766 199.656 13.586 198.375 13.586H197.848C197.84 13.7032 197.832 13.8243 197.824 13.9493C197.816 14.0665 197.812 14.1837 197.812 14.3008C197.812 15.168 198.039 15.8516 198.492 16.3516C198.945 16.8438 199.605 17.0899 200.473 17.0899C201.129 17.0899 201.734 17.0079 202.289 16.8438C202.844 16.6797 203.465 16.4337 204.152 16.1055V18.2735C203.52 18.5782 202.879 18.8165 202.23 18.9883C201.582 19.1524 200.824 19.2344 199.957 19.2344ZM198.188 11.5938H198.586C199.539 11.5938 200.367 11.504 201.07 11.3243C201.773 11.1368 202.316 10.8633 202.699 10.504C203.082 10.1368 203.273 9.69147 203.273 9.16803C203.273 8.76178 203.145 8.44537 202.887 8.21881C202.637 7.98444 202.262 7.86725 201.762 7.86725C201.27 7.86725 200.785 8.01959 200.309 8.32428C199.832 8.62115 199.406 9.05084 199.031 9.61334C198.656 10.168 198.375 10.8282 198.188 11.5938ZM213.656 19.0001L217.277 1.86725H221.988C223.066 1.86725 223.996 2.00006 224.777 2.26569C225.559 2.53131 226.16 2.94537 226.582 3.50787C227.012 4.07037 227.227 4.80475 227.227 5.711C227.227 6.48444 227.07 7.17194 226.758 7.7735C226.453 8.36725 226.016 8.85944 225.445 9.25006C224.883 9.63287 224.207 9.9024 223.418 10.0587V10.1641C224.207 10.3751 224.848 10.7657 225.34 11.336C225.832 11.8985 226.078 12.6329 226.078 13.5391C226.078 14.7735 225.785 15.7969 225.199 16.6094C224.621 17.4141 223.828 18.0157 222.82 18.4141C221.82 18.8047 220.68 19.0001 219.398 19.0001H213.656ZM216.926 16.6446H219.551C220.301 16.6446 220.949 16.5274 221.496 16.293C222.051 16.0587 222.477 15.711 222.773 15.2501C223.078 14.7891 223.23 14.2227 223.23 13.5508C223.23 12.8399 223.008 12.2696 222.562 11.8399C222.125 11.4102 221.422 11.1954 220.453 11.1954H218.086L216.926 16.6446ZM218.555 8.93365H220.898C221.562 8.93365 222.152 8.8399 222.668 8.6524C223.191 8.45709 223.602 8.16022 223.898 7.76178C224.203 7.35553 224.355 6.8399 224.355 6.2149C224.355 5.55865 224.145 5.05865 223.723 4.7149C223.309 4.37115 222.645 4.19928 221.73 4.19928H219.562L218.555 8.93365ZM233.52 19.2344C232.527 19.2344 231.66 19.0469 230.918 18.6719C230.184 18.2891 229.613 17.7305 229.207 16.9962C228.809 16.254 228.609 15.3477 228.609 14.2774C228.609 13.2149 228.762 12.1797 229.066 11.1719C229.371 10.1563 229.82 9.24225 230.414 8.42975C231.008 7.61725 231.73 6.97272 232.582 6.49615C233.434 6.01959 234.402 5.78131 235.488 5.78131C236.816 5.78131 237.812 6.08209 238.477 6.68365C239.148 7.2774 239.484 8.06647 239.484 9.05084C239.484 9.72272 239.332 10.336 239.027 10.8907C238.723 11.4454 238.258 11.9258 237.633 12.3321C237.016 12.7305 236.23 13.0391 235.277 13.2579C234.332 13.4766 233.219 13.586 231.938 13.586H231.41C231.402 13.7032 231.395 13.8243 231.387 13.9493C231.379 14.0665 231.375 14.1837 231.375 14.3008C231.375 15.168 231.602 15.8516 232.055 16.3516C232.508 16.8438 233.168 17.0899 234.035 17.0899C234.691 17.0899 235.297 17.0079 235.852 16.8438C236.406 16.6797 237.027 16.4337 237.715 16.1055V18.2735C237.082 18.5782 236.441 18.8165 235.793 18.9883C235.145 19.1524 234.387 19.2344 233.52 19.2344ZM231.75 11.5938H232.148C233.102 11.5938 233.93 11.504 234.633 11.3243C235.336 11.1368 235.879 10.8633 236.262 10.504C236.645 10.1368 236.836 9.69147 236.836 9.16803C236.836 8.76178 236.707 8.44537 236.449 8.21881C236.199 7.98444 235.824 7.86725 235.324 7.86725C234.832 7.86725 234.348 8.01959 233.871 8.32428C233.395 8.62115 232.969 9.05084 232.594 9.61334C232.219 10.168 231.938 10.8282 231.75 11.5938ZM244.734 19.2344C243.789 19.2344 243.02 19.0235 242.426 18.6016C241.84 18.1719 241.547 17.4219 241.547 16.3516C241.547 16.1407 241.559 15.9102 241.582 15.6602C241.613 15.4024 241.656 15.1368 241.711 14.8633L243.141 8.11334H241.266L241.523 6.80084L243.738 5.8985L245.215 3.15631H246.938L246.328 6.0274H249.633L249.188 8.11334H245.895L244.453 14.8751C244.414 15.0391 244.379 15.2149 244.348 15.4024C244.324 15.5821 244.312 15.7462 244.312 15.8946C244.312 16.2462 244.41 16.5196 244.605 16.7149C244.801 16.9102 245.098 17.0079 245.496 17.0079C245.801 17.0079 246.094 16.9766 246.375 16.9141C246.656 16.8516 246.965 16.7618 247.301 16.6446V18.7188C247.012 18.8516 246.637 18.9688 246.176 19.0704C245.715 19.1797 245.234 19.2344 244.734 19.2344ZM253.617 19.2344C252.672 19.2344 251.902 19.0235 251.309 18.6016C250.723 18.1719 250.43 17.4219 250.43 16.3516C250.43 16.1407 250.441 15.9102 250.465 15.6602C250.496 15.4024 250.539 15.1368 250.594 14.8633L252.023 8.11334H250.148L250.406 6.80084L252.621 5.8985L254.098 3.15631H255.82L255.211 6.0274H258.516L258.07 8.11334H254.777L253.336 14.8751C253.297 15.0391 253.262 15.2149 253.23 15.4024C253.207 15.5821 253.195 15.7462 253.195 15.8946C253.195 16.2462 253.293 16.5196 253.488 16.7149C253.684 16.9102 253.98 17.0079 254.379 17.0079C254.684 17.0079 254.977 16.9766 255.258 16.9141C255.539 16.8516 255.848 16.7618 256.184 16.6446V18.7188C255.895 18.8516 255.52 18.9688 255.059 19.0704C254.598 19.1797 254.117 19.2344 253.617 19.2344ZM263.965 19.2344C262.973 19.2344 262.105 19.0469 261.363 18.6719C260.629 18.2891 260.059 17.7305 259.652 16.9962C259.254 16.254 259.055 15.3477 259.055 14.2774C259.055 13.2149 259.207 12.1797 259.512 11.1719C259.816 10.1563 260.266 9.24225 260.859 8.42975C261.453 7.61725 262.176 6.97272 263.027 6.49615C263.879 6.01959 264.848 5.78131 265.934 5.78131C267.262 5.78131 268.258 6.08209 268.922 6.68365C269.594 7.2774 269.93 8.06647 269.93 9.05084C269.93 9.72272 269.777 10.336 269.473 10.8907C269.168 11.4454 268.703 11.9258 268.078 12.3321C267.461 12.7305 266.676 13.0391 265.723 13.2579C264.777 13.4766 263.664 13.586 262.383 13.586H261.855C261.848 13.7032 261.84 13.8243 261.832 13.9493C261.824 14.0665 261.82 14.1837 261.82 14.3008C261.82 15.168 262.047 15.8516 262.5 16.3516C262.953 16.8438 263.613 17.0899 264.48 17.0899C265.137 17.0899 265.742 17.0079 266.297 16.8438C266.852 16.6797 267.473 16.4337 268.16 16.1055V18.2735C267.527 18.5782 266.887 18.8165 266.238 18.9883C265.59 19.1524 264.832 19.2344 263.965 19.2344ZM262.195 11.5938H262.594C263.547 11.5938 264.375 11.504 265.078 11.3243C265.781 11.1368 266.324 10.8633 266.707 10.504C267.09 10.1368 267.281 9.69147 267.281 9.16803C267.281 8.76178 267.152 8.44537 266.895 8.21881C266.645 7.98444 266.27 7.86725 265.77 7.86725C265.277 7.86725 264.793 8.01959 264.316 8.32428C263.84 8.62115 263.414 9.05084 263.039 9.61334C262.664 10.168 262.383 10.8282 262.195 11.5938ZM271.172 19.0001L273.926 6.0274H276.07L275.789 8.47662H275.918C276.254 7.97662 276.617 7.5235 277.008 7.11725C277.406 6.711 277.848 6.38678 278.332 6.14459C278.816 5.9024 279.355 5.78131 279.949 5.78131C280.16 5.78131 280.379 5.79694 280.605 5.82819C280.84 5.85162 281.043 5.88678 281.215 5.93365L280.617 8.51178C280.445 8.4649 280.258 8.42584 280.055 8.39459C279.852 8.36334 279.637 8.34772 279.41 8.34772C278.895 8.34772 278.41 8.46881 277.957 8.711C277.504 8.95319 277.094 9.28912 276.727 9.71881C276.359 10.1485 276.043 10.6524 275.777 11.2305C275.512 11.8008 275.305 12.4219 275.156 13.0938L273.914 19.0001H271.172ZM282.305 19.3165C281.789 19.3165 281.41 19.1797 281.168 18.9063C280.934 18.6329 280.816 18.2969 280.816 17.8985C280.816 17.3594 280.973 16.8751 281.285 16.4454C281.605 16.0157 282.133 15.8008 282.867 15.8008C283.297 15.8008 283.641 15.9258 283.898 16.1758C284.164 16.4258 284.297 16.7813 284.297 17.2422C284.297 17.8047 284.121 18.293 283.77 18.7071C283.426 19.1133 282.938 19.3165 282.305 19.3165Z" fill="white"/>
</svg>
