<svg width="265" height="309" viewBox="0 0 265 309" fill="none" xmlns="http://www.w3.org/2000/svg">
<path fill-rule="evenodd" clip-rule="evenodd" d="M200.871 92.6518C203.088 88.8454 204 82.054 204 69.94C204 41.8013 184.091 6.10352e-05 169.317 6.10352e-05C154.544 6.10352e-05 150.5 41.8013 150.5 69.94C150.5 72.5785 150.667 74.9644 150.983 77.1221C144.943 76.3824 138.772 76.0001 132.5 76.0001C124.721 76.0001 117.099 76.5882 109.688 77.7165C107.654 47.6131 87.449 7.00006 72.2544 7.00006C56.2381 7.00006 51.8545 52.1244 51.8545 82.5001C51.8545 89.1097 52.8315 94.2515 54.5252 98.2513C21.4764 119.39 0 153.62 0 192.25C0 256.453 59.3223 308.5 132.5 308.5C205.678 308.5 265 256.453 265 192.25C265 149.994 239.303 113.003 200.871 92.6518Z" fill="white" fill-opacity="0.12"/>
</svg>
