<svg width="165" height="29" viewBox="0 0 165 29" fill="none" xmlns="http://www.w3.org/2000/svg">
<path d="M40.2206 7.17972C40.4932 7.32895 40.5625 7.55861 40.6725 7.8324C40.7293 7.9656 40.7872 8.09827 40.8452 8.23092C40.8604 8.26596 40.8757 8.301 40.8914 8.3371C40.9916 8.56585 41.0982 8.79004 41.2122 9.01225C41.4633 9.51348 41.679 10.0336 41.9048 10.5466C42.0379 10.8476 42.176 11.1442 42.3251 11.4376C42.4004 11.589 42.4656 11.7429 42.5305 11.8991C42.6168 12.1035 42.7054 12.3042 42.8067 12.5016C42.9052 12.694 42.9923 12.8893 43.0766 13.0884C43.271 13.5475 43.4839 13.9974 43.6989 14.4471C43.8852 14.8372 44.0668 15.2263 44.2291 15.6271C44.3141 15.8262 44.4136 16.0171 44.512 16.2098C44.6235 16.4374 44.7201 16.6708 44.8186 16.9042C44.8986 17.089 44.9871 17.2676 45.0785 17.4469C45.3376 17.962 45.5625 18.4943 45.7921 19.0229C45.9177 19.3107 46.0491 19.5937 46.1913 19.8736C46.3913 20.2684 46.5663 20.676 46.7453 21.0806C46.9252 21.4869 47.1114 21.8899 47.3008 22.2918C47.5072 22.7298 47.7085 23.1695 47.9043 23.6123C48.0662 23.9779 48.2351 24.34 48.4056 24.7017C48.5074 24.9179 48.6086 25.1344 48.7088 25.3513C48.7623 25.4661 48.8172 25.5801 48.872 25.6943C48.9101 25.7755 48.9482 25.8568 48.9862 25.938C49.0048 25.9761 49.0234 26.0142 49.0427 26.0534C49.0593 26.0895 49.0759 26.1256 49.0931 26.1628C49.1158 26.2104 49.1157 26.2104 49.1389 26.259C49.1667 26.398 49.1134 26.482 49.0584 26.6096C48.6699 26.613 48.2814 26.6157 47.8929 26.6174C47.7125 26.6181 47.5321 26.6192 47.3517 26.6209C47.1775 26.6226 47.0033 26.6235 46.8291 26.6238C46.7305 26.6243 46.6319 26.6254 46.5333 26.6266C46.4428 26.6266 46.4428 26.6266 46.3506 26.6267C46.2976 26.627 46.2446 26.6273 46.1901 26.6277C46.0217 26.6066 45.9302 26.5594 45.7944 26.4589C45.6138 26.2166 45.4961 25.9573 45.377 25.6807C45.0414 24.7685 45.0414 24.7685 44.3884 24.0992C44.1495 24.0205 43.9419 23.9861 43.6908 23.9851C43.6578 23.9848 43.6248 23.9845 43.5908 23.9843C43.4812 23.9835 43.3716 23.9835 43.262 23.9834C43.1831 23.9831 43.1041 23.9826 43.0251 23.9822C42.8113 23.9811 42.5975 23.9806 42.3836 23.9804C42.2499 23.9802 42.1161 23.9799 41.9824 23.9795C41.5153 23.9783 41.0482 23.9776 40.5811 23.9775C40.1465 23.9773 39.7118 23.9758 39.2771 23.9737C38.9033 23.9719 38.5295 23.9712 38.1556 23.9711C37.9326 23.9711 37.7096 23.9706 37.4866 23.9692C37.2768 23.9679 37.0671 23.9678 36.8573 23.9686C36.7805 23.9687 36.7038 23.9684 36.6271 23.9675C36.2044 23.9634 35.8413 23.9707 35.5005 24.2499C35.2594 24.4977 35.1376 24.7771 35.0124 25.0961C34.9268 25.3062 34.8244 25.5059 34.7208 25.7076C34.6262 25.8979 34.5445 26.0927 34.4646 26.2895C34.3774 26.4405 34.2896 26.5124 34.1447 26.6096C33.9963 26.6337 33.9963 26.6337 33.8304 26.6324C33.7681 26.6323 33.7057 26.6323 33.6415 26.6323C33.5741 26.6313 33.5066 26.6302 33.4391 26.6292C33.3697 26.6288 33.3002 26.6285 33.2308 26.6283C33.0486 26.6275 32.8664 26.6256 32.6842 26.6233C32.4981 26.6213 32.3119 26.6204 32.1258 26.6194C31.761 26.6172 31.3962 26.6138 31.0314 26.6096C30.986 26.3777 30.9767 26.2686 31.0941 26.0604C31.2033 25.863 31.2962 25.6629 31.3829 25.4548C31.6192 24.8944 31.8543 24.3373 32.1361 23.798C32.1729 23.7259 32.2095 23.6538 32.2459 23.5815C32.2601 23.5537 32.2743 23.526 32.2889 23.4974C32.3779 23.3102 32.4566 23.1184 32.5372 22.9275C32.7574 22.4062 32.9786 21.8899 33.2408 21.3881C33.2776 21.316 33.3142 21.2439 33.3506 21.1716C33.3648 21.1438 33.379 21.1161 33.3936 21.0875C33.4827 20.9003 33.5613 20.7085 33.6419 20.5176C33.8621 19.9963 34.0833 19.48 34.3455 18.9782C34.3823 18.9061 34.4189 18.834 34.4554 18.7617C34.4766 18.72 34.4766 18.72 34.4983 18.6775C34.5874 18.4904 34.666 18.2986 34.7466 18.1077C34.9668 17.5864 35.188 17.0701 35.4502 16.5683C35.487 16.4962 35.5237 16.4241 35.5601 16.3518C35.5813 16.3101 35.5813 16.3101 35.603 16.2676C35.6586 16.1509 35.7091 16.0323 35.7597 15.9134C36.0451 15.2463 36.3404 14.58 36.6679 13.9325C36.7386 13.7911 36.8025 13.6492 36.8643 13.5038C37.1495 12.8366 37.445 12.1702 37.7727 11.5226C37.8434 11.3812 37.9073 11.2393 37.9691 11.0939C38.2543 10.4267 38.5498 9.76033 38.8774 9.11266C38.9478 8.97192 39.0114 8.83074 39.0729 8.68603C39.1524 8.50009 39.2347 8.31536 39.3168 8.1305C39.334 8.09151 39.3512 8.05252 39.3689 8.01234C39.7716 7.1049 39.7716 7.1049 40.2206 7.17972Z" fill="#FCFCFD"/>
<path d="M124.462 8.00712C124.522 8.00664 124.582 8.00617 124.644 8.00569C124.709 8.00625 124.774 8.00682 124.841 8.0074C124.908 8.00739 124.975 8.00731 125.042 8.00718C125.182 8.00711 125.323 8.00774 125.463 8.00888C125.644 8.01031 125.824 8.01017 126.004 8.00953C126.143 8.00918 126.281 8.00957 126.42 8.01019C126.519 8.01053 126.617 8.01031 126.716 8.01009C126.776 8.01073 126.836 8.01136 126.898 8.01202C126.95 8.01229 127.003 8.01256 127.058 8.01284C127.099 8.01926 127.141 8.02569 127.183 8.0323C127.285 8.18533 127.296 8.21435 127.296 8.38605C127.297 8.42753 127.297 8.46901 127.297 8.51174C127.297 8.55731 127.297 8.60287 127.297 8.64982C127.297 8.69824 127.297 8.74666 127.297 8.79655C127.298 8.95956 127.297 9.12257 127.297 9.28559C127.297 9.4022 127.298 9.51881 127.298 9.63542C127.299 9.88707 127.299 10.1387 127.299 10.3904C127.299 10.7553 127.3 11.1203 127.301 11.4852C127.302 12.0787 127.303 12.6723 127.304 13.2658C127.304 13.3191 127.304 13.3191 127.305 13.3735C127.305 13.7689 127.306 14.1642 127.306 14.5596C127.306 14.7025 127.306 14.8453 127.307 14.9881C127.307 15.0409 127.307 15.0409 127.307 15.0949C127.307 15.6851 127.309 16.2754 127.31 16.8657C127.311 17.2611 127.312 17.6566 127.312 18.052C127.312 18.2996 127.312 18.5471 127.313 18.7947C127.314 18.9085 127.314 19.0223 127.313 19.1361C127.31 20.6878 127.528 22.0081 128.649 23.1664C128.787 23.3015 128.922 23.4009 129.091 23.4958C129.091 23.529 129.091 23.5621 129.091 23.5963C129.157 23.6165 129.157 23.6165 129.224 23.6372C129.386 23.6945 129.529 23.7635 129.681 23.8441C129.905 23.9576 130.12 24.0494 130.362 24.113C130.452 24.1366 130.542 24.1614 130.631 24.1871C131.004 24.2896 131.348 24.3247 131.734 24.3211C131.791 24.3208 131.847 24.3204 131.906 24.3201C133.079 24.2978 134.146 23.8759 135.001 23.0656C136.045 21.9653 136.187 20.7366 136.185 19.2877C136.185 19.1678 136.186 19.0479 136.186 18.928C136.187 18.6712 136.187 18.4143 136.187 18.1574C136.187 17.7857 136.188 17.4141 136.189 17.0424C136.19 16.4389 136.191 15.8353 136.192 15.2318C136.192 15.1957 136.192 15.1597 136.192 15.1226C136.193 14.7201 136.194 14.3176 136.194 13.9151C136.194 13.7688 136.194 13.6225 136.194 13.4761C136.195 13.44 136.195 13.4039 136.195 13.3667C136.195 12.7647 136.196 12.1626 136.198 11.5606C136.199 11.223 136.2 10.8854 136.2 10.5478C136.2 10.2309 136.2 9.91393 136.201 9.59698C136.202 9.48059 136.202 9.36419 136.201 9.24779C136.201 9.08917 136.202 8.93058 136.202 8.77196C136.202 8.7257 136.202 8.67944 136.202 8.63178C136.204 8.39337 136.211 8.22243 136.372 8.0323C136.504 8.0011 136.504 8.0011 136.665 8.00142C136.724 8.00095 136.784 8.00048 136.846 8C136.944 8.00123 136.944 8.00123 137.043 8.00249C137.11 8.00258 137.177 8.00258 137.244 8.00249C137.384 8.00257 137.525 8.00351 137.666 8.00509C137.846 8.00709 138.026 8.0073 138.206 8.00693C138.345 8.00677 138.483 8.00738 138.622 8.00824C138.721 8.00876 138.82 8.00879 138.918 8.0088C138.978 8.0096 139.038 8.0104 139.1 8.01122C139.153 8.01164 139.205 8.01207 139.26 8.0125C139.322 8.0223 139.322 8.0223 139.385 8.0323C139.489 8.1878 139.498 8.21995 139.498 8.39574C139.499 8.43938 139.499 8.48302 139.499 8.52798C139.499 8.57596 139.499 8.62394 139.498 8.67337C139.499 8.72432 139.499 8.77527 139.499 8.82776C139.499 8.99934 139.499 9.17091 139.499 9.34248C139.499 9.46519 139.499 9.5879 139.499 9.71061C139.5 10.01 139.5 10.3094 139.499 10.6088C139.499 10.8525 139.499 11.0962 139.499 11.34C139.499 11.3747 139.499 11.4094 139.499 11.4451C139.499 11.5156 139.499 11.5861 139.499 11.6566C139.5 12.3184 139.499 12.9801 139.499 13.6419C139.498 14.2082 139.498 14.7745 139.499 15.3407C139.499 15.999 139.5 16.6572 139.499 17.3155C139.499 17.386 139.499 17.4564 139.499 17.5269C139.499 17.5615 139.499 17.5962 139.499 17.6319C139.499 17.8746 139.499 18.1173 139.499 18.36C139.5 18.6881 139.5 19.0162 139.499 19.3444C139.499 19.4642 139.499 19.5841 139.499 19.7039C139.501 20.5792 139.48 21.4358 139.244 22.2846C139.231 22.3338 139.217 22.383 139.204 22.4337C139.106 22.7845 138.992 23.1176 138.833 23.4456C138.804 23.5077 138.776 23.5697 138.747 23.6317C138.379 24.4174 137.891 25.0937 137.276 25.7049C137.232 25.7492 137.188 25.7936 137.142 25.8393C136.173 26.7622 134.899 27.3451 133.611 27.663C133.56 27.6755 133.56 27.6755 133.508 27.6883C132.396 27.9467 131.054 27.919 129.945 27.663C129.885 27.6507 129.825 27.6385 129.763 27.6259C128.495 27.3329 127.33 26.6856 126.38 25.8053C126.309 25.7406 126.309 25.7406 126.237 25.6745C125.134 24.623 124.475 23.2294 124.161 21.7543C124.148 21.6976 124.148 21.6976 124.135 21.6398C123.971 20.8203 124.012 19.9543 124.012 19.1227C124.011 19.0037 124.011 18.8847 124.011 18.7657C124.01 18.4453 124.01 18.1249 124.01 17.8045C124.009 17.6042 124.009 17.4039 124.009 17.2036C124.008 16.6478 124.008 16.092 124.008 15.5362C124.008 15.5008 124.008 15.4655 124.008 15.429C124.008 15.3936 124.008 15.3581 124.008 15.3216C124.008 15.2498 124.008 15.178 124.008 15.1061C124.008 15.0705 124.008 15.0349 124.008 14.9982C124.007 14.4187 124.007 13.8392 124.005 13.2597C124.004 12.6633 124.004 12.0669 124.003 11.4705C124.003 11.1362 124.003 10.8019 124.002 10.4676C124.001 10.1539 124.001 9.84035 124.002 9.52674C124.002 9.41154 124.002 9.29633 124.001 9.18113C124 9.02426 124.001 8.86742 124.001 8.71055C124.001 8.66467 124 8.61879 124 8.57153C124.002 8.2657 124.002 8.2657 124.088 8.10445C124.21 7.99751 124.302 8.00714 124.462 8.00712Z" fill="#FCFCFD"/>
<path d="M118.394 8.00585C118.453 8.00537 118.512 8.00489 118.572 8.0044C118.636 8.00445 118.7 8.00449 118.766 8.00454C118.831 8.00432 118.896 8.00411 118.964 8.00389C119.102 8.00351 119.24 8.00353 119.378 8.00379C119.555 8.00408 119.733 8.00323 119.91 8.00207C120.079 8.00115 120.248 8.00134 120.417 8.0014C120.512 8.00071 120.512 8.00071 120.61 8C120.698 8.00047 120.698 8.00047 120.788 8.00095C120.84 8.00092 120.892 8.00088 120.946 8.00085C121.095 8.02238 121.137 8.0519 121.226 8.17026C121.295 8.3083 121.283 8.41864 121.284 8.57322C121.284 8.63815 121.284 8.70308 121.284 8.76998C121.284 8.84272 121.284 8.91545 121.284 8.98819C121.285 9.06493 121.285 9.14167 121.285 9.21841C121.286 9.43007 121.286 9.64173 121.286 9.85339C121.286 10.0814 121.287 10.3093 121.288 10.5373C121.289 11.0882 121.29 11.6391 121.29 12.19C121.29 12.3455 121.291 12.5011 121.291 12.6566C121.292 13.6216 121.293 14.5867 121.294 15.5517C121.294 15.7753 121.294 15.9989 121.294 16.2226C121.294 16.2782 121.294 16.3337 121.294 16.391C121.295 17.2919 121.297 18.1928 121.299 19.0938C121.301 20.018 121.302 20.9423 121.302 21.8665C121.303 22.3857 121.303 22.905 121.305 23.4242C121.306 23.8663 121.307 24.3083 121.306 24.7504C121.306 24.9761 121.306 25.2017 121.307 25.4274C121.308 25.6339 121.308 25.8403 121.307 26.0468C121.307 26.1216 121.308 26.1964 121.308 26.2712C121.309 26.3727 121.309 26.4742 121.308 26.5757C121.308 26.6603 121.308 26.6603 121.308 26.7467C121.267 26.9459 121.181 27.0217 121.026 27.1482C120.89 27.1791 120.89 27.1791 120.742 27.1783C120.687 27.1786 120.631 27.1789 120.574 27.1793C120.514 27.1783 120.454 27.1773 120.393 27.1763C120.301 27.1761 120.301 27.1761 120.206 27.1759C120.076 27.1754 119.946 27.1743 119.816 27.1727C119.617 27.1702 119.418 27.1696 119.219 27.1693C119.092 27.1686 118.966 27.1678 118.84 27.1669C118.78 27.1666 118.72 27.1663 118.659 27.1661C118.603 27.1652 118.548 27.1644 118.491 27.1636C118.417 27.1628 118.417 27.1628 118.343 27.162C118.209 27.1477 118.13 27.1106 118.013 27.0478C118.01 24.6382 118.009 22.2287 118.008 19.8191C118.007 19.5349 118.007 19.2507 118.007 18.9665C118.007 18.9099 118.007 18.8534 118.007 18.7951C118.007 17.8778 118.006 16.9606 118.005 16.0433C118.004 15.1028 118.003 14.1622 118.003 13.2217C118.003 12.6409 118.003 12.0601 118.002 11.4793C118.001 11.0815 118.001 10.6838 118.001 10.286C118.001 10.0562 118.001 9.82638 118.001 9.59657C118 9.38648 118 9.17639 118.001 8.9663C118.001 8.89001 118.001 8.81372 118 8.73743C118 8.63429 118 8.53115 118 8.42801C118 8.37055 118 8.31309 118 8.25389C118.025 7.99262 118.168 8.00686 118.394 8.00585Z" fill="#FCFCFD"/>
<path d="M102.295 8.00111C102.346 8.00117 102.396 8.00122 102.448 8.00128C102.506 8.00086 102.564 8.00043 102.623 8C102.687 8.00056 102.75 8.00113 102.816 8.00171C102.883 8.0016 102.951 8.00141 103.019 8.00113C103.202 8.00064 103.386 8.00142 103.57 8.00243C103.763 8.00332 103.956 8.00314 104.148 8.0031C104.473 8.00319 104.798 8.00407 105.122 8.00544C105.496 8.00701 105.869 8.00754 106.243 8.00747C106.642 8.0074 107.041 8.0081 107.44 8.00902C107.554 8.00923 107.668 8.00931 107.782 8.00935C107.963 8.00945 108.144 8.01007 108.325 8.01107C108.421 8.0115 108.518 8.01145 108.615 8.01138C110.319 8.02363 111.83 8.61696 113.067 9.78332C113.101 9.81465 113.136 9.84597 113.171 9.87824C113.473 10.162 113.697 10.492 113.92 10.8377C113.952 10.8864 113.984 10.9351 114.016 10.9853C114.909 12.4298 115.035 14.2974 114.655 15.9242C114.254 17.3966 113.329 18.7261 112.006 19.5139C111.908 19.568 111.809 19.6214 111.711 19.674C111.671 19.6965 111.631 19.7191 111.59 19.7424C111.271 19.9143 110.938 20.0177 110.593 20.1201C110.486 20.1519 110.38 20.1856 110.275 20.2247C109.299 20.519 108.215 20.4499 107.206 20.4524C107.034 20.4529 106.861 20.4537 106.689 20.4552C106.561 20.4563 106.434 20.4567 106.306 20.4564C105.894 20.4505 105.894 20.4505 105.534 20.6279C105.361 20.9368 105.363 21.2156 105.366 21.5645C105.366 21.6225 105.366 21.6805 105.366 21.7402C105.366 21.8658 105.366 21.9913 105.366 22.1168C105.367 22.3153 105.367 22.5139 105.366 22.7124C105.364 23.2411 105.364 23.7697 105.365 24.2983C105.366 24.6795 105.366 25.0607 105.364 25.4418C105.364 25.5735 105.364 25.7052 105.365 25.8369C105.366 26.0207 105.365 26.2044 105.364 26.3882C105.365 26.4428 105.366 26.4974 105.366 26.5536C105.362 26.9187 105.362 26.9187 105.224 27.0881C105.069 27.1612 104.97 27.1796 104.799 27.1791C104.743 27.1794 104.688 27.1797 104.63 27.18C104.541 27.1789 104.541 27.1789 104.45 27.1778C104.388 27.1778 104.327 27.1777 104.263 27.1777C104.133 27.1774 104.003 27.1766 103.873 27.1754C103.674 27.1735 103.475 27.1733 103.275 27.1733C103.149 27.1728 103.023 27.1722 102.896 27.1716C102.837 27.1715 102.777 27.1713 102.715 27.1712C102.66 27.1706 102.605 27.1699 102.547 27.1693C102.499 27.1689 102.45 27.1685 102.4 27.1681C102.265 27.1541 102.183 27.1273 102.07 27.0543C102 26.9158 102.013 26.8047 102.013 26.6496C102.013 26.5843 102.012 26.519 102.012 26.4517C102.012 26.3785 102.012 26.3054 102.012 26.2322C102.012 26.155 102.012 26.0778 102.012 26.0006C102.011 25.7877 102.011 25.5748 102.011 25.3619C102.011 25.1326 102.011 24.9033 102.011 24.674C102.01 24.1723 102.01 23.6705 102.009 23.1688C102.009 22.8557 102.009 22.5426 102.009 22.2296C102.008 21.3634 102.008 20.4972 102.007 19.631C102.007 19.5755 102.007 19.52 102.007 19.4629C102.007 19.4073 102.007 19.3517 102.007 19.2944C102.007 19.1817 102.007 19.069 102.007 18.9563C102.007 18.9004 102.007 18.8445 102.007 18.7869C102.007 17.8808 102.006 16.9746 102.005 16.0685C102.004 15.139 102.003 14.2094 102.003 13.2799C102.003 12.7577 102.003 12.2355 102.002 11.7132C102.001 11.2686 102.001 10.8241 102.001 10.3795C102.001 10.1525 102.001 9.9255 102.001 9.69852C102 9.4909 102 9.2833 102.001 9.07568C102.001 9.0004 102.001 8.92513 102 8.84985C102 8.74784 102 8.64583 102.001 8.54382C102.001 8.48707 102.001 8.43031 102.001 8.37183C102.027 8.16628 102.085 8.04303 102.295 8.00111Z" fill="#FBFBFC"/>
<path d="M106.534 11.0754C106.592 11.0753 106.65 11.0752 106.71 11.0751C106.833 11.075 106.956 11.0752 107.079 11.0756C107.265 11.0761 107.451 11.0756 107.637 11.075C109.233 11.074 109.233 11.074 109.803 11.3899C109.843 11.4117 109.884 11.4334 109.926 11.4558C110.671 11.8765 111.114 12.4783 111.359 13.2978C111.377 13.3503 111.395 13.4027 111.413 13.4568C111.622 14.3228 111.436 15.2275 110.99 15.986C110.497 16.7181 109.846 17.1012 109 17.2948C108.725 17.3478 108.445 17.3428 108.166 17.3409C108.1 17.3411 108.033 17.3413 107.965 17.3415C107.827 17.3418 107.688 17.3414 107.55 17.3405C107.373 17.3393 107.196 17.34 107.02 17.3412C106.849 17.3421 106.679 17.3414 106.509 17.3409C106.414 17.3416 106.414 17.3416 106.317 17.3422C105.992 17.3387 105.78 17.3358 105.534 17.1134C105.504 17.0886 105.474 17.0637 105.443 17.0381C105.329 16.8939 105.327 16.726 105.326 16.5477C105.326 16.5053 105.326 16.4628 105.326 16.4191C105.326 16.373 105.325 16.3268 105.325 16.2793C105.325 16.2304 105.325 16.1815 105.325 16.131C105.324 15.9692 105.324 15.8074 105.323 15.6455C105.323 15.5329 105.323 15.4204 105.322 15.3078C105.322 15.0718 105.322 14.8357 105.321 14.5997C105.321 14.2975 105.32 13.9953 105.319 13.6931C105.318 13.4606 105.317 13.228 105.317 12.9955C105.317 12.8841 105.317 12.7727 105.316 12.6613C105.315 12.5053 105.315 12.3494 105.316 12.1934C105.315 12.1475 105.315 12.1017 105.314 12.0545C105.316 11.7425 105.363 11.5071 105.55 11.2487C105.844 11.0422 106.192 11.0741 106.534 11.0754Z" fill="#1E2C2B"/>
<path d="M51.0065 7.51249C51.883 7.51014 52.7596 7.50837 53.6361 7.50729C54.0432 7.50678 54.4502 7.50607 54.8573 7.50492C55.2125 7.50391 55.5676 7.50327 55.9228 7.50305C56.1105 7.50292 56.2982 7.50261 56.486 7.50188C57.995 7.49618 57.995 7.49618 58.6391 7.61291C58.6994 7.62382 58.6994 7.62382 58.7609 7.63495C60.279 7.9426 61.6942 8.79035 62.5791 10.0754C62.7884 10.3934 62.9559 10.7288 63.1082 11.0771C63.1226 11.1101 63.137 11.143 63.1519 11.177C63.7386 12.5475 63.7151 14.0965 63.1724 15.4795C62.705 16.6144 61.8422 17.4892 60.7983 18.106C60.711 18.1607 60.6241 18.216 60.5378 18.2723C60.5029 18.2949 60.468 18.3175 60.4321 18.3408C60.3326 18.4107 60.3326 18.4107 60.2459 18.5579C60.2204 18.9027 60.3042 19.1158 60.5035 19.3914C60.5348 19.4351 60.566 19.4788 60.5983 19.5238C60.6311 19.5695 60.664 19.6153 60.6979 19.6624C60.7633 19.7558 60.8287 19.8493 60.8938 19.9429C60.9269 19.9903 60.96 20.0377 60.994 20.0865C61.2684 20.4803 61.5421 20.8741 61.8065 21.2747C62.0783 21.6828 62.3582 22.0857 62.6405 22.4865C62.8011 22.7149 62.9554 22.9473 63.1097 23.18C63.1996 23.3141 63.2913 23.4466 63.3843 23.5785C63.5055 23.7503 63.6232 23.9239 63.739 24.0994C63.9592 24.4315 64.1882 24.7573 64.4176 25.0832C64.5698 25.2995 64.7189 25.5173 64.8657 25.7374C64.905 25.7926 64.9445 25.8476 64.9841 25.9025C65.0039 25.9301 65.0236 25.9576 65.044 25.986C65.0846 26.0426 65.1255 26.099 65.1668 26.1551C65.2838 26.32 65.3176 26.3817 65.3176 26.5909C65.1734 26.663 65.049 26.6483 64.8879 26.6492C64.8541 26.6494 64.8203 26.6497 64.7854 26.6499C64.6733 26.6507 64.5612 26.651 64.449 26.6513C64.3711 26.6516 64.2932 26.6519 64.2152 26.6522C64.0516 26.6527 63.888 26.653 63.7244 26.6531C63.5151 26.6534 63.3059 26.6546 63.0966 26.6561C62.9355 26.657 62.7744 26.6573 62.6133 26.6573C62.5361 26.6575 62.459 26.6579 62.3819 26.6585C62.2737 26.6594 62.1656 26.6593 62.0574 26.659C61.996 26.6592 61.9345 26.6593 61.8712 26.6595C61.6323 26.6335 61.4637 26.5592 61.3012 26.3814C61.272 26.3387 61.2427 26.296 61.2126 26.252C61.1615 26.1782 61.1615 26.1782 61.1094 26.1029C61.073 26.0486 61.0366 25.9942 60.9992 25.9382C60.9593 25.8791 60.9194 25.82 60.8795 25.7609C60.7728 25.6022 60.6672 25.4427 60.5618 25.2831C60.4549 25.1215 60.3473 24.9603 60.2397 24.7991C60.1977 24.7362 60.1557 24.6732 60.1137 24.6103C60.0937 24.5802 60.0736 24.55 60.0529 24.519C59.9666 24.3896 59.8803 24.2602 59.794 24.1308C59.7459 24.0586 59.7459 24.0586 59.6967 23.9851C59.6212 23.8716 59.5459 23.758 59.4708 23.6442C59.2792 23.3546 59.0869 23.0672 58.8807 22.7878C58.7193 22.5688 58.5717 22.3439 58.4272 22.1135C58.2131 21.7746 57.9887 21.4425 57.7572 21.1153C57.6367 20.9446 57.5228 20.7714 57.412 20.5944C57.2068 20.2684 56.9834 19.9549 56.7443 19.6528C56.6807 19.562 56.6807 19.562 56.6807 19.4616C56.6528 19.4481 56.6248 19.4347 56.596 19.4208C56.4799 19.3612 56.4799 19.3612 56.3637 19.289C56.0037 19.0797 55.7357 19.0349 55.3218 19.038C55.2732 19.037 55.2246 19.036 55.1746 19.0349C54.8849 19.0351 54.6896 19.0506 54.4713 19.2608C54.2823 19.5876 54.2998 19.9055 54.3021 20.2757C54.302 20.3427 54.3018 20.4097 54.3015 20.4767C54.3011 20.6204 54.3012 20.7641 54.3015 20.9078C54.3021 21.135 54.3015 21.3622 54.3007 21.5894C54.2989 22.1535 54.2986 22.7176 54.2987 23.2817C54.2988 23.7207 54.2984 24.1597 54.2967 24.5987C54.2959 24.8246 54.2959 25.0504 54.2967 25.2763C54.2971 25.4496 54.2962 25.6229 54.2954 25.7962C54.2962 25.8901 54.2962 25.8901 54.2969 25.9859C54.2962 26.0717 54.2962 26.0717 54.2955 26.1593C54.2955 26.209 54.2955 26.2587 54.2955 26.3099C54.2633 26.4772 54.2019 26.537 54.0696 26.6411C53.9355 26.6656 53.9355 26.6656 53.781 26.6647C53.723 26.6648 53.6651 26.665 53.6053 26.6651C53.543 26.6642 53.4806 26.6634 53.4164 26.6625C53.3523 26.6623 53.2881 26.6621 53.2221 26.662C53.0866 26.6614 52.9511 26.6605 52.8156 26.659C52.6418 26.657 52.468 26.6561 52.2942 26.6556C52.1284 26.6551 51.9627 26.6541 51.797 26.653C51.7344 26.6527 51.6719 26.6523 51.6074 26.6519C51.5497 26.6513 51.4921 26.6506 51.4327 26.65C51.3818 26.6495 51.3309 26.649 51.2784 26.6485C51.1571 26.6411 51.1571 26.6411 51.0567 26.5909C51.0012 26.4244 51.0002 26.3015 51.0003 26.1261C51.0002 26.0599 51.0001 25.9937 51 25.9254C51.0001 25.8515 51.0003 25.7775 51.0004 25.7036C51.0004 25.6254 51.0004 25.5472 51.0003 25.469C51.0002 25.2535 51.0004 25.038 51.0007 24.8226C51.0009 24.5904 51.0008 24.3583 51.0008 24.1262C51.0007 23.7238 51.0009 23.3214 51.0012 22.919C51.0016 22.3372 51.0017 21.7554 51.0018 21.1736C51.0019 20.2298 51.0022 19.2859 51.0027 18.3421C51.0032 17.4251 51.0035 16.5081 51.0037 15.591C51.0037 15.5345 51.0037 15.478 51.0038 15.4198C51.0038 15.1364 51.0039 14.853 51.004 14.5696C51.0045 12.2172 51.0054 9.86485 51.0065 7.51249Z" fill="#FCFCFD"/>
<path d="M55.1575 10.501C55.2099 10.5009 55.2623 10.5008 55.3163 10.5007C55.4272 10.5007 55.5381 10.5009 55.6489 10.5013C55.8162 10.5018 55.9835 10.5013 56.1507 10.5006C57.2969 10.4998 58.3289 10.5786 59.2047 11.415C59.5935 11.8283 59.8637 12.3511 59.8889 12.9243C59.8909 12.9623 59.8929 13.0004 59.8949 13.0396C59.9165 13.8363 59.6802 14.4514 59.1356 15.0329C58.4752 15.6418 57.7395 15.8677 56.8466 15.8664C56.7785 15.8668 56.7105 15.8673 56.6425 15.8677C56.5013 15.8685 56.3601 15.8685 56.2189 15.8679C56.0387 15.8674 55.8587 15.8691 55.6785 15.8714C55.5386 15.8729 55.3987 15.873 55.2587 15.8726C55.1603 15.8727 55.0619 15.8741 54.9634 15.8755C54.6388 15.8721 54.4169 15.8591 54.1766 15.629C54.0105 15.3786 53.9992 15.1182 54.0008 14.8264C54.0006 14.7867 54.0004 14.747 54.0002 14.7061C53.9998 14.5755 54.0001 14.4449 54.0004 14.3144C54.0004 14.2232 54.0003 14.1321 54.0001 14.0409C54 13.8502 54.0002 13.6594 54.0007 13.4687C54.0012 13.2245 54.0009 12.9804 54.0003 12.7363C54 12.5482 54.0001 12.3601 54.0003 12.1719C54.0004 12.0819 54.0003 11.9919 54.0001 11.9019C53.9998 11.776 54.0002 11.6501 54.0008 11.5242C54.0006 11.4872 54.0004 11.4503 54.0002 11.4122C54.0024 11.1426 54.034 10.9187 54.2021 10.7026C54.4887 10.4797 54.8115 10.4996 55.1575 10.501Z" fill="#1E2C2B"/>
<path d="M39.8466 14C40.0099 14.0367 40.079 14.0721 40.1718 14.213C40.3858 14.6004 40.5699 14.9964 40.7365 15.4062C40.8013 15.5581 40.873 15.7043 40.9481 15.8514C41.0892 16.1276 41.2107 16.4097 41.331 16.6954C41.4115 16.8808 41.5013 17.0594 41.5935 17.2391C41.6606 17.3769 41.7189 17.5168 41.7767 17.6588C41.8607 17.8646 41.9517 18.0633 42.0529 18.2613C42.1938 18.5372 42.3155 18.8189 42.4348 19.1048C42.5004 19.2546 42.5735 19.3952 42.6523 19.5384C42.7534 19.7377 42.7882 19.9023 42.7923 20.1248C42.7382 20.2885 42.654 20.3362 42.5079 20.4264C42.34 20.4561 42.1742 20.4538 42.004 20.4524C41.9534 20.4527 41.9029 20.4531 41.8508 20.4535C41.6838 20.4543 41.5168 20.4538 41.3498 20.4531C41.2337 20.4532 41.1176 20.4534 41.0015 20.4537C40.7582 20.454 40.5149 20.4535 40.2716 20.4526C39.9597 20.4514 39.6478 20.4521 39.3359 20.4533C39.0962 20.454 38.8564 20.4538 38.6166 20.4533C38.5016 20.4531 38.3866 20.4533 38.2716 20.4538C38.1109 20.4543 37.9502 20.4535 37.7895 20.4524C37.742 20.4528 37.6945 20.4532 37.6455 20.4536C37.4321 20.4509 37.316 20.4451 37.1308 20.3311C37.0206 20.2103 36.9992 20.1614 37 19.9997C37.0139 19.7217 37.1216 19.5163 37.2533 19.2752C37.3332 19.1259 37.3984 18.9769 37.4614 18.8198C37.54 18.627 37.6238 18.4404 37.7187 18.255C37.8746 17.9496 38.0163 17.6383 38.1581 17.3262C38.3354 16.9361 38.5179 16.5503 38.7128 16.1688C38.8229 15.9516 38.9167 15.732 39.0031 15.5046C39.0538 15.3793 39.1225 15.2694 39.1938 15.1547C39.2302 15.0701 39.2665 14.9854 39.3024 14.9005C39.3703 14.7434 39.4446 14.5897 39.5202 14.4362C39.535 14.4051 39.5498 14.374 39.5651 14.3419C39.6455 14.1789 39.6918 14.1032 39.8466 14Z" fill="#202E2D"/>
<path d="M3.72111 0C3.93969 0.0765524 4.12366 0.191107 4.31427 0.320065C4.34692 0.342005 4.37956 0.363945 4.4132 0.386549C4.762 0.623435 5.09857 0.876028 5.4334 1.13212C5.52427 1.20147 5.61553 1.27026 5.70693 1.3389C6.00338 1.56261 6.28632 1.7956 6.55979 2.04728C6.73621 2.20608 6.92074 2.35421 7.10509 2.50365C7.37982 2.72817 7.63838 2.96207 7.88891 3.2132C7.93955 3.26362 7.99021 3.31401 8.0409 3.36437C8.19047 3.51302 8.33989 3.66183 8.48925 3.81069C8.55328 3.87446 8.61736 3.93818 8.68148 4.00185C9.31665 4.63274 9.31665 4.63274 9.57448 4.93629C9.69315 5.07542 9.81944 5.20738 9.94456 5.34069C10.1574 5.56942 10.359 5.80294 10.5513 6.04946C10.6618 6.18944 10.7769 6.32498 10.8924 6.46092C11.1573 6.77749 11.4004 7.10795 11.6416 7.44279C11.7333 7.5699 11.8261 7.69627 11.9186 7.82277C12.1835 8.18762 12.4412 8.55666 12.6895 8.93299C12.7524 9.02628 12.818 9.11641 12.8852 9.20658C13.0194 9.39187 13.1243 9.59086 13.2305 9.79317C13.2932 9.90672 13.3581 10.0154 13.4274 10.1248C14.0472 11.1071 14.5841 12.1445 15.0564 13.2044C15.1552 13.4253 15.261 13.6414 15.3709 13.8569C15.4924 13.6696 15.5675 13.4881 15.6376 13.2764C15.7364 12.993 15.8516 12.7306 15.9901 12.4647C16.0718 12.3046 16.1478 12.1429 16.2229 11.9798C16.3702 11.6605 16.5208 11.3513 16.7104 11.0542C16.7913 10.9212 16.8582 10.7832 16.9275 10.6437C17.1469 10.2319 17.3752 9.83077 17.6501 9.4531C17.7331 9.33537 17.806 9.21489 17.8784 9.09047C18.0188 8.85149 18.1782 8.6303 18.3429 8.40759C18.4728 8.23124 18.5926 8.04912 18.7101 7.86434C18.7371 7.82266 18.764 7.78099 18.7917 7.73804C18.8167 7.69882 18.8417 7.6596 18.8674 7.6192C18.8901 7.59007 18.9127 7.56095 18.9361 7.53094C18.9692 7.53094 19.0024 7.53094 19.0365 7.53094C19.056 7.48891 19.056 7.48891 19.0759 7.44602C19.2856 7.04759 19.5967 6.70227 19.8893 6.36244C20.0598 6.16407 20.2203 5.96014 20.3752 5.74921C20.4085 5.71164 20.4085 5.71164 20.4425 5.67331C20.4757 5.67331 20.5088 5.67331 20.543 5.67331C20.5567 5.64341 20.5705 5.61351 20.5847 5.5827C20.6413 5.47647 20.6975 5.40291 20.7795 5.31559C20.8082 5.28494 20.8369 5.25428 20.8665 5.2227C20.8985 5.18915 20.9305 5.15561 20.9635 5.12104C20.9974 5.08523 21.0314 5.04941 21.0664 5.01251C21.4305 4.63132 21.8026 4.2579 22.1749 3.88471C22.2054 3.85408 22.2359 3.82345 22.2673 3.7919C22.8574 3.19992 22.8574 3.19992 23.1725 2.93165C23.2912 2.83049 23.4042 2.72341 23.5182 2.617C23.7586 2.39701 24.008 2.20357 24.2726 2.01355C24.4117 1.91086 24.4117 1.91086 24.5301 1.78644C24.6835 1.63403 24.8477 1.50868 25.0215 1.38067C25.0562 1.3549 25.0909 1.32912 25.1266 1.30257C25.2388 1.21949 25.3513 1.13684 25.464 1.05433C25.5022 1.02628 25.5405 0.998221 25.5799 0.969315C26.905 0 26.905 0 27.0708 0C27.2284 0.271648 27.377 0.547167 27.5228 0.825266C27.5548 0.886085 27.5548 0.886085 27.5875 0.948134C27.65 1.06703 27.712 1.18612 27.7738 1.30536C27.8019 1.35953 27.8019 1.35953 27.8306 1.41479C27.9493 1.6473 28.0405 1.8806 28.124 2.12808C28.172 2.26109 28.172 2.26109 28.2487 2.38009C28.3396 2.53287 28.3971 2.68526 28.458 2.85234C28.4841 2.92335 28.5102 2.99434 28.5363 3.06533C28.5506 3.1044 28.5649 3.14348 28.5796 3.18374C28.6331 3.32889 28.6876 3.47365 28.7422 3.61838C28.7622 3.67121 28.7821 3.72403 28.8026 3.77845C28.842 3.88268 28.8813 3.98689 28.9207 4.09109C29.1127 4.60123 29.2762 5.1162 29.4309 5.63879C29.4567 5.72514 29.4567 5.72514 29.4831 5.81324C29.5927 6.18288 29.6911 6.55391 29.7824 6.92847C29.8001 6.99786 29.8178 7.06722 29.8358 7.13655C29.9401 7.54468 30.0323 7.95297 30.1111 8.36692C30.138 8.50594 30.1659 8.64473 30.1937 8.78355C30.3218 9.42664 30.4408 10.0685 30.5154 10.7201C30.53 10.8463 30.5453 10.9722 30.5614 11.0982C30.8748 13.5923 30.8561 16.1847 30.5356 18.6767C30.5313 18.7113 30.5269 18.7458 30.5224 18.7814C30.4694 19.2001 30.4073 19.6166 30.3348 20.0323C30.3268 20.0788 30.3187 20.1254 30.3105 20.1733C30.1946 20.8356 30.0444 21.4885 29.8828 22.141C29.8683 22.2006 29.8537 22.2602 29.8387 22.3216C29.7081 22.8514 29.5596 23.3736 29.3948 23.8937C29.3475 24.0433 29.3024 24.1935 29.2579 24.344C29.1821 24.5974 29.098 24.8473 29.0104 25.0969C28.9951 25.1405 28.9799 25.1841 28.9641 25.229C28.8615 25.5194 28.7494 25.803 28.6273 26.0857C28.5636 26.241 28.5201 26.3971 28.4768 26.5591C28.3893 26.6466 28.2757 26.6153 28.1591 26.6156C28.1207 26.6154 28.0824 26.6152 28.0429 26.615C27.9827 26.615 27.9827 26.615 27.9212 26.6151C27.7878 26.615 27.6544 26.6146 27.521 26.6142C27.4288 26.6141 27.3365 26.6141 27.2443 26.614C27.001 26.6138 26.7577 26.6133 26.5144 26.6128C26.2664 26.6123 26.0183 26.612 25.7703 26.6118C25.2832 26.6112 24.7961 26.6104 24.309 26.6093C24.3481 26.4434 24.4043 26.2997 24.4762 26.1447C24.4998 26.0935 24.5234 26.0423 24.5478 25.9895C24.5725 25.9362 24.5973 25.8829 24.6229 25.828C24.6713 25.7233 24.7197 25.6187 24.768 25.514C24.8388 25.361 24.9096 25.2079 24.9807 25.0551C25.1013 24.7937 25.2104 24.5344 25.3039 24.2622C25.3291 24.1893 25.3543 24.1164 25.3794 24.0435C25.3928 24.0046 25.4061 23.9657 25.4199 23.9256C25.4689 23.7836 25.5188 23.6419 25.5689 23.5003C25.6051 23.3976 25.6412 23.2949 25.6774 23.1922C25.6945 23.1438 25.7117 23.0954 25.7293 23.0456C25.811 22.8123 25.885 22.5813 25.9416 22.3407C25.9686 22.2311 26.0003 22.1237 26.033 22.0157C26.2264 21.3728 26.3674 20.7272 26.4918 20.0679C26.5159 19.945 26.5426 19.8232 26.5708 19.7013C26.6261 19.4578 26.6622 19.2125 26.6974 18.9654C26.7099 18.8783 26.7225 18.7913 26.7352 18.7042C26.7406 18.6663 26.746 18.6284 26.7516 18.5894C26.7636 18.5138 26.7775 18.4385 26.7934 18.3637C26.9983 17.2828 26.9953 16.1475 26.99 15.0513C26.9892 14.8691 26.9897 14.687 26.9906 14.5048C26.9954 13.2864 26.9563 12.0511 26.7031 10.8553C26.6702 10.6993 26.6467 10.5444 26.6252 10.3864C26.5663 9.9875 26.4706 9.59679 26.3788 9.20442C26.339 9.03398 26.303 8.86351 26.2703 8.69157C26.2109 8.38925 26.1281 8.09407 26.0446 7.79766C26.0295 7.74301 26.0145 7.68835 25.999 7.63204C25.9079 7.30462 25.9079 7.30462 25.7857 6.98809C25.6841 6.75791 25.6269 6.51909 25.5626 6.27637C25.5257 6.12134 25.5257 6.12134 25.4138 6.02475C24.9594 6.35788 24.5198 6.69336 24.1082 7.07909C24.0582 7.12411 24.0081 7.16901 23.9579 7.21382C23.6803 7.46276 23.4191 7.71624 23.1804 8.00378C23.1551 8.02999 23.1299 8.05621 23.1039 8.08321C23.0707 8.08321 23.0376 8.08321 23.0035 8.08321C22.9917 8.11111 22.9799 8.139 22.9678 8.16774C22.8869 8.31299 22.7854 8.41778 22.6708 8.53821C22.4508 8.77473 22.2616 9.01997 22.0792 9.28718C22.0528 9.32064 22.0264 9.3541 21.9992 9.38857C21.966 9.38857 21.9329 9.38857 21.8987 9.38857C21.8801 9.44236 21.8801 9.44236 21.8611 9.49722C21.7911 9.65599 21.7045 9.77299 21.5975 9.90946C21.1511 10.4908 20.7669 11.1084 20.4025 11.7436C20.3447 11.8441 20.2863 11.9442 20.2277 12.0442C19.9387 12.5428 19.6915 13.0581 19.4481 13.5802C19.3857 13.7111 19.3208 13.8404 19.2552 13.9697C19.1646 14.1498 19.0843 14.3296 19.0145 14.519C18.9235 14.762 18.8294 15.0033 18.7321 15.2439C18.5499 15.6966 18.3827 16.1537 18.2331 16.6183C18.2176 16.6655 18.2021 16.7128 18.1862 16.7614C18.0748 17.1107 17.9847 17.4614 17.9033 17.8185C17.8594 18.0097 17.8121 18.1977 17.7529 18.3849C17.668 18.6578 17.6111 18.935 17.5539 19.2148C17.5261 19.3487 17.4972 19.4823 17.4683 19.6159C17.446 19.7202 17.4237 19.8245 17.4014 19.9288C17.3909 19.9771 17.3803 20.0255 17.3695 20.0754C17.2845 20.4771 17.2295 20.8802 17.1786 21.2875C17.1657 21.3873 17.1527 21.4871 17.1397 21.587C17.1223 21.7204 17.1051 21.8538 17.0879 21.9872C17.0749 22.0888 17.0617 22.1904 17.0486 22.2921C17.0249 22.476 17.0012 22.6599 16.9777 22.8439C16.969 22.9088 16.9603 22.9737 16.9514 23.0406C16.9256 23.248 16.9126 23.455 16.9024 23.6636C16.9004 23.7028 16.8984 23.7419 16.8963 23.7822C16.8898 23.9087 16.8835 24.0353 16.8773 24.1618C16.8729 24.2492 16.8685 24.3366 16.8641 24.424C16.8278 25.1523 16.8005 25.8805 16.7769 26.6093C15.8655 26.6093 14.9541 26.6093 14.0151 26.6093C14.0089 26.3877 14.0026 26.1661 13.9962 25.9378C13.9412 24.1629 13.9412 24.1629 13.731 22.4014C13.704 22.2293 13.684 22.0567 13.6636 21.8837C13.4695 20.3094 13.1458 18.731 12.6593 17.2208C12.6406 17.1625 12.622 17.1043 12.6028 17.0443C12.3051 16.1175 11.9824 15.2067 11.6048 14.3088C11.589 14.2706 11.5733 14.2325 11.557 14.1932C11.3422 13.6733 11.0894 13.1772 10.822 12.6826C10.7461 12.5423 10.6709 12.4018 10.5956 12.2613C10.5429 12.1635 10.4901 12.0657 10.4373 11.9679C10.4009 11.9001 10.4009 11.9001 10.3638 11.831C10.2062 11.5411 10.0344 11.2668 9.84727 10.9952C9.81806 10.9521 9.78884 10.909 9.75874 10.8646C9.32924 10.2323 8.88752 9.61862 8.39105 9.03713C8.3572 8.99733 8.32335 8.95753 8.28847 8.91652C8.20653 8.82185 8.12329 8.72855 8.03955 8.63548C8.00764 8.59898 7.97573 8.56248 7.94285 8.52487C7.51748 8.04281 7.06584 7.57212 6.57431 7.15675C6.5112 7.10313 6.44927 7.04811 6.38836 6.99201C6.13123 6.75545 5.85952 6.54123 5.58218 6.32913C5.54409 6.3 5.506 6.27087 5.46676 6.24085C5.27977 6.0952 5.27977 6.0952 5.0769 5.97455C5.07276 6.01286 5.06861 6.05117 5.06435 6.09065C5.03297 6.2449 4.9936 6.3741 4.93881 6.52054C4.706 7.14819 4.53098 7.7862 4.36762 8.43466C4.35908 8.46828 4.35054 8.5019 4.34175 8.53654C4.21559 9.03504 4.11128 9.53482 4.0224 10.0413C4.0085 10.1198 4.0085 10.1198 3.99432 10.1999C3.50132 13.0757 3.51021 16.1057 4.0224 18.978C4.02995 19.0208 4.03751 19.0635 4.0453 19.1076C4.09815 19.4006 4.15886 19.6915 4.22325 19.9821C4.23615 20.0403 4.24905 20.0986 4.26234 20.1586C4.48022 21.139 4.48022 21.139 4.76345 22.1019C4.82493 22.2889 4.8804 22.4767 4.93517 22.6657C5.05459 23.0759 5.18858 23.4706 5.35288 23.8652C5.4342 24.0629 5.50853 24.2624 5.58218 24.463C5.6839 24.738 5.79502 25.006 5.91976 25.2714C5.98638 25.4166 6.0464 25.5638 6.1063 25.7119C6.20038 25.9415 6.30835 26.1541 6.43681 26.3663C6.4829 26.4587 6.4829 26.4587 6.4829 26.6093C5.10753 26.6093 3.73216 26.6093 2.3151 26.6093C2.24882 26.4436 2.18254 26.278 2.11425 26.1073C2.08706 26.0398 2.05987 25.9724 2.03186 25.9029C1.78203 25.2768 1.56814 24.64 1.36103 23.9986C1.34382 23.9454 1.34382 23.9454 1.32626 23.8912C1.12788 23.2742 0.983837 22.6431 0.834808 22.0128C0.817464 21.9396 0.80004 21.8664 0.782534 21.7933C0.299939 19.776 0.0251463 17.6887 0.00523943 15.6142C0.00486116 15.5772 0.0044829 15.5403 0.00409317 15.5022C-0.00160517 14.9238 -0.00116973 14.3456 0.00425561 13.7672C0.00515987 13.6651 0.00576572 13.563 0.00634277 13.4608C0.018259 11.9853 0.204549 10.4954 0.486126 9.04772C0.505686 8.94559 0.523395 8.8431 0.540926 8.7406C0.697364 7.83815 0.911948 6.93428 1.19862 6.06417C1.25774 5.88291 1.3117 5.70087 1.36482 5.5178C1.83191 3.91626 2.4661 2.31524 3.2667 0.851325C3.38533 0.630174 3.4944 0.404098 3.60499 0.17886C3.67089 0.0502063 3.67089 0.0502063 3.72111 0Z" fill="#FCFCFD"/>
<path d="M5.88035 8.68567C6.05704 8.75633 6.1006 8.81945 6.18164 8.98691C6.23135 9.00347 6.28106 9.02004 6.33228 9.03711C6.61797 9.30645 6.85001 9.64598 7.0908 9.95553C7.18513 10.0768 7.2804 10.1972 7.37678 10.3168C7.68663 10.7027 7.96815 11.1008 8.23754 11.5159C8.30786 11.6241 8.37916 11.7318 8.45071 11.8393C8.47368 11.8739 8.49666 11.9085 8.52034 11.9442C8.60072 12.0624 8.68427 12.1781 8.76768 12.2942C8.91712 12.5068 9.04331 12.7251 9.16469 12.9546C9.23753 13.0904 9.3135 13.224 9.39096 13.3572C9.5924 13.704 9.77616 14.0571 9.95243 14.4174C9.99981 14.5134 10.0482 14.6088 10.0968 14.7041C10.4327 15.3641 10.7279 16.0341 10.9822 16.7297C11.0438 16.898 11.1107 17.0639 11.178 17.2302C11.3092 17.5677 11.4056 17.9139 11.5016 18.2628C11.5598 18.4735 11.6217 18.6752 11.7052 18.8775C11.8169 19.2699 11.9017 19.6706 11.9832 20.0702C11.9998 20.1505 12.0169 20.2308 12.0344 20.3109C12.1193 20.7017 12.1919 21.0939 12.2576 21.4883C12.2678 21.5492 12.278 21.61 12.2885 21.6728C12.5751 23.4967 12.4773 25.3716 12.4584 27.2118C11.95 27.3554 11.4418 27.4944 10.9269 27.6134C10.5044 27.7123 10.0855 27.8182 9.67056 27.9456C9.34222 28.0425 9.34222 28.0425 9.19451 27.9649C8.75651 27.5084 8.45513 26.901 8.14 26.3583C8.11874 26.322 8.09748 26.2857 8.07557 26.2483C7.80241 25.781 7.55958 25.3043 7.3362 24.8113C7.2855 24.6996 7.23406 24.5882 7.18259 24.4767C6.95276 23.9747 6.75693 23.4682 6.58336 22.9443C6.56809 22.899 6.55282 22.8538 6.53709 22.8073C6.0276 21.295 5.62518 19.7207 5.4463 18.1324C5.43397 18.023 5.42103 17.9137 5.40761 17.8045C5.12832 15.4783 5.10624 12.9324 5.54474 10.6257C5.57831 10.4469 5.60483 10.2685 5.62928 10.0883C5.66685 9.81844 5.71069 9.55017 5.75796 9.28187C5.76433 9.24556 5.77071 9.20925 5.77728 9.17183C5.8065 9.00827 5.83672 8.84606 5.88035 8.68567Z" fill="#FBFBFC"/>
<path d="M24.761 8.68567C25.096 9.02063 25.0965 9.93223 25.1627 10.3927C25.1708 10.4477 25.1789 10.5027 25.1873 10.5594C25.651 13.7436 25.6039 17.037 24.9116 20.1829C24.9031 20.2221 24.8946 20.2613 24.8858 20.3017C24.7049 21.1244 24.4951 21.9509 24.2086 22.7434C24.1959 22.7789 24.1831 22.8144 24.17 22.851C23.9942 23.3393 23.812 23.8233 23.6061 24.2998C23.581 24.3598 23.556 24.4197 23.5302 24.4814C23.0455 25.6295 22.4239 26.7468 21.6828 27.7484C21.6186 27.8357 21.5572 27.9249 21.4971 28.0151C21.1869 27.9784 20.8895 27.9066 20.5869 27.83C20.5343 27.8167 20.4817 27.8035 20.4274 27.7899C20.0291 27.6888 19.6336 27.5795 19.2394 27.4631C19.003 27.3937 18.7672 27.3336 18.5258 27.284C18.434 27.262 18.434 27.262 18.3335 27.2118C18.3276 26.6399 18.3232 26.068 18.3205 25.4961C18.3192 25.2303 18.3175 24.9646 18.3146 24.6988C18.297 23.038 18.4007 21.4728 18.8058 19.8557C18.8357 19.7311 18.8614 19.6062 18.8861 19.4804C19.261 17.6114 20.0689 15.8113 20.9133 14.1142C20.9288 14.0829 20.9444 14.0517 20.9604 14.0194C21.1074 13.7264 21.2712 13.4442 21.4406 13.1634C21.5178 13.0353 21.595 12.9072 21.6714 12.7787C22.2409 11.8221 22.8852 10.9285 23.5558 10.0412C23.5914 9.99406 23.627 9.94688 23.6637 9.89827C23.8179 9.69668 23.9765 9.51591 24.1584 9.33835C24.2751 9.21036 24.3904 9.0813 24.5056 8.952C24.5885 8.86038 24.6725 8.77187 24.761 8.68567Z" fill="#FBFBFC"/>
<path d="M8.24041 15.4635C8.44763 15.5459 8.591 15.6943 8.74569 15.8495C8.77428 15.8781 8.80286 15.9068 8.83232 15.9363C9.59961 16.7252 10.1224 17.7093 10.6064 18.6873C10.6611 18.7979 10.7167 18.9079 10.7735 19.0176C10.9146 19.29 11.0265 19.5672 11.1338 19.8546C11.2086 20.0465 11.2913 20.2336 11.3757 20.4214C11.5472 20.8056 11.6877 21.1976 11.8235 21.5956C11.8668 21.7207 11.913 21.8445 11.9594 21.9684C12.0894 22.3225 12.1974 22.684 12.3078 23.0447C12.3409 22.9784 12.3741 22.9121 12.4082 22.8438C12.4662 23.3239 12.4649 23.8021 12.4633 24.2847C12.4632 24.3695 12.4632 24.4542 12.4631 24.539C12.4629 24.7603 12.4624 24.9815 12.4619 25.2028C12.4614 25.4293 12.4611 25.6559 12.4609 25.8824C12.4603 26.3255 12.4595 26.7686 12.4584 27.2118C11.9373 27.3588 11.4162 27.5014 10.8892 27.626C10.8359 27.6388 10.7827 27.6516 10.7278 27.6648C10.4854 27.7226 10.2448 27.7785 9.99792 27.8142C9.27437 26.6316 8.65754 25.3822 8.2723 24.0477C8.24033 23.9435 8.24033 23.9435 8.19017 23.8266C8.10282 23.6016 8.0645 23.3656 8.01758 23.1294C8.0011 23.0468 8.0011 23.0468 7.98429 22.9625C7.87371 22.3909 7.79918 21.816 7.73826 21.2372C7.7341 21.201 7.72994 21.1648 7.72565 21.1274C7.69182 20.8186 7.67933 20.5136 7.67785 20.2031C7.67733 20.129 7.67733 20.129 7.6768 20.0533C7.67593 19.8946 7.67561 19.736 7.6755 19.5773C7.67543 19.5232 7.67536 19.4692 7.67529 19.4135C7.67551 18.6212 7.70175 17.8521 7.83869 17.0701C7.85035 16.9953 7.86193 16.9204 7.87341 16.8455C7.95044 16.3704 8.08726 15.9186 8.24041 15.4635Z" fill="#CDD7E4"/>
<path d="M22.4009 15.4635C22.5013 15.5137 22.5013 15.5137 22.537 15.6002C22.5763 15.7385 22.6145 15.877 22.652 16.0158C22.6676 16.0688 22.6832 16.1219 22.6993 16.1766C23.2829 18.2912 23.2032 20.762 22.7524 22.894C22.7442 22.9335 22.7361 22.9729 22.7277 23.0135C22.6206 23.5229 22.4722 24.0095 22.3005 24.5006C22.2774 24.5738 22.2543 24.647 22.2314 24.7203C22.0113 25.3756 21.7126 25.996 21.3966 26.6093C21.3714 26.6604 21.3463 26.7114 21.3203 26.764C21.136 27.1272 20.926 27.4797 20.6936 27.8142C20.3703 27.7678 20.0639 27.7129 19.7562 27.6026C19.5209 27.5234 19.2778 27.4707 19.0365 27.4126C18.9256 27.3855 18.8147 27.3584 18.7039 27.331C18.6545 27.319 18.6052 27.3069 18.5544 27.2945C18.434 27.262 18.434 27.262 18.3335 27.2118C18.3277 26.729 18.3232 26.2463 18.3205 25.7635C18.3192 25.5392 18.3175 25.315 18.3146 25.0907C18.3118 24.8736 18.3104 24.6565 18.3097 24.4393C18.3093 24.3572 18.3084 24.2751 18.307 24.193C18.2975 23.5992 18.3911 23.1033 18.5846 22.5426C18.6156 22.4456 18.6465 22.3486 18.6772 22.2515C18.7047 22.1686 18.7324 22.0857 18.7604 22.0029C18.7752 21.9586 18.7901 21.9142 18.8054 21.8686C18.9636 21.4011 19.1358 20.9418 19.3398 20.4922C19.4506 20.2431 19.5497 19.989 19.6432 19.733C19.8108 19.2792 20.0184 18.8539 20.2417 18.4257C20.259 18.3923 20.2763 18.359 20.2942 18.3247C20.5605 17.8139 20.826 17.306 21.1858 16.8538C21.2558 16.7637 21.2558 16.7637 21.2962 16.6182C21.3293 16.6182 21.3625 16.6182 21.3966 16.6182C21.4158 16.5759 21.4158 16.5759 21.4355 16.5327C21.6343 16.1605 22.0167 15.6556 22.4009 15.4635Z" fill="#CDD7E4"/>
<path d="M76.4598 7.40111C76.5094 7.416 76.559 7.43088 76.6101 7.44622C77.7783 7.81656 78.8258 8.40411 79.8242 9.10812C79.8774 9.14467 79.8774 9.14467 79.9316 9.18196C80.0329 9.25213 80.1327 9.32406 80.2322 9.39681C80.2622 9.41746 80.2923 9.4381 80.3233 9.45937C80.4871 9.58374 80.5259 9.65336 80.5627 9.85789C80.5442 10.0907 80.4178 10.2237 80.2542 10.379C80.1984 10.4353 80.1429 10.4917 80.0874 10.5482C80.0598 10.576 80.0321 10.6039 80.0036 10.6325C79.8888 10.752 79.7861 10.88 79.683 11.0097C79.5332 11.1961 79.3785 11.3674 79.2065 11.5333C79.0786 11.661 78.9617 11.7977 78.844 11.9348C78.6837 12.1188 78.6837 12.1188 78.5247 12.1374C78.3404 12.1175 78.2969 12.0821 78.1703 11.9511C76.9242 10.7719 75.1881 10.2567 73.5074 10.2966C73.1552 10.3112 72.8306 10.3585 72.4929 10.4637C72.4507 10.4757 72.4085 10.4878 72.365 10.5002C72.0386 10.5998 71.7305 10.7298 71.4698 10.9532C71.338 11.0662 71.338 11.0662 71.2375 11.0662C71.2251 11.0941 71.2127 11.1221 71.1999 11.1509C71.1371 11.267 71.1371 11.267 71.0398 11.3831C70.6777 11.8548 70.6439 12.4519 70.6852 13.0242C70.7794 13.5904 71.1776 13.9424 71.6214 14.2674C72.0389 14.5517 72.4761 14.7764 72.9354 14.9854C72.9899 15.0107 73.0445 15.0359 73.1007 15.062C73.4785 15.2353 73.8615 15.3879 74.2504 15.5345C74.5861 15.6659 74.9203 15.8013 75.2547 15.9362C75.2944 15.9521 75.3341 15.9681 75.3751 15.9845C75.7565 16.1381 76.1324 16.293 76.4975 16.483C76.6158 16.5413 76.7352 16.589 76.8584 16.6359C77.3454 16.8263 77.7899 17.108 78.2302 17.3871C78.2893 17.4244 78.3486 17.4614 78.408 17.498C78.9375 17.8251 79.3855 18.2066 79.8242 18.6473C79.849 18.672 79.8738 18.6967 79.8994 18.7221C80.8397 19.6676 81.3008 20.9491 81.3087 22.2684C81.294 23.5966 80.8571 24.6759 79.9748 25.6762C79.9351 25.7222 79.9351 25.7222 79.8946 25.7692C78.7599 26.9936 76.9739 27.5877 75.3551 27.7347C75.3224 27.7389 75.2897 27.7432 75.256 27.7475C74.2156 27.8811 73.0352 27.8551 72.02 27.5697C71.8945 27.535 71.7704 27.5098 71.6424 27.4868C69.8779 27.1395 68.334 26.1159 67.1199 24.8227C66.9913 24.6298 66.9814 24.5492 67.0195 24.3206C67.0963 24.2362 67.0963 24.2362 67.1972 24.1524C67.2338 24.1218 67.2703 24.0913 67.308 24.0599C67.4775 23.9241 67.6492 23.7919 67.8229 23.6617C68.1638 23.404 68.4975 23.139 68.8271 22.8672C69.1269 22.6207 69.1269 22.6207 69.3409 22.5915C69.5986 22.6216 69.6813 22.73 69.8472 22.918C69.9045 22.9786 69.962 23.0391 70.0198 23.0992C70.0477 23.1283 70.0756 23.1574 70.1044 23.1874C70.5875 23.6722 71.299 23.9662 71.9374 24.1857C71.9866 24.203 71.9866 24.203 72.0368 24.2207C72.7321 24.4468 73.4387 24.4971 74.1647 24.4936C74.3005 24.4932 74.4362 24.4947 74.5721 24.4963C75.5865 24.5003 76.7101 24.2951 77.471 23.565C77.8224 23.1739 78.0122 22.7403 78.0353 22.2088C77.9722 21.5458 77.6964 21.0231 77.1817 20.5971C77.1423 20.5667 77.1029 20.5363 77.0624 20.505C77.023 20.4745 76.9837 20.4441 76.9431 20.4128C76.6327 20.185 76.3039 20.0184 75.9577 19.8523C75.8959 19.8211 75.8342 19.7898 75.7725 19.7583C75.1035 19.4172 74.4265 19.0969 73.7135 18.8583C73.5024 18.7816 73.3001 18.6897 73.0955 18.5971C72.984 18.5476 72.8725 18.4982 72.761 18.4488C70.8731 17.6095 69.026 16.7154 67.9234 14.8818C67.8979 14.8432 67.8725 14.8046 67.8463 14.7648C67.7538 14.5963 67.6987 14.4218 67.6441 14.2386C67.6336 14.2048 67.6231 14.1709 67.6124 14.1361C67.5913 14.0672 67.5709 13.9981 67.551 13.9288C67.524 13.8355 67.4947 13.7429 67.4652 13.6504C67.3851 13.3198 67.3992 12.9734 67.3993 12.6351C67.3992 12.5983 67.3991 12.5616 67.399 12.5237C67.3996 11.9076 67.4676 11.3497 67.6723 10.7649C67.6879 10.7163 67.7035 10.6677 67.7196 10.6176C67.8958 10.1239 68.2086 9.53523 68.5762 9.15833C68.6093 9.15833 68.6424 9.15833 68.6766 9.15833C68.6933 9.11668 68.6933 9.11668 68.7103 9.0742C68.9946 8.57681 69.6034 8.23934 70.0826 7.95338C70.1205 7.92924 70.1585 7.9051 70.1975 7.88023C71.9854 6.7932 74.5206 6.8118 76.4598 7.40111Z" fill="#FCFCFD"/>
<path d="M83.4629 8.00192C83.5215 8.00129 83.5802 8.00065 83.6406 8C83.704 8.00041 83.7674 8.00081 83.8327 8.00123C83.8978 8.00104 83.9628 8.00085 84.0299 8.00065C84.1676 8.00035 84.3053 8.00078 84.4431 8.00172C84.6194 8.00287 84.7957 8.00221 84.9721 8.001C85.1405 8.0001 85.3088 8.00074 85.4772 8.00123C85.5405 8.00083 85.6038 8.00042 85.669 8C85.7278 8.00063 85.7867 8.00127 85.8473 8.00192C85.899 8.00208 85.9507 8.00224 86.004 8.0024C86.1856 8.03656 86.2319 8.07841 86.3405 8.22873C86.3706 8.39157 86.367 8.55273 86.3652 8.71792C86.3654 8.76813 86.3657 8.81834 86.3659 8.87007C86.3665 9.03885 86.3656 9.20758 86.3647 9.37635C86.3648 9.49717 86.365 9.61799 86.3653 9.73881C86.3657 9.99937 86.3656 10.2599 86.3649 10.5205C86.3639 10.8981 86.3642 11.2758 86.3649 11.6534C86.366 12.2674 86.3663 12.8813 86.3661 13.4953C86.366 13.532 86.366 13.5688 86.366 13.6066C86.3659 13.9044 86.3657 14.2022 86.3655 14.5C86.3654 14.7594 86.3652 15.0187 86.3651 15.2781C86.3651 15.3146 86.3651 15.3511 86.3651 15.3887C86.3648 15.9996 86.3654 16.6104 86.3665 17.2213C86.367 17.5638 86.3672 17.9064 86.3663 18.249C86.3655 18.5718 86.3656 18.8945 86.3663 19.2173C86.3664 19.3353 86.3662 19.4532 86.3656 19.5711C86.3615 20.4019 86.4025 21.1832 86.7924 21.935C86.8061 21.9664 86.8197 21.9977 86.8338 22.03C87.2648 22.9893 88.1474 23.6745 89.1086 24.0468C90.3243 24.4641 91.6777 24.4218 92.8495 23.8807C93.7194 23.4288 94.3282 22.8256 94.7859 21.9539C94.8021 21.9243 94.8182 21.8946 94.8348 21.8641C95.2146 21.1099 95.2069 20.3173 95.2033 19.4945C95.2034 19.3715 95.2037 19.2486 95.2041 19.1256C95.2047 18.8624 95.2047 18.5993 95.2042 18.3361C95.2034 17.9554 95.2039 17.5747 95.2047 17.194C95.2061 16.5758 95.2066 15.9576 95.2066 15.3394C95.2066 15.3025 95.2066 15.2656 95.2066 15.2276C95.2065 15.0781 95.2065 14.9287 95.2065 14.7792C95.2065 14.3664 95.2065 13.9537 95.2067 13.5409C95.2067 13.4854 95.2067 13.4854 95.2067 13.4287C95.2069 12.8119 95.2077 12.1951 95.2089 11.5782C95.2096 11.1983 95.2098 10.8183 95.2092 10.4384C95.2088 10.1479 95.2091 9.8574 95.2097 9.56691C95.2099 9.44766 95.2097 9.32841 95.2093 9.20916C95.2088 9.04679 95.2092 8.88444 95.2098 8.72207C95.2094 8.67456 95.209 8.62706 95.2086 8.57811C95.2112 8.26145 95.2112 8.26145 95.2969 8.09908C95.4177 7.99452 95.5068 8.00241 95.665 8.00192C95.7236 8.00129 95.7823 8.00065 95.8427 8C95.9061 8.00041 95.9695 8.00081 96.0348 8.00123C96.0999 8.00104 96.165 8.00085 96.232 8.00065C96.3697 8.00035 96.5075 8.00078 96.6452 8.00172C96.8216 8.00287 96.9978 8.00221 97.1742 8.001C97.3426 8.0001 97.511 8.00074 97.6793 8.00123C97.7426 8.00083 97.8059 8.00042 97.8711 8C97.93 8.00063 97.9888 8.00127 98.0494 8.00192C98.127 8.00216 98.127 8.00216 98.2061 8.0024C98.3878 8.03656 98.4339 8.07839 98.5426 8.22873C98.573 8.39179 98.5697 8.55324 98.5681 8.7187C98.5686 8.79415 98.5686 8.79415 98.5691 8.87112C98.5699 9.04023 98.5692 9.20929 98.5686 9.3784C98.5689 9.49948 98.5692 9.62055 98.5697 9.74163C98.5705 10.037 98.5704 10.3323 98.5698 10.6276C98.5693 10.8683 98.5693 11.1089 98.5695 11.3496C98.5695 11.3839 98.5695 11.4182 98.5696 11.4535C98.5696 11.5232 98.5697 11.5929 98.5698 11.6625C98.5703 12.3168 98.5697 12.971 98.5686 13.6252C98.5677 14.184 98.5679 14.7427 98.5688 15.3015C98.5699 15.9517 98.5703 16.6019 98.5697 17.2522C98.5696 17.3219 98.5695 17.3917 98.5695 17.4614C98.5694 17.5129 98.5694 17.5129 98.5694 17.5654C98.5692 17.8046 98.5695 18.0438 98.57 18.283C98.5706 18.6073 98.5701 18.9316 98.569 19.256C98.5687 19.3739 98.5688 19.4919 98.5692 19.6099C98.5742 21.0338 98.4076 22.5349 97.689 23.7927C97.6653 23.8386 97.6417 23.8844 97.6174 23.9317C97.4375 24.2783 97.2233 24.5877 96.9859 24.8972C96.955 24.9385 96.9241 24.9798 96.8922 25.0223C96.2693 25.8312 95.5171 26.4207 94.6259 26.9055C94.5682 26.9401 94.5682 26.9401 94.5094 26.9755C94.0133 27.2725 93.4483 27.4447 92.8935 27.5958C92.8578 27.6058 92.8222 27.6157 92.7855 27.626C92.1249 27.7977 91.4478 27.8285 90.7688 27.8249C90.7315 27.8247 90.6942 27.8246 90.6559 27.8245C88.5782 27.8138 86.6492 27.0389 85.1599 25.5761C84.9676 25.3797 84.7991 25.1661 84.6332 24.9474C84.5841 24.8853 84.5841 24.8853 84.5339 24.8219C83.3089 23.2213 82.9921 21.2647 83.0011 19.295C83.0009 19.1735 83.0007 19.0519 83.0003 18.9303C82.9996 18.6051 83.0002 18.2799 83.001 17.9547C83.0017 17.6476 83.0014 17.3405 83.0012 17.0334C83.001 16.4261 83.0017 15.8187 83.0029 15.2114C83.0041 14.623 83.0045 14.0346 83.0039 13.4462C83.0034 12.8026 83.0033 12.1589 83.004 11.5153C83.0041 11.4467 83.0041 11.3782 83.0042 11.3096C83.0043 11.2759 83.0043 11.2422 83.0043 11.2075C83.0046 10.9703 83.0045 10.7331 83.0043 10.4958C83.004 10.1775 83.0045 9.85914 83.0056 9.54078C83.0059 9.42388 83.0059 9.30697 83.0057 9.19007C83.0054 9.03091 83.006 8.87179 83.0069 8.71264C83.0066 8.66609 83.0063 8.61955 83.0059 8.57159C83.009 8.26133 83.009 8.26133 83.0948 8.09967C83.2154 7.99432 83.3043 8.00241 83.4629 8.00192Z" fill="#FBFBFC"/>
<path d="M145.382 8.00525C145.425 8.0036 145.468 8.00195 145.512 8.00025C145.724 7.99844 145.835 8.00306 146.011 8.1294C146.138 8.30397 146.239 8.48073 146.336 8.67362C146.375 8.74999 146.415 8.82634 146.454 8.90269C146.474 8.941 146.493 8.97932 146.513 9.01879C146.601 9.18925 146.691 9.35821 146.782 9.52713C146.807 9.57381 146.807 9.57381 146.832 9.62143C146.929 9.80311 147.027 9.98384 147.127 10.1641C147.236 10.3626 147.338 10.5635 147.438 10.7666C147.575 11.0444 147.722 11.3154 147.874 11.5856C148.03 11.8639 148.181 12.1434 148.323 12.4297C148.671 13.1371 149.035 13.8372 149.426 14.522C149.57 14.7757 149.702 15.0344 149.831 15.2961C150.11 15.8616 150.408 16.418 150.711 16.9708C150.971 17.449 151.225 17.9307 151.466 18.4187C151.572 18.6292 151.684 18.8366 151.796 19.0443C151.898 19.2351 151.997 19.4272 152.092 19.6217C152.229 19.8996 152.38 20.1684 152.534 20.4376C152.665 20.6678 152.787 20.9006 152.9 21.1401C152.948 21.2401 152.948 21.2401 153.049 21.3319C153.193 21.3738 153.193 21.3738 153.35 21.3319C153.416 21.2553 153.416 21.2553 153.471 21.1562C153.492 21.1196 153.514 21.0831 153.536 21.0455C153.558 21.0074 153.579 20.9694 153.601 20.9302C153.622 20.8951 153.642 20.86 153.663 20.8238C153.725 20.7154 153.786 20.6065 153.846 20.4972C153.868 20.4578 153.89 20.4185 153.912 20.3779C154.073 20.0872 154.223 19.7931 154.369 19.4952C154.461 19.3127 154.556 19.1329 154.653 18.9534C154.791 18.6974 154.923 18.4392 155.051 18.1783C155.217 17.8415 155.397 17.5137 155.581 17.1863C155.722 16.9349 155.855 16.681 155.981 16.4223C156.103 16.1784 156.231 15.938 156.358 15.6972C156.478 15.471 156.597 15.2444 156.715 15.0173C156.957 14.5491 157.202 14.0836 157.464 13.6257C157.615 13.3601 157.751 13.089 157.886 12.8149C158.024 12.5374 158.174 12.2659 158.322 11.9935C158.527 11.6135 158.729 11.2322 158.921 10.845C159.132 10.4202 159.353 10.0018 159.577 9.58361C159.612 9.5187 159.646 9.45379 159.681 9.38887C159.747 9.2652 159.813 9.14158 159.879 9.01801C159.95 8.8848 160.021 8.75141 160.091 8.61793C160.119 8.56576 160.119 8.56576 160.147 8.51254C160.183 8.44549 160.218 8.3784 160.254 8.31127C160.375 8.08307 160.375 8.08307 160.431 8.02722C160.586 8.01189 160.742 8.01324 160.898 8.01153C160.942 8.01007 160.985 8.00862 161.03 8.00712C161.22 8.00523 161.346 8.00414 161.511 8.10214C161.615 8.27775 161.639 8.45237 161.664 8.65166C161.673 8.71485 161.673 8.71485 161.682 8.77932C161.694 8.86862 161.707 8.95798 161.718 9.04738C161.741 9.21822 161.765 9.38877 161.79 9.55934C161.802 9.64572 161.815 9.73211 161.827 9.81851C161.908 10.3937 161.999 10.9676 162.088 11.5417C162.189 12.1946 162.29 12.8474 162.382 13.5017C162.462 14.0708 162.552 14.6387 162.64 15.2067C162.741 15.8596 162.842 16.5125 162.934 17.1667C163.007 17.6801 163.087 18.1923 163.166 18.7046C163.217 19.0318 163.267 19.3591 163.318 19.6864C163.361 19.9652 163.404 20.2441 163.447 20.5229C163.594 21.4711 163.594 21.4711 163.644 21.859C163.73 22.5246 163.84 23.1871 163.944 23.8499C163.966 23.9916 163.989 24.1332 164.011 24.2748C164.027 24.3753 164.043 24.4758 164.059 24.5764C164.119 24.9619 164.174 25.3476 164.224 25.7348C164.245 25.8878 164.272 26.038 164.303 26.1893C164.353 26.4565 164.39 26.7349 164.347 27.0052C164.262 27.1225 164.216 27.1527 164.071 27.1756C164.021 27.176 163.971 27.1765 163.92 27.1769C163.863 27.1777 163.807 27.1785 163.748 27.1793C163.687 27.1793 163.626 27.1793 163.563 27.1793C163.5 27.1797 163.437 27.1801 163.372 27.1805C163.239 27.181 163.106 27.1813 162.973 27.181C162.803 27.1807 162.633 27.1822 162.463 27.1842C162.3 27.1858 162.137 27.1856 161.975 27.1856C161.914 27.1864 161.853 27.1873 161.79 27.1881C161.367 27.1846 161.367 27.1846 161.196 27.0351C161.139 26.9151 161.099 26.8191 161.077 26.6883C161.07 26.645 161.062 26.6017 161.055 26.5571C161.02 26.3073 160.989 26.0571 160.961 25.8065C160.937 25.6102 160.897 25.4183 160.857 25.2247C160.818 25.0233 160.791 24.8205 160.763 24.6173C160.708 24.2158 160.646 23.8155 160.581 23.4154C160.512 22.9885 160.447 22.5612 160.388 22.1328C160.339 21.7898 160.285 21.4479 160.23 21.106C160.168 20.7225 160.108 20.339 160.054 19.9543C159.976 19.3982 159.891 18.8432 159.804 18.2884C159.777 18.1135 159.75 17.9386 159.724 17.7637C159.706 17.6498 159.689 17.5359 159.671 17.4221C159.663 17.369 159.655 17.3158 159.647 17.2611C159.639 17.2118 159.632 17.1626 159.624 17.1118C159.614 17.047 159.614 17.047 159.604 16.9808C159.577 16.8619 159.536 16.7688 159.477 16.6627C159.323 16.7081 159.243 16.7365 159.153 16.8712C159.122 16.9404 159.122 16.9404 159.09 17.011C159.065 17.0652 159.04 17.1193 159.014 17.1752C159 17.2054 158.986 17.2357 158.971 17.2669C158.881 17.4552 158.783 17.6392 158.686 17.8237C158.664 17.8644 158.643 17.9051 158.621 17.947C158.473 18.2265 158.32 18.5024 158.165 18.7776C157.978 19.109 157.809 19.4455 157.653 19.7928C157.558 20.0029 157.446 20.1861 157.317 20.378C157.254 20.5008 157.192 20.6236 157.132 20.7482C156.993 21.0318 156.847 21.3089 156.69 21.5829C156.522 21.876 156.366 22.1727 156.217 22.4756C156.064 22.7871 155.902 23.0941 155.739 23.401C155.626 23.6147 155.515 23.829 155.409 24.0462C155.263 24.3415 155.102 24.6275 154.941 24.9146C154.797 25.1729 154.661 25.4338 154.53 25.6994C154.439 25.8822 154.344 26.0625 154.248 26.2427C154.232 26.2733 154.215 26.304 154.198 26.3356C153.805 27.0714 153.805 27.0714 153.551 27.1558C153.436 27.1632 153.321 27.1669 153.206 27.1684C153.145 27.1697 153.084 27.171 153.021 27.1723C152.801 27.1513 152.679 27.1001 152.533 26.9307C152.377 26.7224 152.26 26.4987 152.148 26.2647C152.113 26.1933 152.078 26.122 152.043 26.0507C152.027 26.0163 152.01 25.9819 151.992 25.9465C151.907 25.7752 151.814 25.6081 151.722 25.4406C151.505 25.0468 151.292 24.6507 151.094 24.247C150.977 24.0109 150.851 23.7821 150.72 23.5535C150.572 23.2923 150.43 23.0293 150.297 22.7596C149.946 22.0481 149.581 21.3436 149.187 20.6546C149.036 20.389 148.899 20.1179 148.765 19.8437C148.626 19.5663 148.477 19.2948 148.329 19.0224C148.142 18.6764 147.956 18.3305 147.783 17.9775C147.65 17.7101 147.511 17.4462 147.369 17.1836C147.337 17.1237 147.337 17.1237 147.305 17.0626C147.284 17.0253 147.264 16.9879 147.243 16.9494C147.225 16.9159 147.206 16.8824 147.188 16.8479C147.111 16.7468 147.039 16.7108 146.923 16.6627C146.772 16.8131 146.776 16.9964 146.747 17.1993C146.741 17.2421 146.734 17.2848 146.728 17.3289C146.679 17.654 146.637 17.9798 146.595 18.3058C146.575 18.445 146.551 18.5807 146.521 18.718C146.475 18.9352 146.447 19.1535 146.421 19.3738C146.395 19.5942 146.367 19.8125 146.32 20.0297C146.265 20.2889 146.232 20.5498 146.198 20.8126C146.165 21.0665 146.13 21.32 146.094 21.5735C146.088 21.6166 146.082 21.6597 146.076 21.7042C146.04 21.9595 145.995 22.2111 145.943 22.4636C145.904 22.6637 145.877 22.8652 145.85 23.0671C145.794 23.4686 145.733 23.8689 145.668 24.269C145.604 24.6597 145.544 25.0506 145.489 25.4425C145.476 25.5276 145.464 25.6128 145.452 25.6979C145.434 25.8268 145.416 25.9558 145.399 26.0849C145.381 26.216 145.363 26.347 145.344 26.478C145.339 26.5174 145.334 26.5567 145.329 26.5972C145.324 26.634 145.319 26.6708 145.313 26.7087C145.309 26.7406 145.304 26.7725 145.3 26.8054C145.249 26.9534 145.173 27.0431 145.065 27.1558C144.931 27.1874 144.931 27.1874 144.777 27.1875C144.719 27.1881 144.662 27.1888 144.602 27.1894C144.54 27.1887 144.478 27.1881 144.414 27.1874C144.35 27.1875 144.286 27.1876 144.22 27.1878C144.084 27.1877 143.949 27.1872 143.814 27.1858C143.64 27.1841 143.467 27.1844 143.294 27.1853C143.128 27.186 142.963 27.1851 142.797 27.1842C142.735 27.1845 142.673 27.1847 142.608 27.185C142.551 27.1842 142.493 27.1834 142.434 27.1826C142.358 27.1821 142.358 27.1821 142.28 27.1817C142.153 27.1558 142.153 27.1558 142.06 27.06C141.992 26.9371 141.99 26.8862 142.013 26.7493C142.019 26.7097 142.025 26.6702 142.031 26.6294C142.038 26.5877 142.045 26.5461 142.052 26.5031C142.064 26.4174 142.075 26.3317 142.086 26.246C142.099 26.157 142.112 26.0681 142.124 25.9791C142.13 25.9351 142.137 25.891 142.143 25.8456C142.173 25.6337 142.207 25.4242 142.252 25.2148C142.303 24.9645 142.334 24.7125 142.364 24.4589C142.405 24.1235 142.456 23.7901 142.51 23.4566C142.538 23.2815 142.565 23.1064 142.593 22.9312C142.598 22.8968 142.604 22.8625 142.609 22.827C142.66 22.5076 142.706 22.1877 142.75 21.8675C142.799 21.5211 142.852 21.1755 142.906 20.8298C142.967 20.4369 143.026 20.0438 143.081 19.65C143.145 19.2006 143.213 18.7522 143.283 18.3038C143.344 17.9083 143.402 17.5124 143.456 17.1157C143.483 16.9195 143.515 16.7262 143.557 16.5325C143.608 16.281 143.64 16.028 143.67 15.7732C143.711 15.4378 143.762 15.1045 143.815 14.7709C143.843 14.5958 143.871 14.4207 143.899 14.2455C143.904 14.2112 143.909 14.1768 143.915 14.1414C143.965 13.8219 144.011 13.502 144.056 13.1819C144.105 12.8355 144.158 12.4898 144.211 12.1441C144.314 11.4819 144.409 10.8188 144.502 10.1551C144.508 10.1083 144.515 10.0615 144.522 10.0133C144.534 9.9249 144.546 9.83651 144.558 9.74809C144.588 9.53917 144.622 9.33273 144.665 9.12607C144.722 8.84689 144.754 8.56776 144.786 8.28453C144.847 7.94339 145.095 8.00717 145.382 8.00525Z" fill="#FCFCFD"/>
</svg>
