<svg width="1440" height="276" viewBox="0 0 1440 276" fill="none" xmlns="http://www.w3.org/2000/svg">
<path fill-rule="evenodd" clip-rule="evenodd" d="M1464.44 -9.0827C1465.87 -9.07971 1464.1 -18.2734 1464.1 -42.3482V-9.21271C1464.23 -9.1257 1464.35 -9.0827 1464.44 -9.0827ZM281.564 276C286.716 275.999 291.943 275.893 297.221 275.676C521.719 266.443 991.263 -30.3473 1219.49 -32.3475C1220.27 -32.3545 1221.02 -32.3575 1221.8 -32.3575C1375.66 -32.3575 1464.1 102.663 1464.1 102.663V-9.21271C1458.5 -12.905 1421.86 -93.7631 1225.34 -104.353C1217.24 -104.789 1209.01 -105 1200.59 -105C946.193 -105 551.441 88.1457 326.537 88.1397C320.139 88.1397 313.87 87.9837 307.754 87.6617C6.19116 71.8045 -34 5.65543 -34 5.65543V102.663C-34 102.663 72.9924 276.006 281.564 276ZM281.551 275C234.175 275 188.171 265.926 144.815 248.032C110.11 233.708 77.0116 213.73 46.4363 188.654C-3.76758 147.48 -30.6984 105.778 -32.8297 102.412V8.92667C-27.8649 14.4621 -13.2922 27.4261 23.307 41.6232C51.1039 52.405 85.9534 61.6617 126.889 69.1363C178.012 78.472 238.839 85.0405 307.683 88.6597C313.737 88.9788 320.081 89.1398 326.537 89.1398C435.731 89.1428 582.685 44.3714 738.267 -3.02927C901.2 -52.669 1069.68 -104 1200.59 -104C1209.02 -104 1217.32 -103.783 1225.27 -103.355C1299.28 -99.3666 1359.23 -84.9845 1403.46 -60.6076C1438.73 -41.1701 1453.62 -21.0706 1459.97 -12.488C1461.44 -10.5048 1462.27 -9.39874 1462.93 -8.78571V99.0185C1456.36 89.8218 1435.19 61.9687 1401.46 34.4296C1377.37 14.7611 1351.67 -0.913086 1325.09 -12.157C1291.83 -26.225 1257.07 -33.3576 1221.8 -33.3576C1221.02 -33.3576 1220.26 -33.3546 1219.48 -33.3476C1191.3 -33.1005 1159 -28.4982 1120.71 -19.2765C1086.67 -11.0799 1048.66 0.605042 1004.5 16.4432C922.582 45.8315 831.782 85.3025 743.971 123.474C660.75 159.651 574.695 197.06 497.827 225.086C411.836 256.44 346.199 272.661 297.164 274.677C291.973 274.891 286.723 275 281.557 275H281.551Z" fill="white"/>
</svg>
