<svg width="699" height="100" viewBox="0 0 699 100" fill="none" xmlns="http://www.w3.org/2000/svg">
<path d="M362.032 14.2146C362.118 14.2113 362.204 14.208 362.292 14.2046C362.717 14.201 362.937 14.2102 363.29 14.4629C363.544 14.8121 363.747 15.1656 363.94 15.5513C364.019 15.7041 364.097 15.8568 364.176 16.0095C364.215 16.0861 364.254 16.1627 364.295 16.2417C364.47 16.5826 364.65 16.9205 364.831 17.2584C364.881 17.3517 364.881 17.3517 364.932 17.447C365.126 17.8103 365.323 18.1718 365.522 18.5323C365.739 18.9292 365.943 19.3311 366.143 19.7373C366.418 20.2929 366.712 20.835 367.016 21.3753C367.328 21.9319 367.631 22.4908 367.913 23.0635C368.611 24.4782 369.337 25.8785 370.12 27.2481C370.408 27.7556 370.671 28.2729 370.929 28.7962C371.488 29.9273 372.083 31.0401 372.69 32.1457C373.211 33.1021 373.717 34.0655 374.2 35.0416C374.413 35.4625 374.636 35.8774 374.86 36.2927C375.064 36.6743 375.261 37.0586 375.452 37.4476C375.726 38.0034 376.029 38.5409 376.336 39.0793C376.597 39.5398 376.841 40.0053 377.068 40.4843C377.163 40.6844 377.163 40.6844 377.366 40.8679C377.654 40.9517 377.654 40.9517 377.969 40.8679C378.101 40.7148 378.101 40.7148 378.209 40.5164C378.252 40.4434 378.295 40.3703 378.34 40.2951C378.383 40.219 378.426 40.1429 378.471 40.0646C378.511 39.9943 378.552 39.9241 378.594 39.8517C378.718 39.6349 378.839 39.417 378.96 39.1985C379.004 39.1198 379.048 39.041 379.093 38.9599C379.413 38.3785 379.714 37.7903 380.007 37.1946C380.189 36.8295 380.38 36.47 380.574 36.1108C380.85 35.5988 381.114 35.0825 381.371 34.5607C381.703 33.887 382.063 33.2314 382.431 32.5766C382.712 32.0739 382.977 31.566 383.231 31.0486C383.474 30.561 383.73 30.0801 383.985 29.5984C384.224 29.146 384.462 28.693 384.697 28.2386C385.182 27.3024 385.672 26.3712 386.195 25.4555C386.497 24.9243 386.77 24.3822 387.04 23.8338C387.317 23.2789 387.615 22.7359 387.911 22.1911C388.322 21.4311 388.726 20.6685 389.11 19.8942C389.531 19.0446 389.975 18.2076 390.422 17.3713C390.491 17.2415 390.56 17.1117 390.629 16.9818C390.761 16.7345 390.893 16.4873 391.025 16.2401C391.168 15.9737 391.309 15.7069 391.45 15.44C391.506 15.3356 391.506 15.3356 391.562 15.2292C391.633 15.0951 391.704 14.9609 391.775 14.8266C392.017 14.3702 392.017 14.3702 392.129 14.2585C392.44 14.2279 392.752 14.2306 393.064 14.2272C393.152 14.2242 393.239 14.2213 393.329 14.2183C393.707 14.2146 393.96 14.2124 394.289 14.4084C394.498 14.7596 394.547 15.1088 394.596 15.5074C394.614 15.6338 394.614 15.6338 394.632 15.7627C394.657 15.9413 394.681 16.1201 394.705 16.2989C394.75 16.6405 394.799 16.9816 394.848 17.3228C394.873 17.4955 394.897 17.6683 394.922 17.8411C395.085 18.9916 395.265 20.1393 395.443 21.2874C395.646 22.5932 395.847 23.899 396.032 25.2075C396.193 26.3458 396.372 27.4815 396.548 28.6175C396.751 29.9233 396.952 31.2291 397.136 32.5376C397.282 33.5642 397.442 34.5886 397.601 35.6132C397.702 36.2677 397.803 36.9222 397.903 37.5768C397.989 38.1346 398.075 38.6923 398.162 39.2499C398.456 41.1462 398.456 41.1462 398.557 41.9222C398.729 43.2533 398.947 44.5782 399.156 45.904C399.201 46.1872 399.245 46.4705 399.29 46.7537C399.321 46.9548 399.353 47.1558 399.385 47.3568C399.506 48.1279 399.617 48.8993 399.715 49.6736C399.758 49.9796 399.813 50.2801 399.875 50.5828C399.975 51.1172 400.048 51.674 399.963 52.2145C399.792 52.4491 399.7 52.5096 399.41 52.5553C399.311 52.5562 399.211 52.557 399.108 52.5579C398.995 52.5595 398.881 52.5611 398.765 52.5627C398.642 52.5628 398.52 52.5628 398.394 52.5628C398.268 52.5636 398.142 52.5643 398.013 52.5651C397.747 52.5662 397.481 52.5666 397.215 52.566C396.874 52.5654 396.534 52.5685 396.193 52.5726C395.868 52.5758 395.543 52.5754 395.218 52.5753C395.096 52.577 394.973 52.5786 394.847 52.5803C394.003 52.5734 394.003 52.5734 393.661 52.2742C393.545 52.0343 393.466 51.8423 393.422 51.5806C393.407 51.494 393.393 51.4074 393.377 51.3182C393.308 50.8187 393.247 50.3183 393.19 49.8171C393.141 49.4246 393.062 49.0406 392.982 48.6534C392.904 48.2506 392.849 47.8452 392.794 47.4386C392.683 46.6357 392.56 45.8351 392.43 45.035C392.292 44.1811 392.163 43.3265 392.043 42.4698C391.947 41.7837 391.838 41.0999 391.727 40.416C391.603 39.6492 391.484 38.8821 391.376 38.1128C391.22 37.0005 391.05 35.8906 390.876 34.7808C390.822 34.4312 390.769 34.0814 390.716 33.7315C390.681 33.5038 390.645 33.276 390.61 33.0482C390.594 32.942 390.578 32.8358 390.562 32.7263C390.546 32.6278 390.531 32.5292 390.515 32.4277C390.495 32.298 390.495 32.298 390.475 32.1658C390.421 31.928 390.339 31.7418 390.221 31.5295C389.915 31.6203 389.755 31.677 389.573 31.9464C389.512 32.0849 389.512 32.0849 389.449 32.2261C389.398 32.3345 389.348 32.4428 389.296 32.5544C389.267 32.6149 389.239 32.6755 389.21 32.7378C389.031 33.1145 388.834 33.4825 388.639 33.8515C388.596 33.9329 388.554 34.0143 388.51 34.0982C388.214 34.6571 387.908 35.209 387.597 35.7594C387.223 36.4222 386.885 37.0951 386.574 37.7896C386.384 38.2099 386.161 38.5763 385.903 38.96C385.775 39.2058 385.652 39.4514 385.532 39.7006C385.254 40.2678 384.961 40.822 384.647 41.3699C384.312 41.9561 384.001 42.5496 383.703 43.1553C383.395 43.7784 383.071 44.3922 382.746 45.0061C382.52 45.4334 382.299 45.8622 382.086 46.2964C381.795 46.8871 381.472 47.459 381.15 48.0334C380.861 48.5499 380.589 49.0717 380.329 49.603C380.146 49.9685 379.956 50.3292 379.764 50.6895C379.731 50.7508 379.699 50.8121 379.665 50.8753C378.877 52.3469 378.877 52.3469 378.37 52.5157C378.141 52.5304 377.91 52.5379 377.68 52.5408C377.558 52.5434 377.436 52.546 377.31 52.5487C376.869 52.5067 376.626 52.4043 376.334 52.0654C376.022 51.6489 375.789 51.2015 375.565 50.7334C375.495 50.5907 375.425 50.448 375.355 50.3055C375.321 50.2367 375.287 50.1679 375.252 50.097C375.082 49.7545 374.896 49.4202 374.711 49.0852C374.277 48.2977 373.852 47.5054 373.456 46.6981C373.222 46.2259 372.97 45.7683 372.709 45.3111C372.411 44.7887 372.127 44.2626 371.861 43.7234C371.159 42.3002 370.429 40.8912 369.642 39.5134C369.34 38.9821 369.067 38.44 368.797 37.8916C368.52 37.3367 368.222 36.7937 367.926 36.2489C367.552 35.5569 367.18 34.8652 366.834 34.1591C366.567 33.6244 366.289 33.0965 366.005 32.5713C365.942 32.4515 365.942 32.4515 365.877 32.3293C365.836 32.2546 365.795 32.1799 365.753 32.103C365.717 32.0359 365.681 31.969 365.644 31.8999C365.491 31.6977 365.346 31.6256 365.114 31.5295C364.813 31.8302 364.82 32.1969 364.762 32.6027C364.749 32.6882 364.737 32.7738 364.723 32.8619C364.626 33.5121 364.542 34.1637 364.457 34.8157C364.418 35.094 364.369 35.3654 364.31 35.6401C364.217 36.0745 364.162 36.511 364.109 36.9518C364.057 37.3925 364.001 37.829 363.909 38.2634C363.798 38.7819 363.732 39.3036 363.664 39.8292C363.599 40.337 363.528 40.8441 363.457 41.3511C363.445 41.4373 363.433 41.5236 363.421 41.6125C363.348 42.1231 363.257 42.6262 363.153 43.1313C363.075 43.5315 363.022 43.9345 362.967 44.3384C362.856 45.1413 362.733 45.9419 362.603 46.742C362.476 47.5234 362.355 48.3052 362.245 49.0891C362.221 49.2594 362.197 49.4296 362.172 49.5998C362.136 49.8577 362.1 50.1156 362.065 50.3738C362.03 50.6361 361.994 50.8981 361.957 51.1602C361.947 51.2388 361.937 51.3175 361.927 51.3986C361.916 51.4721 361.905 51.5457 361.894 51.6214C361.886 51.6853 361.877 51.7492 361.868 51.815C361.766 52.111 361.614 52.2902 361.398 52.5157C361.13 52.5788 361.13 52.5788 360.822 52.5791C360.707 52.5804 360.591 52.5816 360.472 52.5829C360.348 52.5816 360.223 52.5802 360.095 52.5789C359.967 52.5791 359.839 52.5794 359.707 52.5796C359.437 52.5795 359.166 52.5784 358.895 52.5757C358.549 52.5722 358.202 52.5728 357.855 52.5747C357.524 52.576 357.193 52.5742 356.862 52.5726C356.738 52.5731 356.613 52.5736 356.485 52.5741C356.37 52.5725 356.254 52.5709 356.136 52.5693C355.983 52.5684 355.983 52.5684 355.828 52.5674C355.573 52.5157 355.573 52.5157 355.388 52.3241C355.252 52.0783 355.249 51.9764 355.294 51.7026C355.306 51.6235 355.318 51.5444 355.33 51.4629C355.344 51.3796 355.358 51.2962 355.372 51.2104C355.395 51.039 355.418 50.8676 355.441 50.6961C355.466 50.5182 355.491 50.3402 355.517 50.1623C355.529 50.0742 355.541 49.9861 355.554 49.8954C355.614 49.4715 355.682 49.0525 355.771 48.6338C355.875 48.133 355.936 47.6291 355.997 47.1219C356.078 46.4511 356.181 45.7844 356.288 45.1172C356.344 44.7671 356.399 44.4168 356.454 44.0666C356.465 43.9978 356.476 43.929 356.487 43.8582C356.587 43.2194 356.679 42.5796 356.769 41.9392C356.866 41.2464 356.972 40.5551 357.079 39.8637C357.201 39.0778 357.32 38.2916 357.431 37.504C357.557 36.6053 357.695 35.7085 357.834 34.8117C357.957 34.0207 358.073 33.2288 358.18 32.4356C358.235 32.0431 358.298 31.6566 358.381 31.2691C358.485 30.7661 358.547 30.26 358.608 29.7506C358.689 29.0797 358.792 28.413 358.899 27.7459C358.955 27.3957 359.01 27.0455 359.065 26.6952C359.076 26.6264 359.087 26.5577 359.098 26.4868C359.198 25.848 359.29 25.2082 359.38 24.5678C359.477 23.875 359.583 23.1837 359.691 22.4924C359.896 21.168 360.087 19.8418 360.271 18.5143C360.284 18.4207 360.297 18.3271 360.311 18.2306C360.336 18.0539 360.36 17.8771 360.385 17.7003C360.443 17.2824 360.512 16.8696 360.597 16.4562C360.712 15.8979 360.775 15.3396 360.839 14.7732C360.962 14.0909 361.458 14.2184 362.032 14.2146Z" fill="#FCFCFD"/>
<path d="M80.6638 14.2146C80.7497 14.2113 80.8356 14.208 80.9241 14.2046C81.3488 14.201 81.5694 14.2102 81.9215 14.4629C82.1764 14.8121 82.3785 15.1656 82.5719 15.5513C82.6506 15.7041 82.7294 15.8568 82.8081 16.0095C82.8472 16.0861 82.8864 16.1627 82.9267 16.2417C83.1018 16.5826 83.2823 16.9205 83.4633 17.2584C83.513 17.3517 83.513 17.3517 83.5638 17.447C83.7576 17.8103 83.9547 18.1718 84.1537 18.5323C84.3714 18.9292 84.5752 19.3311 84.7751 19.7373C85.0502 20.2929 85.3436 20.835 85.6476 21.3753C85.9603 21.9319 86.2628 22.4908 86.5452 23.0635C87.2428 24.4782 87.9694 25.8785 88.7521 27.2481C89.0402 27.7556 89.3033 28.2729 89.5612 28.7962C90.1195 29.9273 90.7152 31.0401 91.3222 32.1457C91.8429 33.1021 92.349 34.0655 92.8318 35.0416C93.0445 35.4625 93.268 35.8774 93.4915 36.2927C93.6962 36.6743 93.8931 37.0586 94.0836 37.4476C94.3582 38.0034 94.6605 38.5409 94.9675 39.0793C95.229 39.5398 95.473 40.0053 95.6995 40.4843C95.7951 40.6844 95.7951 40.6844 95.998 40.8679C96.2862 40.9517 96.2862 40.9517 96.6006 40.8679C96.7325 40.7148 96.7325 40.7148 96.8411 40.5164C96.8842 40.4434 96.9273 40.3703 96.9717 40.2951C97.0149 40.219 97.0582 40.1429 97.1028 40.0646C97.1433 39.9943 97.1839 39.9241 97.2258 39.8517C97.3498 39.6349 97.4714 39.417 97.5923 39.1985C97.636 39.1198 97.6797 39.041 97.7247 38.9599C98.045 38.3785 98.3458 37.7903 98.6386 37.1946C98.821 36.8295 99.0118 36.47 99.2055 36.1108C99.4815 35.5988 99.7458 35.0825 100.003 34.5607C100.335 33.887 100.695 33.2314 101.063 32.5766C101.344 32.0739 101.609 31.566 101.863 31.0486C102.106 30.561 102.362 30.0801 102.617 29.5984C102.856 29.146 103.094 28.693 103.329 28.2386C103.814 27.3024 104.304 26.3712 104.827 25.4555C105.129 24.9243 105.402 24.3822 105.672 23.8338C105.949 23.2789 106.247 22.7359 106.543 22.1911C106.954 21.4311 107.358 20.6685 107.742 19.8942C108.163 19.0446 108.607 18.2076 109.054 17.3713C109.123 17.2415 109.192 17.1117 109.261 16.9818C109.393 16.7345 109.525 16.4873 109.657 16.2401C109.799 15.9737 109.941 15.7069 110.082 15.44C110.138 15.3356 110.138 15.3356 110.194 15.2292C110.265 15.0951 110.336 14.9609 110.407 14.8266C110.649 14.3702 110.649 14.3702 110.761 14.2585C111.072 14.2279 111.384 14.2306 111.696 14.2272C111.784 14.2242 111.871 14.2213 111.961 14.2183C112.339 14.2146 112.592 14.2124 112.921 14.4084C113.13 14.7596 113.179 15.1088 113.228 15.5074C113.246 15.6338 113.246 15.6338 113.264 15.7627C113.289 15.9413 113.313 16.1201 113.337 16.2989C113.382 16.6405 113.431 16.9816 113.48 17.3228C113.505 17.4955 113.529 17.6683 113.554 17.8411C113.717 18.9916 113.897 20.1393 114.075 21.2874C114.278 22.5932 114.479 23.899 114.664 25.2075C114.825 26.3458 115.004 27.4815 115.18 28.6175C115.383 29.9233 115.584 31.2291 115.768 32.5376C115.914 33.5642 116.074 34.5886 116.233 35.6132C116.334 36.2677 116.435 36.9222 116.535 37.5768C116.621 38.1346 116.707 38.6923 116.794 39.2499C117.088 41.1462 117.088 41.1462 117.189 41.9222C117.361 43.2533 117.579 44.5782 117.788 45.904C117.833 46.1872 117.877 46.4705 117.922 46.7537C117.953 46.9548 117.985 47.1558 118.017 47.3568C118.138 48.1279 118.249 48.8993 118.347 49.6736C118.39 49.9796 118.444 50.2801 118.507 50.5828C118.607 51.1172 118.679 51.674 118.595 52.2145C118.424 52.4491 118.332 52.5096 118.042 52.5553C117.943 52.5562 117.843 52.557 117.74 52.5579C117.627 52.5595 117.513 52.5611 117.397 52.5627C117.274 52.5628 117.152 52.5628 117.026 52.5628C116.9 52.5636 116.774 52.5643 116.645 52.5651C116.379 52.5662 116.113 52.5666 115.847 52.566C115.506 52.5654 115.166 52.5685 114.825 52.5726C114.5 52.5758 114.175 52.5754 113.85 52.5753C113.727 52.577 113.605 52.5786 113.479 52.5803C112.635 52.5734 112.635 52.5734 112.293 52.2742C112.177 52.0343 112.098 51.8423 112.054 51.5806C112.039 51.494 112.025 51.4074 112.009 51.3182C111.94 50.8187 111.878 50.3183 111.822 49.8171C111.773 49.4246 111.694 49.0406 111.614 48.6534C111.536 48.2506 111.481 47.8452 111.426 47.4386C111.315 46.6357 111.192 45.8351 111.062 45.035C110.924 44.1811 110.795 43.3265 110.675 42.4698C110.578 41.7837 110.47 41.0999 110.359 40.416C110.235 39.6492 110.116 38.8821 110.008 38.1128C109.852 37.0005 109.682 35.8906 109.508 34.7808C109.454 34.4312 109.401 34.0814 109.348 33.7315C109.312 33.5038 109.277 33.276 109.242 33.0482C109.226 32.942 109.21 32.8358 109.194 32.7263C109.178 32.6278 109.163 32.5292 109.147 32.4277C109.127 32.298 109.127 32.298 109.107 32.1658C109.053 31.928 108.971 31.7418 108.853 31.5295C108.547 31.6203 108.387 31.677 108.205 31.9464C108.144 32.0849 108.144 32.0849 108.081 32.2261C108.03 32.3345 107.98 32.4428 107.927 32.5544C107.899 32.6149 107.871 32.6755 107.842 32.7378C107.663 33.1145 107.466 33.4825 107.271 33.8515C107.228 33.9329 107.186 34.0143 107.142 34.0982C106.846 34.6571 106.54 35.209 106.229 35.7594C105.855 36.4222 105.517 37.0951 105.206 37.7896C105.016 38.2099 104.793 38.5763 104.534 38.96C104.407 39.2058 104.284 39.4514 104.164 39.7006C103.886 40.2678 103.593 40.822 103.279 41.3699C102.944 41.9561 102.633 42.5496 102.335 43.1553C102.027 43.7784 101.703 44.3922 101.378 45.0061C101.152 45.4334 100.931 45.8622 100.718 46.2964C100.427 46.8871 100.104 47.459 99.7818 48.0334C99.4932 48.5499 99.2212 49.0717 98.9607 49.603C98.7784 49.9685 98.588 50.3292 98.3958 50.6895C98.3631 50.7508 98.3305 50.8121 98.2969 50.8753C97.509 52.3469 97.509 52.3469 97.0023 52.5157C96.7725 52.5304 96.5422 52.5379 96.3119 52.5408C96.1899 52.5434 96.068 52.546 95.9423 52.5487C95.5011 52.5067 95.2577 52.4043 94.9657 52.0654C94.6537 51.6489 94.4205 51.2015 94.1966 50.7334C94.1268 50.5907 94.0568 50.448 93.9867 50.3055C93.9529 50.2367 93.9192 50.1679 93.8844 50.097C93.7135 49.7545 93.5281 49.4202 93.3429 49.0852C92.909 48.2977 92.4836 47.5054 92.0876 46.6981C91.8543 46.2259 91.6015 45.7683 91.3406 45.3111C91.0431 44.7887 90.7592 44.2626 90.4933 43.7234C89.7914 42.3002 89.061 40.8912 88.2737 39.5134C87.9717 38.9821 87.6989 38.44 87.429 37.8916C87.1522 37.3367 86.8537 36.7937 86.5577 36.2489C86.1842 35.5569 85.8118 34.8652 85.4656 34.1591C85.1993 33.6244 84.9214 33.0965 84.637 32.5713C84.5737 32.4515 84.5737 32.4515 84.5092 32.3293C84.4683 32.2546 84.4273 32.1799 84.3852 32.103C84.349 32.0359 84.3129 31.969 84.2757 31.8999C84.1227 31.6977 83.9776 31.6256 83.7457 31.5295C83.4449 31.8302 83.4521 32.1969 83.3942 32.6027C83.3813 32.6882 83.3685 32.7738 83.3552 32.8619C83.2584 33.5121 83.1735 34.1637 83.0894 34.8157C83.0499 35.094 83.0012 35.3654 82.9423 35.6401C82.8494 36.0745 82.7935 36.511 82.7414 36.9518C82.6893 37.3925 82.6334 37.829 82.5406 38.2634C82.4298 38.7819 82.364 39.3036 82.2962 39.8292C82.2305 40.337 82.1601 40.8441 82.0886 41.3511C82.0767 41.4373 82.0648 41.5236 82.0526 41.6125C81.9803 42.1231 81.889 42.6262 81.7851 43.1313C81.7073 43.5315 81.6536 43.9345 81.599 44.3384C81.4876 45.1413 81.365 45.9419 81.235 46.742C81.1082 47.5234 80.9875 48.3052 80.8772 49.0891C80.8529 49.2594 80.8286 49.4296 80.8042 49.5998C80.7675 49.8577 80.7315 50.1156 80.6972 50.3738C80.6624 50.6361 80.6256 50.8981 80.5885 51.1602C80.5786 51.2388 80.5688 51.3175 80.5586 51.3986C80.5479 51.4721 80.5372 51.5457 80.5261 51.6214C80.5175 51.6853 80.5089 51.7492 80.5 51.815C80.398 52.111 80.246 52.2902 80.0298 52.5157C79.7624 52.5788 79.7624 52.5788 79.4543 52.5791C79.3387 52.5804 79.2231 52.5816 79.104 52.5829C78.9796 52.5816 78.8552 52.5802 78.727 52.5789C78.599 52.5791 78.471 52.5794 78.3391 52.5796C78.0685 52.5795 77.798 52.5784 77.5274 52.5757C77.1807 52.5722 76.8341 52.5728 76.4873 52.5747C76.1563 52.576 75.8254 52.5742 75.4945 52.5726C75.3699 52.5731 75.2453 52.5736 75.1169 52.5741C75.0016 52.5725 74.8863 52.5709 74.7675 52.5693C74.6151 52.5684 74.6151 52.5684 74.4596 52.5674C74.205 52.5157 74.205 52.5157 74.0199 52.3241C73.8839 52.0783 73.8808 51.9764 73.926 51.7026C73.938 51.6235 73.9499 51.5444 73.9622 51.4629C73.976 51.3796 73.9899 51.2962 74.0041 51.2104C74.0273 51.039 74.0502 50.8676 74.0728 50.6961C74.0978 50.5182 74.1231 50.3402 74.1485 50.1623C74.1607 50.0742 74.1729 49.9861 74.1855 49.8954C74.2458 49.4715 74.3135 49.0525 74.4031 48.6338C74.5067 48.133 74.5682 47.6291 74.6288 47.1219C74.7098 46.4511 74.8126 45.7844 74.9196 45.1172C74.9757 44.7671 75.0309 44.4168 75.0861 44.0666C75.0969 43.9978 75.1077 43.929 75.1189 43.8582C75.2192 43.2194 75.3111 42.5796 75.4007 41.9392C75.4981 41.2464 75.6041 40.5551 75.7114 39.8637C75.8334 39.0778 75.9521 38.2916 76.0629 37.504C76.1893 36.6053 76.3267 35.7085 76.4661 34.8117C76.5887 34.0207 76.7046 33.2288 76.8122 32.4356C76.8666 32.0431 76.9302 31.6566 77.013 31.2691C77.1169 30.7661 77.179 30.26 77.24 29.7506C77.3209 29.0797 77.4238 28.413 77.5308 27.7459C77.5869 27.3957 77.6421 27.0455 77.6972 26.6952C77.7081 26.6264 77.7189 26.5577 77.7301 26.4868C77.8303 25.848 77.9222 25.2082 78.0118 24.5678C78.1093 23.875 78.2152 23.1837 78.3225 22.4924C78.5279 21.168 78.7185 19.8418 78.9032 18.5143C78.9163 18.4207 78.9294 18.3271 78.9429 18.2306C78.9677 18.0539 78.9923 17.8771 79.0166 17.7003C79.0753 17.2824 79.1439 16.8696 79.2292 16.4562C79.3442 15.8979 79.4072 15.3396 79.4712 14.7732C79.594 14.0909 80.0902 14.2184 80.6638 14.2146Z" fill="#FCFCFD"/>
<path d="M163.352 14.2586C165.105 14.2539 166.858 14.2503 168.611 14.2482C169.425 14.2471 170.24 14.2457 171.054 14.2434C171.764 14.2414 172.474 14.2401 173.185 14.2397C173.56 14.2394 173.936 14.2388 174.311 14.2373C177.329 14.2259 177.329 14.2259 178.617 14.4594C178.738 14.4812 178.738 14.4812 178.861 14.5035C181.897 15.1188 184.728 16.8143 186.497 19.3843C186.916 20.0204 187.251 20.6911 187.555 21.3879C187.584 21.4537 187.613 21.5196 187.643 21.5875C188.816 24.3286 188.769 27.4265 187.684 30.1927C186.749 32.4624 185.023 34.2119 182.936 35.4456C182.761 35.5549 182.587 35.6656 182.415 35.7782C182.345 35.8234 182.275 35.8686 182.203 35.9151C182.004 36.055 182.004 36.055 181.831 36.3493C181.78 37.0391 181.948 37.4651 182.346 38.0163C182.409 38.1037 182.471 38.1911 182.536 38.2812C182.601 38.3727 182.667 38.4642 182.735 38.5584C182.866 38.7452 182.996 38.9321 183.127 39.1193C183.193 39.2141 183.259 39.3089 183.327 39.4066C183.876 40.1942 184.423 40.9818 184.952 41.783C185.496 42.5992 186.056 43.4049 186.62 44.2066C186.941 44.6634 187.25 45.1282 187.559 45.5936C187.738 45.8618 187.922 46.1267 188.108 46.3906C188.35 46.7342 188.586 47.0814 188.817 47.4324C189.257 48.0967 189.716 48.7483 190.174 49.4C190.479 49.8327 190.777 50.2682 191.07 50.7083C191.149 50.8187 191.228 50.9288 191.307 51.0386C191.347 51.0937 191.386 51.1489 191.427 51.2057C191.508 51.3189 191.59 51.4316 191.673 51.5438C191.907 51.8736 191.974 51.9969 191.974 52.4153C191.686 52.5595 191.437 52.5301 191.115 52.5319C191.047 52.5324 190.98 52.5329 190.91 52.5334C190.686 52.5349 190.461 52.5356 190.237 52.5362C190.081 52.5367 189.925 52.5373 189.77 52.5379C189.442 52.5389 189.115 52.5395 188.788 52.5399C188.369 52.5404 187.951 52.5428 187.532 52.5457C187.21 52.5476 186.888 52.5481 186.566 52.5482C186.411 52.5486 186.257 52.5494 186.103 52.5507C185.887 52.5524 185.67 52.5522 185.454 52.5515C185.331 52.5519 185.208 52.5523 185.081 52.5527C184.604 52.5005 184.267 52.352 183.942 51.9964C183.883 51.911 183.825 51.8256 183.764 51.7376C183.662 51.59 183.662 51.59 183.558 51.4395C183.485 51.3307 183.412 51.222 183.337 51.11C183.258 50.9918 183.178 50.8736 183.098 50.7554C182.885 50.4379 182.674 50.1191 182.463 49.7999C182.249 49.4765 182.034 49.1543 181.818 48.8319C181.734 48.706 181.651 48.5801 181.567 48.4541C181.526 48.3939 181.486 48.3337 181.445 48.2716C181.272 48.0128 181.1 47.754 180.927 47.4951C180.831 47.3509 180.831 47.3509 180.733 47.2037C180.581 46.9768 180.431 46.7495 180.281 46.522C179.898 45.9429 179.513 45.368 179.101 44.8091C178.778 44.3711 178.483 43.9215 178.194 43.4606C177.765 42.7828 177.316 42.1186 176.854 41.4641C176.613 41.1229 176.385 40.7764 176.163 40.4223C175.753 39.7703 175.306 39.1433 174.828 38.5392C174.701 38.3576 174.701 38.3576 174.701 38.1568C174.645 38.1298 174.589 38.1029 174.531 38.0752C174.299 37.9559 174.299 37.9559 174.067 37.8116C173.346 37.393 172.811 37.3034 171.983 37.3095C171.886 37.3075 171.788 37.3055 171.688 37.3034C171.109 37.3038 170.718 37.3348 170.282 37.7551C169.904 38.4087 169.939 39.0446 169.943 39.785C169.943 39.919 169.943 40.053 169.942 40.187C169.941 40.4744 169.941 40.7617 169.942 41.0491C169.943 41.5035 169.942 41.958 169.941 42.4124C169.937 43.5406 169.936 44.6688 169.937 45.797C169.937 46.675 169.936 47.553 169.933 48.431C169.931 48.8827 169.931 49.3344 169.933 49.7862C169.933 50.1328 169.931 50.4795 169.93 50.8261C169.931 51.0138 169.931 51.0138 169.933 51.2053C169.932 51.377 169.932 51.377 169.93 51.5521C169.93 51.6515 169.93 51.7509 169.93 51.8534C169.866 52.188 169.743 52.3075 169.478 52.5158C169.21 52.5647 169.21 52.5647 168.901 52.563C168.785 52.5632 168.669 52.5635 168.55 52.5638C168.425 52.5621 168.3 52.5603 168.172 52.5585C168.044 52.5582 167.915 52.5578 167.783 52.5575C167.512 52.5565 167.241 52.5547 166.97 52.5516C166.623 52.5476 166.275 52.5458 165.927 52.5448C165.596 52.5438 165.265 52.5418 164.933 52.5397C164.808 52.5389 164.683 52.5382 164.554 52.5374C164.439 52.5361 164.323 52.5349 164.205 52.5335C164.103 52.5325 164.001 52.5316 163.896 52.5305C163.653 52.5158 163.653 52.5158 163.453 52.4153C163.342 52.0824 163.34 51.8366 163.34 51.4858C163.34 51.3534 163.339 51.2209 163.339 51.0844C163.339 50.9365 163.34 50.7886 163.34 50.6407C163.34 50.4843 163.34 50.3279 163.34 50.1715C163.34 49.7406 163.34 49.3097 163.34 48.8787C163.341 48.4144 163.341 47.9502 163.341 47.4859C163.341 46.6811 163.341 45.8763 163.341 45.0716C163.342 43.908 163.343 42.7444 163.343 41.5808C163.343 39.6931 163.344 37.8054 163.345 35.9178C163.345 34.0837 163.346 32.2497 163.347 30.4157C163.347 30.3027 163.347 30.1897 163.347 30.0732C163.347 29.5064 163.347 28.9395 163.347 28.3727C163.348 23.668 163.35 18.9633 163.352 14.2586Z" fill="#FCFCFD"/>
<path d="M270.359 14.2086C270.46 14.2087 270.56 14.2088 270.664 14.2089C270.78 14.2081 270.895 14.2072 271.015 14.2064C271.142 14.2075 271.269 14.2086 271.4 14.2098C271.535 14.2096 271.67 14.2092 271.805 14.2086C272.173 14.2076 272.54 14.2092 272.908 14.2112C273.294 14.213 273.679 14.2126 274.065 14.2126C274.714 14.2127 275.363 14.2145 276.012 14.2172C276.759 14.2204 277.506 14.2214 278.253 14.2213C279.051 14.2212 279.85 14.2226 280.648 14.2244C280.876 14.2248 281.104 14.225 281.332 14.2251C281.694 14.2253 282.056 14.2265 282.417 14.2285C282.611 14.2294 282.804 14.2293 282.998 14.2291C286.405 14.2536 289.427 15.4403 291.901 17.773C291.97 17.8357 292.039 17.8983 292.111 17.9628C292.714 18.5303 293.161 19.1903 293.608 19.8817C293.672 19.9791 293.735 20.0766 293.801 20.177C295.585 23.0659 295.838 26.8012 295.077 30.0547C294.276 32.9995 292.425 35.6586 289.78 37.2342C289.584 37.3423 289.387 37.4491 289.19 37.5543C289.11 37.5995 289.03 37.6446 288.947 37.6912C288.311 38.0349 287.644 38.2418 286.953 38.4466C286.74 38.5102 286.527 38.5775 286.319 38.6558C284.366 39.2444 282.198 39.1061 280.18 39.1112C279.835 39.1122 279.49 39.1137 279.146 39.1168C278.89 39.1189 278.635 39.1198 278.38 39.1192C277.555 39.1073 277.555 39.1073 276.837 39.4621C276.489 40.0799 276.494 40.6376 276.5 41.3353C276.5 41.4513 276.5 41.5673 276.499 41.6868C276.499 41.9379 276.499 42.1889 276.5 42.44C276.502 42.8371 276.501 43.2341 276.5 43.6312C276.497 44.6885 276.497 45.7457 276.499 46.803C276.5 47.5654 276.499 48.3277 276.496 49.09C276.496 49.3534 276.496 49.6168 276.498 49.8802C276.499 50.2478 276.498 50.6152 276.496 50.9828C276.498 51.092 276.499 51.2011 276.501 51.3136C276.493 52.0438 276.493 52.0438 276.216 52.3826C275.905 52.5287 275.708 52.5655 275.366 52.5645C275.255 52.5652 275.143 52.5658 275.029 52.5664C274.85 52.5642 274.85 52.5642 274.668 52.562C274.545 52.5619 274.421 52.5619 274.294 52.5618C274.034 52.5612 273.774 52.5596 273.514 52.5571C273.116 52.5534 272.717 52.553 272.319 52.553C272.066 52.552 271.813 52.5509 271.561 52.5495C271.441 52.5493 271.322 52.549 271.199 52.5488C271.088 52.5475 270.977 52.5462 270.863 52.5449C270.765 52.5442 270.668 52.5434 270.567 52.5426C270.298 52.5146 270.134 52.4609 269.907 52.3149C269.769 52.038 269.794 51.8157 269.794 51.5056C269.793 51.375 269.793 51.2443 269.792 51.1098C269.792 50.9634 269.793 50.8171 269.793 50.6708C269.792 50.5164 269.792 50.362 269.792 50.2076C269.791 49.7818 269.791 49.356 269.791 48.9302C269.79 48.4716 269.79 48.013 269.789 47.5544C269.788 46.5509 269.787 45.5474 269.787 44.5439C269.786 43.9178 269.786 43.2916 269.785 42.6655C269.784 40.9331 269.783 39.2007 269.783 37.4683C269.783 37.3573 269.783 37.2464 269.783 37.1321C269.783 37.0209 269.783 36.9097 269.783 36.7951C269.783 36.5697 269.783 36.3444 269.783 36.119C269.783 36.0072 269.783 35.8954 269.783 35.7802C269.782 33.9679 269.78 32.1556 269.778 30.3433C269.776 28.4843 269.774 26.6252 269.774 24.7662C269.774 23.7217 269.774 22.6773 269.772 21.6328C269.77 20.7437 269.77 19.8545 269.771 18.9653C269.771 18.5113 269.771 18.0574 269.769 17.6034C269.768 17.1882 269.768 16.773 269.77 16.3577C269.77 16.2072 269.769 16.0566 269.769 15.9061C269.767 15.702 269.768 15.498 269.769 15.294C269.769 15.1805 269.769 15.067 269.769 14.95C269.822 14.5389 269.938 14.2924 270.359 14.2086Z" fill="#FBFBFC"/>
<path d="M139.149 13.6561C139.694 13.9545 139.832 14.4139 140.053 14.9615C140.166 15.2278 140.282 15.4932 140.398 15.7585C140.428 15.8286 140.459 15.8986 140.49 15.9708C140.691 16.4284 140.904 16.8767 141.132 17.3211C141.634 18.3236 142.066 19.3639 142.517 20.3898C142.783 20.9918 143.059 21.5851 143.358 22.1719C143.508 22.4747 143.639 22.7825 143.768 23.0949C143.941 23.5036 144.118 23.9051 144.321 24.2998C144.518 24.6847 144.692 25.0752 144.861 25.4734C145.25 26.3916 145.675 27.2914 146.105 28.1908C146.478 28.971 146.841 29.7493 147.166 30.5509C147.336 30.949 147.535 31.3309 147.731 31.7162C147.955 32.1714 148.148 32.6382 148.345 33.1051C148.505 33.4746 148.682 33.8319 148.864 34.1905C149.383 35.2206 149.832 36.2852 150.292 37.3425C150.543 37.918 150.806 38.484 151.09 39.0439C151.49 39.8334 151.84 40.6487 152.198 41.4578C152.558 42.2704 152.93 43.0764 153.309 43.8803C153.722 44.7562 154.125 45.6356 154.516 46.5212C154.84 47.2524 155.178 47.9767 155.519 48.7001C155.722 49.1324 155.925 49.5654 156.125 49.9993C156.232 50.2288 156.342 50.4569 156.452 50.6852C156.528 50.8477 156.604 51.0102 156.68 51.1727C156.717 51.2489 156.754 51.325 156.793 51.4035C156.826 51.4757 156.859 51.5479 156.894 51.6222C156.939 51.7175 156.939 51.7175 156.985 51.8147C157.041 52.0925 156.934 52.2606 156.824 52.5158C156.047 52.5227 155.27 52.5281 154.493 52.5314C154.132 52.5329 153.772 52.5351 153.411 52.5385C153.062 52.5418 152.714 52.5436 152.366 52.5443C152.168 52.5452 151.971 52.5475 151.774 52.5499C151.593 52.5499 151.593 52.5499 151.409 52.5499C151.303 52.5506 151.197 52.5513 151.088 52.552C150.751 52.5098 150.568 52.4154 150.296 52.2145C149.935 51.7299 149.7 51.2112 149.462 50.6581C148.79 48.8336 148.79 48.8336 147.484 47.4951C147.006 47.3377 146.591 47.2688 146.089 47.2668C146.023 47.2662 145.957 47.2657 145.889 47.2652C145.67 47.2637 145.451 47.2636 145.232 47.2635C145.074 47.2628 144.916 47.2619 144.758 47.261C144.33 47.2588 143.902 47.2579 143.475 47.2574C143.207 47.257 142.94 47.2564 142.672 47.2557C141.738 47.2532 140.804 47.2519 139.87 47.2516C139 47.2512 138.131 47.2482 137.262 47.244C136.514 47.2405 135.766 47.239 135.019 47.2389C134.573 47.2388 134.127 47.2379 133.681 47.2351C133.261 47.2324 132.842 47.2322 132.422 47.2338C132.269 47.234 132.115 47.2333 131.962 47.2317C131.116 47.2234 130.39 47.2381 129.708 47.7964C129.226 48.292 128.983 48.8509 128.732 49.4889C128.561 49.9091 128.356 50.3085 128.149 50.7119C127.96 51.0924 127.797 51.4821 127.637 51.8756C127.462 52.1776 127.287 52.3215 126.997 52.5158C126.7 52.564 126.7 52.564 126.368 52.5613C126.244 52.5613 126.119 52.5613 125.991 52.5613C125.856 52.5592 125.721 52.5571 125.586 52.555C125.447 52.5542 125.308 52.5537 125.169 52.5532C124.805 52.5517 124.44 52.5478 124.076 52.5433C123.704 52.5392 123.331 52.5374 122.959 52.5354C122.229 52.5311 121.5 52.5242 120.77 52.5158C120.68 52.052 120.661 51.8338 120.896 51.4175C121.114 51.0226 121.3 50.6224 121.473 50.2063C121.946 49.0855 122.416 47.9713 122.98 46.8926C123.053 46.7485 123.127 46.6042 123.199 46.4596C123.228 46.4041 123.256 46.3486 123.285 46.2913C123.463 45.917 123.621 45.5334 123.782 45.1516C124.222 44.1091 124.665 43.0764 125.189 42.0728C125.263 41.9287 125.336 41.7844 125.409 41.6398C125.437 41.5843 125.465 41.5288 125.495 41.4715C125.673 41.0972 125.83 40.7136 125.991 40.3318C126.432 39.2893 126.874 38.2566 127.399 37.253C127.472 37.1089 127.545 36.9646 127.618 36.82C127.661 36.7367 127.661 36.7367 127.704 36.6517C127.882 36.2774 128.039 35.8938 128.201 35.512C128.641 34.4695 129.084 33.4368 129.608 32.4332C129.682 32.2891 129.755 32.1448 129.828 32.0002C129.87 31.9169 129.87 31.9169 129.914 31.8319C130.025 31.5985 130.126 31.3613 130.227 31.1235C130.798 29.7893 131.388 28.4567 132.043 27.1616C132.185 26.8788 132.313 26.5951 132.436 26.3043C133.007 24.9698 133.598 23.6371 134.253 22.3418C134.394 22.059 134.522 21.7753 134.646 21.4845C135.216 20.15 135.807 18.8173 136.462 17.522C136.603 17.2405 136.73 16.9581 136.853 16.6687C137.012 16.2968 137.177 15.9274 137.341 15.5577C137.375 15.4797 137.41 15.4017 137.445 15.3213C138.251 13.5064 138.251 13.5064 139.149 13.6561Z" fill="#FCFCFD"/>
<path d="M231.914 14.2066C232.032 14.2053 232.149 14.2041 232.27 14.2028C232.396 14.2036 232.523 14.2044 232.654 14.2052C232.784 14.2048 232.914 14.2045 233.048 14.2041C233.324 14.2035 233.599 14.2043 233.875 14.2062C234.227 14.2085 234.58 14.2072 234.933 14.2048C235.269 14.203 235.606 14.2042 235.943 14.2052C236.07 14.2044 236.196 14.2036 236.327 14.2028C236.444 14.204 236.562 14.2053 236.683 14.2066C236.786 14.2069 236.89 14.2072 236.997 14.2076C237.36 14.2759 237.452 14.3596 237.669 14.6602C237.73 14.9859 237.723 15.3082 237.719 15.6386C237.719 15.739 237.72 15.8394 237.72 15.9429C237.721 16.2805 237.72 16.6179 237.718 16.9555C237.718 17.1971 237.719 17.4387 237.719 17.6804C237.72 18.2015 237.72 18.7226 237.718 19.2437C237.716 19.999 237.717 20.7543 237.718 21.5096C237.72 22.7375 237.721 23.9654 237.721 25.1933C237.721 25.2668 237.721 25.3403 237.721 25.416C237.72 26.0116 237.72 26.6072 237.72 27.2028C237.719 27.7215 237.719 28.2402 237.719 28.7589C237.719 28.8319 237.719 28.9049 237.719 28.9801C237.718 30.2019 237.719 31.4236 237.721 32.6453C237.723 33.3305 237.723 34.0156 237.721 34.7007C237.719 35.3463 237.72 35.9918 237.721 36.6374C237.721 36.8733 237.721 37.1091 237.72 37.345C237.712 39.0065 237.793 40.5692 238.573 42.0728C238.601 42.1355 238.628 42.1981 238.656 42.2627C239.518 44.1814 241.283 45.5518 243.206 46.2965C245.637 47.131 248.344 47.0464 250.688 45.9642C252.427 45.0603 253.645 43.8539 254.56 42.1105C254.593 42.0513 254.625 41.992 254.658 41.931C255.418 40.4226 255.402 38.8374 255.395 37.1918C255.395 36.9458 255.396 36.6999 255.397 36.454C255.398 35.9277 255.398 35.4013 255.397 34.875C255.395 34.1135 255.396 33.3521 255.398 32.5907C255.401 31.3543 255.402 30.1179 255.402 28.8815C255.402 28.8077 255.402 28.734 255.402 28.658C255.402 28.359 255.402 28.0601 255.402 27.7612C255.401 26.9356 255.402 26.1101 255.402 25.2846C255.402 25.1735 255.402 25.1735 255.402 25.0602C255.402 23.8266 255.404 22.5929 255.406 21.3592C255.408 20.5993 255.408 19.8394 255.407 19.0795C255.406 18.4985 255.407 17.9176 255.408 17.3366C255.408 17.0981 255.408 16.8596 255.407 16.6211C255.406 16.2963 255.407 15.9716 255.408 15.6469C255.407 15.5519 255.407 15.4569 255.406 15.359C255.411 14.7257 255.411 14.7257 255.582 14.4009C255.824 14.1918 256.002 14.2076 256.318 14.2066C256.436 14.2053 256.553 14.2041 256.674 14.2028C256.801 14.2036 256.927 14.2044 257.058 14.2052C257.188 14.2048 257.318 14.2045 257.452 14.2041C257.728 14.2035 258.003 14.2043 258.279 14.2062C258.632 14.2085 258.984 14.2072 259.337 14.2048C259.674 14.203 260.01 14.2042 260.347 14.2052C260.474 14.2044 260.6 14.2036 260.731 14.2028C260.848 14.204 260.966 14.2053 261.087 14.2066C261.242 14.2071 261.242 14.2071 261.401 14.2076C261.764 14.2759 261.856 14.3595 262.074 14.6602C262.134 14.9863 262.128 15.3092 262.125 15.6401C262.126 15.7911 262.126 15.7911 262.127 15.945C262.128 16.2832 262.127 16.6213 262.126 16.9596C262.126 17.2017 262.127 17.4439 262.128 17.686C262.129 18.2767 262.129 18.8673 262.128 19.458C262.127 19.9393 262.127 20.4206 262.127 20.9019C262.128 20.9705 262.128 21.0391 262.128 21.1097C262.128 21.2491 262.128 21.3885 262.128 21.5278C262.129 22.8363 262.128 24.1448 262.126 25.4532C262.124 26.5707 262.124 27.6882 262.126 28.8057C262.128 30.1062 262.129 31.4066 262.128 32.7071C262.128 32.8466 262.128 32.9861 262.127 33.1256C262.127 33.2286 262.127 33.2286 262.127 33.3336C262.127 33.812 262.127 34.2904 262.128 34.7688C262.13 35.4174 262.129 36.066 262.126 36.7147C262.126 36.9506 262.126 37.1866 262.127 37.4225C262.137 40.2704 261.804 43.2725 260.366 45.7881C260.319 45.8799 260.272 45.9717 260.223 46.0662C259.864 46.7593 259.435 47.3782 258.96 47.9972C258.899 48.0798 258.837 48.1623 258.773 48.2474C257.527 49.8651 256.023 51.0442 254.24 52.0137C254.125 52.083 254.125 52.083 254.007 52.1537C253.015 52.7477 251.885 53.0921 250.775 53.3944C250.704 53.4143 250.633 53.4342 250.56 53.4548C249.238 53.7982 247.884 53.8598 246.526 53.8525C246.452 53.8522 246.377 53.852 246.3 53.8517C242.145 53.8303 238.287 52.2806 235.308 49.3549C234.924 48.9621 234.587 48.535 234.255 48.0976C234.157 47.9733 234.157 47.9733 234.056 47.8466C231.606 44.6453 230.973 40.7321 230.991 36.7928C230.99 36.5497 230.99 36.3066 230.989 36.0634C230.988 35.413 230.989 34.7626 230.991 34.1121C230.992 33.4979 230.991 32.8837 230.991 32.2695C230.99 31.0549 230.992 29.8403 230.994 28.6256C230.997 27.4488 230.997 26.272 230.996 25.0952C230.995 23.8079 230.995 22.5206 230.996 21.2333C230.997 21.0962 230.997 20.9591 230.997 20.822C230.997 20.7546 230.997 20.6872 230.997 20.6177C230.998 20.1433 230.997 19.6689 230.997 19.1944C230.997 18.5577 230.998 17.921 231 17.2843C231 17.0505 231 16.8167 231 16.5829C230.999 16.2646 231 15.9463 231.002 15.628C231.002 15.5349 231.001 15.4419 231 15.3459C231.007 14.7254 231.007 14.7254 231.178 14.4021C231.419 14.1914 231.597 14.2076 231.914 14.2066Z" fill="#FBFBFC"/>
<path d="M317.894 14.2082C318.014 14.2073 318.134 14.2063 318.257 14.2053C318.387 14.2065 318.517 14.2076 318.65 14.2088C318.784 14.2087 318.918 14.2086 319.053 14.2083C319.334 14.2082 319.615 14.2094 319.896 14.2117C320.256 14.2146 320.617 14.2143 320.977 14.213C321.254 14.2123 321.531 14.2131 321.808 14.2144C322.006 14.215 322.204 14.2146 322.402 14.2141C322.521 14.2154 322.641 14.2167 322.764 14.218C322.87 14.2185 322.976 14.2191 323.084 14.2197C323.167 14.2325 323.25 14.2453 323.335 14.2586C323.539 14.5646 323.561 14.6227 323.562 14.9661C323.562 15.049 323.563 15.132 323.563 15.2175C323.563 15.3086 323.563 15.3997 323.562 15.4936C323.563 15.5904 323.563 15.6873 323.563 15.7871C323.564 16.1131 323.564 16.4391 323.563 16.7651C323.564 16.9984 323.564 17.2316 323.565 17.4648C323.566 17.9681 323.567 18.4714 323.567 18.9747C323.567 19.7046 323.568 20.4345 323.57 21.1644C323.573 22.3514 323.576 23.5385 323.578 24.7255C323.578 24.8321 323.578 24.8321 323.578 24.9409C323.579 25.7317 323.58 26.5225 323.581 27.3132C323.581 27.5989 323.582 27.8845 323.582 28.1702C323.582 28.2759 323.582 28.2759 323.582 28.3837C323.584 29.5642 323.586 30.7448 323.589 31.9253C323.592 32.7162 323.592 33.5071 323.592 34.298C323.592 34.7931 323.594 35.2882 323.596 35.7833C323.596 36.0109 323.596 36.2386 323.596 36.4662C323.589 39.5695 324.026 42.2102 326.267 44.5267C326.542 44.797 326.814 44.9957 327.152 45.1856C327.152 45.2519 327.152 45.3182 327.152 45.3865C327.283 45.4271 327.283 45.4271 327.417 45.4685C327.742 45.5829 328.028 45.721 328.332 45.8823C328.779 46.1092 329.208 46.2927 329.693 46.42C329.873 46.4673 330.053 46.5167 330.232 46.5682C330.976 46.7732 331.666 46.8434 332.437 46.8362C332.55 46.8355 332.664 46.8348 332.78 46.8341C335.127 46.7896 337.261 45.9458 338.972 44.3251C341.059 42.1245 341.343 39.6672 341.339 36.7694C341.34 36.5296 341.34 36.2898 341.341 36.05C341.342 35.5363 341.343 35.0225 341.343 34.5088C341.343 33.7655 341.344 33.0221 341.346 32.2788C341.349 31.0717 341.352 29.8646 341.354 28.6575C341.354 28.5855 341.354 28.5134 341.354 28.4392C341.355 27.6342 341.356 26.8292 341.357 26.0242C341.357 25.7315 341.358 25.4389 341.358 25.1462C341.358 25.074 341.358 25.0017 341.358 24.9273C341.359 23.7233 341.362 22.5192 341.365 21.3152C341.367 20.64 341.368 19.9648 341.368 19.2896C341.368 18.6557 341.369 18.0218 341.371 17.3879C341.372 17.1551 341.372 16.9223 341.372 16.6896C341.371 16.3723 341.372 16.0551 341.374 15.7379C341.373 15.6454 341.373 15.5528 341.372 15.4575C341.377 14.9807 341.391 14.6388 341.714 14.2586C341.977 14.1962 341.977 14.1962 342.298 14.1968C342.418 14.1959 342.538 14.1949 342.662 14.194C342.856 14.1964 342.856 14.1964 343.054 14.199C343.189 14.1991 343.323 14.1991 343.457 14.1989C343.738 14.1991 344.019 14.201 344.3 14.2042C344.661 14.2081 345.021 14.2086 345.382 14.2078C345.659 14.2075 345.936 14.2087 346.213 14.2104C346.41 14.2115 346.608 14.2115 346.806 14.2116C346.925 14.2132 347.045 14.2148 347.168 14.2164C347.274 14.2173 347.38 14.2181 347.489 14.219C347.613 14.2386 347.613 14.2386 347.74 14.2586C347.947 14.5696 347.966 14.6339 347.966 14.9854C347.966 15.0727 347.967 15.16 347.967 15.2499C347.967 15.3459 347.966 15.4418 347.966 15.5407C347.966 15.6426 347.967 15.7445 347.967 15.8495C347.968 16.1927 347.967 16.5358 347.966 16.8789C347.967 17.1244 347.967 17.3698 347.967 17.6152C347.968 18.214 347.968 18.8128 347.968 19.4116C347.967 19.899 347.967 20.3865 347.967 20.8739C347.967 20.9433 347.967 21.0127 347.967 21.0842C347.967 21.2251 347.968 21.3661 347.968 21.5071C347.968 22.8307 347.968 24.1543 347.966 25.4778C347.966 26.6104 347.966 27.7429 347.967 28.8754C347.968 30.192 347.968 31.5085 347.967 32.825C347.967 32.9659 347.967 33.1068 347.967 33.2477C347.967 33.3171 347.967 33.3864 347.967 33.4578C347.967 33.9432 347.967 34.4285 347.968 34.9139C347.968 35.5702 347.968 36.2265 347.967 36.8828C347.967 37.1224 347.967 37.3621 347.967 37.6018C347.97 39.3524 347.93 41.0656 347.457 42.7632C347.43 42.8616 347.404 42.96 347.376 43.0613C347.181 43.763 346.954 44.4292 346.635 45.0852C346.578 45.2093 346.521 45.3334 346.464 45.4575C345.726 47.0288 344.751 48.3814 343.522 49.6038C343.433 49.6925 343.344 49.7811 343.253 49.8725C341.315 51.7184 338.767 52.8841 336.19 53.5199C336.089 53.545 336.089 53.545 335.985 53.5706C333.761 54.0873 331.077 54.0319 328.859 53.5199C328.739 53.4954 328.619 53.471 328.495 53.4458C325.96 52.8599 323.629 51.5652 321.728 49.8046C321.587 49.6751 321.587 49.6751 321.442 49.543C319.236 47.44 317.919 44.6528 317.291 41.7026C317.266 41.5892 317.266 41.5892 317.24 41.4736C316.91 39.8346 316.993 38.1026 316.992 36.4394C316.992 36.2014 316.991 35.9634 316.991 35.7253C316.989 35.0846 316.989 34.4438 316.988 33.8031C316.988 33.4024 316.988 33.0018 316.987 32.6012C316.986 31.4896 316.985 30.378 316.984 29.2664C316.984 29.1956 316.984 29.1249 316.984 29.052C316.984 28.9811 316.984 28.9102 316.984 28.8372C316.984 28.6935 316.984 28.5499 316.984 28.4063C316.984 28.335 316.984 28.2638 316.984 28.1904C316.984 27.0314 316.982 25.8724 316.98 24.7134C316.977 23.5206 316.976 22.3278 316.976 21.135C316.976 20.4663 316.975 19.7977 316.973 19.1291C316.972 18.5019 316.972 17.8747 316.972 17.2474C316.972 17.017 316.972 16.7866 316.971 16.5562C316.97 16.2425 316.97 15.9288 316.971 15.6151C316.971 15.5233 316.97 15.4316 316.969 15.337C316.974 14.7254 316.974 14.7254 317.145 14.4029C317.389 14.189 317.573 14.2083 317.894 14.2082Z" fill="#FCFCFD"/>
<path d="M214.772 13.3549C214.871 13.3847 214.97 13.4144 215.072 13.4451C217.409 14.1858 219.504 15.3609 221.5 16.7689C221.607 16.842 221.607 16.842 221.715 16.9166C221.918 17.0569 222.117 17.2008 222.316 17.3463C222.377 17.3876 222.437 17.4289 222.499 17.4714C222.826 17.7202 222.904 17.8594 222.977 18.2684C222.94 18.734 222.688 19 222.36 19.3106C222.249 19.4232 222.138 19.536 222.027 19.6491C221.972 19.7048 221.916 19.7604 221.859 19.8177C221.63 20.0567 221.424 20.3127 221.218 20.572C220.918 20.9449 220.609 21.2875 220.265 21.6193C220.009 21.8746 219.775 22.1481 219.54 22.4222C219.219 22.7903 219.219 22.7903 218.901 22.8274C218.533 22.7877 218.446 22.7168 218.193 22.4548C215.7 20.0964 212.228 19.0661 208.867 19.1459C208.162 19.1751 207.513 19.2698 206.838 19.4801C206.753 19.5041 206.669 19.5282 206.582 19.553C205.929 19.7523 205.313 20.0122 204.792 20.4591C204.528 20.685 204.528 20.685 204.327 20.685C204.302 20.7409 204.277 20.7968 204.252 20.8545C204.126 21.0867 204.126 21.0867 203.932 21.3189C203.208 22.2623 203.14 23.4566 203.222 24.6011C203.411 25.7334 204.207 26.4376 205.095 27.0875C205.93 27.6561 206.804 28.1055 207.723 28.5235C207.832 28.574 207.941 28.6246 208.053 28.6766C208.809 29.0233 209.575 29.3285 210.353 29.6217C211.024 29.8846 211.693 30.1554 212.361 30.425C212.441 30.457 212.52 30.4889 212.602 30.5218C213.365 30.8288 214.117 31.1388 214.847 31.5186C215.084 31.6352 215.322 31.7306 215.569 31.8245C216.543 32.2053 217.432 32.7687 218.312 33.3269C218.431 33.4015 218.549 33.4754 218.668 33.5487C219.727 34.2029 220.623 34.9659 221.5 35.8473C221.55 35.8967 221.6 35.946 221.651 35.9969C223.531 37.8878 224.454 40.4508 224.469 43.0896C224.44 45.7459 223.566 47.9045 221.802 49.9051C221.722 49.9971 221.722 49.9971 221.641 50.091C219.372 52.5399 215.8 53.728 212.562 54.022C212.497 54.0305 212.431 54.039 212.364 54.0478C210.283 54.3149 207.922 54.2628 205.892 53.6921C205.641 53.6227 205.393 53.5724 205.137 53.5262C201.608 52.8317 198.52 50.7845 196.092 48.1981C195.835 47.8124 195.815 47.6512 195.891 47.1939C196.045 47.025 196.045 47.025 196.246 46.8574C196.32 46.7964 196.393 46.7353 196.468 46.6725C196.807 46.401 197.15 46.1364 197.498 45.876C198.18 45.3608 198.847 44.8307 199.506 44.287C200.106 43.7941 200.106 43.7941 200.534 43.7356C201.049 43.7959 201.215 44.0127 201.546 44.3887C201.661 44.51 201.776 44.6308 201.892 44.7511C201.947 44.8093 202.003 44.8674 202.061 44.9274C203.027 45.8971 204.45 46.485 205.727 46.9241C205.825 46.9587 205.825 46.9587 205.926 46.9941C207.316 47.4464 208.73 47.5469 210.181 47.54C210.453 47.5391 210.725 47.542 210.996 47.5452C213.025 47.5533 215.272 47.143 216.794 45.6826C217.497 44.9004 217.877 44.0333 217.923 42.9703C217.796 41.6444 217.245 40.5988 216.215 39.7469C216.137 39.6861 216.058 39.6253 215.977 39.5626C215.898 39.5017 215.819 39.4409 215.738 39.3782C215.118 38.9227 214.46 38.5895 213.767 38.2572C213.644 38.1949 213.52 38.1323 213.397 38.0693C212.059 37.387 210.705 36.7464 209.279 36.2694C208.857 36.1158 208.452 35.932 208.043 35.7469C207.82 35.6479 207.597 35.5491 207.374 35.4504C203.598 33.7716 199.904 31.9836 197.699 28.3164C197.648 28.2391 197.597 28.1618 197.545 28.0822C197.36 27.7453 197.249 27.3963 197.14 27.0298C197.119 26.9622 197.098 26.8946 197.077 26.8249C197.035 26.6871 196.994 26.5489 196.954 26.4103C196.9 26.2238 196.841 26.0386 196.782 25.8535C196.622 25.1923 196.651 24.4995 196.651 23.8229C196.65 23.7494 196.65 23.6758 196.65 23.6C196.651 22.3678 196.787 21.252 197.197 20.0825C197.228 19.9853 197.259 19.8881 197.291 19.788C197.644 18.8004 198.269 17.6231 199.004 16.8693C199.071 16.8693 199.137 16.8693 199.205 16.8693C199.239 16.786 199.239 16.786 199.273 16.7011C199.841 15.7063 201.059 15.0314 202.017 14.4594C202.093 14.4112 202.169 14.3629 202.247 14.3131C205.823 12.1391 210.893 12.1763 214.772 13.3549Z" fill="#FCFCFD"/>
<path d="M303.51 14.231C303.628 14.23 303.745 14.2291 303.867 14.2281C303.994 14.2282 304.122 14.2283 304.253 14.2283C304.384 14.2279 304.514 14.2275 304.649 14.227C304.925 14.2263 305.202 14.2263 305.478 14.2269C305.833 14.2274 306.187 14.2257 306.542 14.2234C306.879 14.2216 307.217 14.2219 307.555 14.2221C307.746 14.2207 307.746 14.2207 307.941 14.2193C308.118 14.2202 308.118 14.2202 308.299 14.2212C308.403 14.2211 308.507 14.221 308.614 14.221C308.911 14.264 308.997 14.3231 309.175 14.5598C309.313 14.8359 309.288 15.0565 309.289 15.3657C309.29 15.4956 309.29 15.6254 309.291 15.7592C309.291 15.9047 309.291 16.0502 309.291 16.1957C309.291 16.3491 309.292 16.5026 309.292 16.6561C309.293 17.0794 309.294 17.5027 309.294 17.926C309.295 18.382 309.296 18.8379 309.297 19.2939C309.3 20.3957 309.301 21.4975 309.302 22.5993C309.303 22.9104 309.303 23.2214 309.304 23.5324C309.306 25.4625 309.308 27.3926 309.31 29.3227C309.31 29.7699 309.31 30.2172 309.31 30.6644C309.311 30.7756 309.311 30.8867 309.311 31.0013C309.312 32.8031 309.315 34.6049 309.319 36.4068C309.324 38.2553 309.326 40.1038 309.327 41.9523C309.327 42.9907 309.328 44.0292 309.331 45.0676C309.334 45.9518 309.335 46.8359 309.334 47.7201C309.334 48.1714 309.334 48.6227 309.336 49.0741C309.339 49.487 309.339 49.8999 309.337 50.3129C309.336 50.4625 309.337 50.6121 309.339 50.7617C309.34 50.9647 309.339 51.1677 309.337 51.3707C309.338 51.54 309.338 51.54 309.338 51.7127C309.255 52.111 309.084 52.2627 308.773 52.5157C308.502 52.5775 308.502 52.5775 308.206 52.5759C308.095 52.5765 307.984 52.5771 307.869 52.5778C307.75 52.5758 307.631 52.5738 307.508 52.5718C307.323 52.5715 307.323 52.5715 307.135 52.5711C306.875 52.5701 306.615 52.568 306.354 52.5646C305.956 52.5597 305.558 52.5585 305.159 52.5579C304.906 52.5565 304.654 52.5549 304.401 52.553C304.282 52.5525 304.162 52.5519 304.039 52.5514C303.928 52.5498 303.817 52.5482 303.703 52.5465C303.557 52.5449 303.557 52.5449 303.408 52.5433C303.14 52.5147 302.982 52.4404 302.747 52.3149C302.743 47.4958 302.739 42.6766 302.737 37.8575C302.737 37.2891 302.737 36.7207 302.736 36.1523C302.736 36.0392 302.736 35.926 302.736 35.8094C302.735 33.9749 302.734 32.1404 302.732 30.3058C302.73 28.4248 302.729 26.5437 302.729 24.6627C302.728 23.5011 302.727 22.3395 302.726 21.1779C302.725 20.3823 302.724 19.5868 302.725 18.7913C302.725 18.3316 302.725 17.872 302.723 17.4124C302.722 16.9922 302.722 16.572 302.723 16.1519C302.723 15.9993 302.723 15.8467 302.722 15.6941C302.722 15.4878 302.722 15.2816 302.723 15.0753C302.723 14.9604 302.723 14.8454 302.722 14.727C302.771 14.2045 303.058 14.233 303.51 14.231Z" fill="#FCFCFD"/>
<path d="M278.836 20.357C278.952 20.3569 279.068 20.3567 279.188 20.3565C279.434 20.3563 279.68 20.3567 279.925 20.3575C280.297 20.3586 280.669 20.3576 281.041 20.3563C284.234 20.3543 284.234 20.3543 285.373 20.9862C285.455 21.0297 285.536 21.0732 285.62 21.118C287.11 21.9593 287.995 23.1629 288.487 24.8019C288.522 24.9068 288.558 25.0118 288.594 25.12C289.013 26.8519 288.641 28.6614 287.749 30.1783C286.762 31.6425 285.461 32.4088 283.768 32.7958C283.217 32.9019 282.659 32.8919 282.099 32.8882C281.967 32.8886 281.835 32.889 281.698 32.8894C281.421 32.89 281.144 32.8891 280.868 32.8872C280.514 32.8849 280.161 32.8863 279.807 32.8887C279.466 32.8905 279.126 32.8892 278.785 32.8882C278.596 32.8894 278.596 32.8894 278.403 32.8907C277.753 32.8837 277.328 32.8779 276.837 32.4332C276.777 32.3835 276.717 32.3338 276.655 32.2826C276.426 31.9942 276.422 31.6584 276.421 31.3018C276.42 31.2169 276.42 31.132 276.419 31.0446C276.419 30.9523 276.419 30.86 276.419 30.7649C276.418 30.6671 276.418 30.5692 276.417 30.4684C276.416 30.1447 276.415 29.821 276.415 29.4973C276.414 29.2722 276.413 29.0471 276.413 28.822C276.412 28.3499 276.411 27.8778 276.411 27.4057C276.41 26.8013 276.408 26.1969 276.405 25.5925C276.403 25.1274 276.403 24.6624 276.403 24.1973C276.402 23.9745 276.401 23.7517 276.4 23.5289C276.398 23.2169 276.399 22.905 276.399 22.5931C276.398 22.5014 276.397 22.4097 276.396 22.3153C276.401 21.6914 276.494 21.2206 276.868 20.7038C277.455 20.2907 278.151 20.3545 278.836 20.357Z" fill="#1E2C2B"/>
<path d="M172.167 20.3571C172.272 20.3569 172.377 20.3567 172.485 20.3565C172.707 20.3563 172.929 20.3567 173.15 20.3575C173.485 20.3586 173.819 20.3576 174.154 20.3563C176.446 20.3546 178.51 20.5123 180.262 22.1849C181.039 23.0116 181.58 24.0573 181.63 25.2035C181.634 25.2796 181.638 25.3558 181.642 25.4342C181.685 27.0275 181.213 28.2578 180.124 29.4209C178.803 30.6386 177.331 31.0904 175.546 31.0879C175.41 31.0887 175.273 31.0895 175.137 31.0905C174.855 31.092 174.573 31.0919 174.29 31.0909C173.93 31.0897 173.57 31.0931 173.209 31.0978C172.93 31.1007 172.65 31.1009 172.37 31.1003C172.173 31.1004 171.976 31.1032 171.779 31.106C171.13 31.0993 170.686 31.0732 170.206 30.6131C169.873 30.1121 169.851 29.5915 169.854 29.0078C169.854 28.9284 169.853 28.849 169.853 28.7671C169.852 28.506 169.853 28.2449 169.853 27.9837C169.853 27.8014 169.853 27.6191 169.853 27.4368C169.852 27.0553 169.853 26.6738 169.854 26.2923C169.855 25.8041 169.854 25.3159 169.853 24.8276C169.852 24.4513 169.853 24.0751 169.853 23.6988C169.853 23.5188 169.853 23.3388 169.853 23.1588C169.852 22.907 169.853 22.6552 169.854 22.4034C169.854 22.3295 169.853 22.2556 169.853 22.1795C169.857 21.6402 169.92 21.1925 170.257 20.7603C170.83 20.3144 171.475 20.3542 172.167 20.3571Z" fill="#1E2C2B"/>
<path d="M138.747 28.2159C139.074 28.2894 139.212 28.3601 139.397 28.6419C139.826 29.4167 140.194 30.2087 140.527 31.0282C140.657 31.3321 140.8 31.6245 140.95 31.9186C141.232 32.4711 141.475 33.0353 141.716 33.6068C141.877 33.9774 142.056 34.3348 142.241 34.6941C142.375 34.9697 142.492 35.2495 142.607 35.5335C142.775 35.9451 142.957 36.3425 143.16 36.7384C143.441 37.2904 143.685 37.8536 143.923 38.4254C144.055 38.725 144.201 39.0064 144.358 39.2927C144.561 39.6912 144.63 40.0205 144.639 40.4655C144.53 40.793 144.362 40.8882 144.07 41.0687C143.734 41.1281 143.402 41.1236 143.062 41.1207C142.961 41.1214 142.86 41.1221 142.755 41.1228C142.421 41.1246 142.088 41.1234 141.754 41.1221C141.521 41.1223 141.289 41.1227 141.057 41.1232C140.57 41.1238 140.084 41.123 139.597 41.1211C138.973 41.1188 138.35 41.1201 137.726 41.1225C137.246 41.124 136.767 41.1235 136.287 41.1225C136.057 41.1222 135.827 41.1225 135.597 41.1235C135.276 41.1245 134.954 41.1229 134.633 41.1207C134.538 41.1215 134.443 41.1223 134.345 41.1232C133.918 41.1177 133.686 41.1061 133.315 40.8782C133.095 40.6365 133.052 40.5387 133.054 40.2152C133.082 39.6592 133.297 39.2486 133.56 38.7663C133.72 38.4678 133.851 38.1697 133.977 37.8555C134.134 37.4698 134.302 37.0966 134.491 36.7259C134.803 36.1151 135.086 35.4926 135.37 34.8682C135.725 34.0882 136.09 33.3165 136.48 32.5534C136.7 32.1191 136.887 31.68 137.06 31.2252C137.162 30.9746 137.299 30.7546 137.441 30.5254C137.514 30.3561 137.587 30.1867 137.659 30.017C137.794 29.7027 137.943 29.3954 138.094 29.0882C138.124 29.0261 138.154 28.9639 138.184 28.8998C138.345 28.5736 138.437 28.4222 138.747 28.2159Z" fill="#202E2D"/>
<path d="M7.44222 0C7.87938 0.153105 8.24732 0.382214 8.62853 0.64013C8.69383 0.68401 8.75913 0.727889 8.8264 0.773098C9.52399 1.24687 10.1971 1.75206 10.8668 2.26423C11.0485 2.40294 11.2311 2.54051 11.4139 2.6778C12.0068 3.12522 12.5726 3.5912 13.1196 4.09456C13.4724 4.41216 13.8415 4.70842 14.2102 5.00729C14.7596 5.45633 15.2768 5.92414 15.7778 6.4264C15.8791 6.52723 15.9804 6.62801 16.0818 6.72874C16.3809 7.02604 16.6798 7.32366 16.9785 7.62138C17.1066 7.74891 17.2347 7.87636 17.363 8.00371C18.6333 9.26548 18.6333 9.26548 19.149 9.87257C19.3863 10.1508 19.6389 10.4148 19.8891 10.6814C20.3148 11.1388 20.718 11.6059 21.1025 12.0989C21.3236 12.3789 21.5538 12.65 21.7847 12.9218C22.3146 13.555 22.8008 14.2159 23.2832 14.8856C23.4666 15.1398 23.6521 15.3925 23.8372 15.6455C24.367 16.3752 24.8824 17.1133 25.379 17.866C25.5048 18.0526 25.636 18.2328 25.7705 18.4132C26.0388 18.7837 26.2487 19.1817 26.4609 19.5863C26.5864 19.8134 26.7161 20.0307 26.8548 20.2496C28.0944 22.2141 29.1683 24.289 30.1129 26.4089C30.3104 26.8505 30.5219 27.2829 30.7417 27.7139C30.9848 27.3391 31.1351 26.9762 31.2753 26.5528C31.4729 25.986 31.7032 25.4612 31.9802 24.9294C32.1435 24.6093 32.2955 24.2859 32.4459 23.9596C32.7404 23.321 33.0416 22.7025 33.4207 22.1084C33.5827 21.8424 33.7164 21.5664 33.855 21.2875C34.2939 20.4637 34.7504 19.6615 35.3003 18.9062C35.4661 18.6707 35.612 18.4298 35.7569 18.181C36.0377 17.703 36.3564 17.2606 36.6859 16.8152C36.9457 16.4625 37.1853 16.0982 37.4202 15.7287C37.4741 15.6453 37.528 15.562 37.5834 15.4761C37.6334 15.3976 37.6834 15.3192 37.7349 15.2384C37.7802 15.1801 37.8255 15.1219 37.8722 15.0619C37.9385 15.0619 38.0047 15.0619 38.073 15.0619C38.1121 14.9778 38.1121 14.9778 38.1519 14.892C38.5713 14.0952 39.1934 13.4045 39.7785 12.7249C40.1196 12.3281 40.4407 11.9203 40.7505 11.4984C40.8171 11.4233 40.8171 11.4233 40.885 11.3466C40.9513 11.3466 41.0176 11.3466 41.0859 11.3466C41.1134 11.2868 41.141 11.227 41.1693 11.1654C41.2825 10.9529 41.395 10.8058 41.559 10.6312C41.6164 10.5699 41.6738 10.5086 41.733 10.4454C41.797 10.3783 41.861 10.3112 41.927 10.2421C41.9949 10.1705 42.0628 10.0988 42.1328 10.025C42.8611 9.26264 43.6052 8.5158 44.3498 7.76942C44.4108 7.70817 44.4718 7.64691 44.5347 7.5838C45.7149 6.39983 45.7149 6.39983 46.3451 5.8633C46.5824 5.66098 46.8084 5.44683 47.0363 5.234C47.5172 4.79401 48.0159 4.40714 48.5451 4.02709C48.8234 3.82171 48.8234 3.82171 49.0602 3.57288C49.3669 3.26806 49.6953 3.01737 50.0429 2.76135C50.1123 2.7098 50.1817 2.65825 50.2533 2.60514C50.4777 2.43899 50.7027 2.27369 50.9279 2.10866C51.0045 2.05255 51.081 1.99644 51.1598 1.93863C53.81 0 53.81 0 54.1417 0C54.4567 0.543296 54.7539 1.09433 55.0455 1.65053C55.1096 1.77217 55.1096 1.77217 55.175 1.89627C55.2999 2.13405 55.4241 2.37223 55.5477 2.61073C55.6039 2.71905 55.6039 2.71905 55.6612 2.82957C55.8986 3.29461 56.081 3.76121 56.2479 4.25616C56.344 4.52218 56.344 4.52218 56.4974 4.76018C56.6792 5.06574 56.7943 5.37051 56.916 5.70469C56.9681 5.84669 57.0203 5.98868 57.0725 6.13066C57.1011 6.20881 57.1297 6.28695 57.1592 6.36747C57.2662 6.65777 57.3752 6.9473 57.4845 7.23676C57.5243 7.34241 57.5642 7.44806 57.6052 7.5569C57.6839 7.76536 57.7627 7.97378 57.8415 8.18218C58.2253 9.20247 58.5523 10.2324 58.8618 11.2776C58.9135 11.4503 58.9135 11.4503 58.9662 11.6265C59.1854 12.3658 59.3823 13.1078 59.5648 13.8569C59.6001 13.9957 59.6357 14.1344 59.6715 14.2731C59.8802 15.0894 60.0646 15.9059 60.2223 16.7338C60.276 17.0119 60.3317 17.2895 60.3875 17.5671C60.6437 18.8533 60.8815 20.137 61.0308 21.4403C61.06 21.6926 61.0907 21.9445 61.1227 22.1964C61.7497 27.1845 61.7122 32.3694 61.0713 37.3535C61.0625 37.4225 61.0538 37.4916 61.0448 37.5628C60.9389 38.4002 60.8145 39.2331 60.6695 40.0646C60.6535 40.1577 60.6375 40.2507 60.6209 40.3466C60.3893 41.6712 60.0888 42.9769 59.7657 44.2819C59.7365 44.4012 59.7074 44.5204 59.6774 44.6432C59.4162 45.7029 59.1192 46.7472 58.7896 47.7874C58.695 48.0866 58.6047 48.3869 58.5158 48.6879C58.3642 49.1948 58.1961 49.6947 58.0207 50.1937C57.9902 50.2809 57.9597 50.3681 57.9283 50.458C57.7229 51.0387 57.4989 51.6059 57.2546 52.1714C57.1272 52.4821 57.0401 52.7942 56.9537 53.1182C56.7786 53.2933 56.5513 53.2307 56.3181 53.2312C56.2415 53.2308 56.1648 53.2304 56.0859 53.2301C55.9654 53.2301 55.9654 53.2301 55.8424 53.2301C55.5756 53.23 55.3088 53.2292 55.042 53.2285C54.8575 53.2283 54.673 53.2281 54.4885 53.228C54.002 53.2276 53.5154 53.2267 53.0288 53.2256C52.5327 53.2245 52.0366 53.2241 51.5405 53.2236C50.5664 53.2225 49.5922 53.2208 48.6181 53.2187C48.6963 52.8869 48.8087 52.5994 48.9523 52.2894C48.9996 52.187 49.0468 52.0845 49.0955 51.979C49.1451 51.8724 49.1947 51.7658 49.2457 51.656C49.3425 51.4467 49.4393 51.2373 49.536 51.028C49.6776 50.7219 49.8191 50.4159 49.9614 50.1101C50.2025 49.5875 50.4209 49.0688 50.6078 48.5244C50.6582 48.3786 50.7085 48.2328 50.7589 48.087C50.7855 48.0092 50.8122 47.9313 50.8397 47.8511C50.9377 47.5671 51.0377 47.2838 51.1378 47.0005C51.2101 46.7951 51.2825 46.5897 51.3548 46.3843C51.389 46.2876 51.4233 46.1909 51.4586 46.0912C51.622 45.6246 51.77 45.1626 51.8832 44.6814C51.9373 44.4623 52.0006 44.2473 52.066 44.0313C52.4528 42.7457 52.7349 41.4545 52.9836 40.1357C53.0318 39.89 53.0853 39.6464 53.1417 39.4025C53.2521 38.9156 53.3244 38.4249 53.3947 37.9308C53.4198 37.7567 53.4451 37.5825 53.4704 37.4084C53.4813 37.3326 53.4921 37.2569 53.5032 37.1788C53.5271 37.0276 53.555 36.877 53.5869 36.7273C53.9967 34.5657 53.9905 32.295 53.9801 30.1025C53.9784 29.7382 53.9794 29.3739 53.9811 29.0096C53.9909 26.5728 53.9125 24.1022 53.4061 21.7107C53.3405 21.3986 53.2934 21.0888 53.2504 20.7728C53.1325 19.975 52.9411 19.1936 52.7576 18.4088C52.6781 18.068 52.6059 17.727 52.5407 17.3831C52.4218 16.7785 52.2563 16.1881 52.0891 15.5953C52.059 15.486 52.0289 15.3767 51.9979 15.2641C51.8158 14.6092 51.8158 14.6092 51.5713 13.9762C51.3682 13.5158 51.2537 13.0382 51.1253 12.5527C51.0513 12.2427 51.0513 12.2427 50.8275 12.0495C49.9187 12.7158 49.0395 13.3867 48.2164 14.1582C48.1164 14.2482 48.0162 14.338 47.9158 14.4276C47.3607 14.9255 46.8382 15.4325 46.3608 16.0076C46.3103 16.06 46.2598 16.1124 46.2078 16.1664C46.1415 16.1664 46.0752 16.1664 46.0069 16.1664C45.9834 16.2222 45.9598 16.278 45.9355 16.3355C45.7738 16.626 45.5708 16.8356 45.3416 17.0764C44.9016 17.5494 44.5232 18.0399 44.1584 18.5744C44.1056 18.6413 44.0528 18.7082 43.9983 18.7771C43.9321 18.7771 43.8658 18.7771 43.7975 18.7771C43.7602 18.8847 43.7602 18.8847 43.7222 18.9944C43.5822 19.312 43.409 19.546 43.1949 19.8189C42.3022 20.9815 41.5338 22.2169 40.805 23.4873C40.6894 23.6882 40.5726 23.8884 40.4555 24.0884C39.8774 25.0856 39.3831 26.1163 38.8961 27.1604C38.7715 27.4222 38.6416 27.6808 38.5104 27.9394C38.3292 28.2997 38.1687 28.6592 38.0291 29.0381C37.847 29.5241 37.6587 30.0067 37.4642 30.4878C37.0998 31.3933 36.7654 32.3075 36.4662 33.2366C36.4352 33.331 36.4043 33.4255 36.3724 33.5229C36.1496 34.2214 35.9693 34.9227 35.8066 35.637C35.7188 36.0195 35.6241 36.3953 35.5058 36.7698C35.336 37.3155 35.2223 37.87 35.1078 38.4295C35.0522 38.6973 34.9944 38.9646 34.9366 39.2319C34.892 39.4404 34.8474 39.649 34.8028 39.8575C34.7817 39.9543 34.7606 40.0511 34.7389 40.1508C34.5689 40.9542 34.4589 41.7604 34.3572 42.5749C34.3314 42.7746 34.3054 42.9743 34.2793 43.1739C34.2446 43.4407 34.2102 43.7075 34.1759 43.9744C34.1497 44.1776 34.1235 44.3809 34.0973 44.5842C34.0498 44.952 34.0024 45.3198 33.9554 45.6877C33.938 45.8176 33.9206 45.9474 33.9027 46.0813C33.8511 46.496 33.8252 46.91 33.8048 47.3273C33.8008 47.4055 33.7967 47.4838 33.7925 47.5645C33.7796 47.8175 33.767 48.0705 33.7546 48.3235C33.7458 48.4984 33.737 48.6732 33.7282 48.848C33.6556 50.3045 33.601 51.7611 33.5537 53.2187C31.7309 53.2187 29.9082 53.2187 28.0301 53.2187C28.0177 52.7755 28.0053 52.3323 27.9925 51.8756C27.8824 48.3258 27.8824 48.3258 27.4621 44.8028C27.408 44.4586 27.368 44.1134 27.3271 43.7673C26.9391 40.6188 26.2917 37.4621 25.3186 34.4415C25.2813 34.3251 25.244 34.2086 25.2056 34.0887C24.6102 32.235 23.9649 30.4133 23.2096 28.6176C23.178 28.5413 23.1465 28.4649 23.114 28.3863C22.6844 27.3466 22.1789 26.3543 21.6439 25.3652C21.4923 25.0847 21.3418 24.8037 21.1912 24.5226C21.0857 24.327 20.9802 24.1314 20.8746 23.9358C20.8018 23.8003 20.8018 23.8003 20.7276 23.662C20.4123 23.0823 20.0688 22.5336 19.6945 21.9904C19.6361 21.9042 19.5777 21.818 19.5175 21.7292C18.6585 20.4646 17.775 19.2372 16.7821 18.0743C16.7144 17.9947 16.6467 17.9151 16.5769 17.833C16.4131 17.6437 16.2466 17.4571 16.0791 17.271C16.0153 17.198 15.9515 17.125 15.8857 17.0497C15.035 16.0856 14.1317 15.1442 13.1486 14.3135C13.0224 14.2063 12.8985 14.0962 12.7767 13.984C12.2625 13.5109 11.719 13.0825 11.1644 12.6583C11.0882 12.6 11.012 12.5417 10.9335 12.4817C10.5595 12.1904 10.5595 12.1904 10.1538 11.9491C10.1455 12.0257 10.1372 12.1023 10.1287 12.1813C10.0659 12.4898 9.98719 12.7482 9.87762 13.0411C9.412 14.2964 9.06195 15.5724 8.73524 16.8693C8.71816 16.9366 8.70109 17.0038 8.68349 17.0731C8.43117 18.0701 8.22255 19.0696 8.04479 20.0825C8.017 20.2396 8.017 20.2396 7.98864 20.3999C7.00264 26.1514 7.02042 32.2114 8.04479 37.9559C8.05991 38.0415 8.07502 38.1271 8.09059 38.2153C8.19629 38.8012 8.31771 39.3829 8.44651 39.9642C8.4723 40.0807 8.4981 40.1972 8.52467 40.3172C8.96044 42.278 8.96044 42.278 9.5269 44.2039C9.64986 44.5777 9.7608 44.9535 9.87034 45.3314C10.1092 46.1518 10.3772 46.9413 10.7058 47.7305C10.8684 48.1258 11.0171 48.5248 11.1644 48.926C11.3678 49.476 11.59 50.0121 11.8395 50.5428C11.9728 50.8333 12.0928 51.1275 12.2126 51.4238C12.4008 51.8831 12.6167 52.3082 12.8736 52.7327C12.9658 52.9174 12.9658 52.9174 12.9658 53.2187C10.2151 53.2187 7.46431 53.2187 4.63021 53.2187C4.49764 52.8873 4.36508 52.5559 4.22849 52.2145C4.17412 52.0797 4.11975 51.9448 4.06373 51.8058C3.56407 50.5536 3.13628 49.2799 2.72206 47.9972C2.68764 47.8908 2.68764 47.8908 2.65252 47.7823C2.25576 46.5484 1.96767 45.2861 1.66962 44.0256C1.63493 43.8792 1.60008 43.7328 1.56507 43.5865C0.599878 39.5519 0.0502925 35.3774 0.0104789 31.2283C0.00972232 31.1544 0.0089658 31.0806 0.00818635 31.0045C-0.00321034 29.8477 -0.00233947 28.6912 0.00851122 27.5344C0.0103197 27.3302 0.0115314 27.1259 0.0126855 26.9217C0.0365181 23.9706 0.409098 20.9909 0.972252 18.0954C1.01137 17.8912 1.04679 17.6862 1.08185 17.4812C1.39473 15.6763 1.8239 13.8686 2.39723 12.1283C2.51548 11.7658 2.62341 11.4017 2.72964 11.0356C3.66383 7.83251 4.93221 4.63048 6.5334 1.70265C6.77065 1.26035 6.9888 0.808196 7.20998 0.35772C7.34179 0.100413 7.34179 0.100413 7.44222 0Z" fill="#FCFCFD"/>
<path d="M11.7607 17.3713C12.114 17.5127 12.2012 17.6389 12.3632 17.9738C12.4627 18.0069 12.5621 18.0401 12.6645 18.0742C13.2359 18.6129 13.7 19.292 14.1816 19.9111C14.3702 20.1536 14.5608 20.3943 14.7535 20.6336C15.3732 21.4054 15.9363 22.2015 16.475 23.0317C16.6157 23.2483 16.7583 23.4635 16.9014 23.6785C16.9473 23.7478 16.9933 23.817 17.0406 23.8883C17.2014 24.1248 17.3685 24.3563 17.5353 24.5885C17.8342 25.0135 18.0866 25.4502 18.3293 25.9092C18.475 26.1808 18.627 26.448 18.7819 26.7145C19.1848 27.408 19.5523 28.1141 19.9048 28.8348C19.9996 29.0268 20.0963 29.2176 20.1936 29.4083C20.8654 30.7282 21.4558 32.0682 21.9644 33.4593C22.0877 33.7961 22.2214 34.1279 22.3559 34.4603C22.6183 35.1354 22.8113 35.8279 23.0032 36.5255C23.1195 36.947 23.2434 37.3504 23.4104 37.7551C23.6338 38.5399 23.8033 39.3412 23.9663 40.1404C23.9996 40.301 24.0338 40.4615 24.0688 40.6218C24.2385 41.4034 24.3837 42.1877 24.5151 42.9765C24.5356 43.0983 24.556 43.2201 24.577 43.3455C25.1501 46.9934 24.9545 50.7432 24.9169 54.4236C23.8999 54.7108 22.8836 54.9888 21.8538 55.2269C21.0087 55.4246 20.171 55.6363 19.3411 55.8911C18.6844 56.0849 18.6844 56.0849 18.389 55.9298C17.513 55.0168 16.9102 53.802 16.28 52.7166C16.2374 52.644 16.1949 52.5714 16.1511 52.4966C15.6048 51.562 15.1191 50.6086 14.6724 49.6227C14.571 49.3991 14.4681 49.1763 14.3652 48.9534C13.9055 47.9494 13.5138 46.9363 13.1667 45.8885C13.1361 45.7981 13.1056 45.7077 13.0741 45.6145C12.0552 42.59 11.2503 39.4413 10.8926 36.2647C10.8679 36.046 10.842 35.8275 10.8152 35.609C10.2566 30.9567 10.2124 25.8648 11.0894 21.2513C11.1566 20.8939 11.2096 20.537 11.2585 20.1766C11.3337 19.6369 11.4213 19.1003 11.5159 18.5637C11.5286 18.4911 11.5414 18.4185 11.5545 18.3437C11.613 18.0165 11.6734 17.6921 11.7607 17.3713Z" fill="#FBFBFC"/>
<path d="M49.5219 17.3713C50.192 18.0413 50.193 19.8645 50.3254 20.7854C50.3416 20.8954 50.3578 21.0055 50.3745 21.1189C51.3019 27.4871 51.2078 34.074 49.8232 40.3658C49.8062 40.4442 49.7891 40.5226 49.7715 40.6034C49.4098 42.2488 48.9901 43.9019 48.4172 45.4869C48.3917 45.5579 48.3662 45.6289 48.3399 45.702C47.9884 46.6786 47.6239 47.6467 47.2121 48.5996C47.162 48.7195 47.1119 48.8394 47.0603 48.9629C46.091 51.259 44.8478 53.4936 43.3656 55.4967C43.2372 55.6713 43.1143 55.8499 42.9941 56.0302C42.3737 55.9567 41.7789 55.8132 41.1738 55.6599C41.0685 55.6335 40.9633 55.607 40.8548 55.5798C40.0582 55.3775 39.2671 55.1589 38.4788 54.9262C38.006 54.7873 37.5343 54.6673 37.0515 54.568C36.8679 54.524 36.8679 54.524 36.667 54.4236C36.6552 53.2798 36.6464 52.136 36.641 50.9922C36.6384 50.4607 36.635 49.9292 36.6292 49.3976C36.5939 46.076 36.8014 42.9457 37.6117 39.7115C37.6713 39.4621 37.7228 39.2124 37.7722 38.9608C38.5219 35.2228 40.1378 31.6225 41.8266 28.2284C41.8576 28.1659 41.8887 28.1033 41.9207 28.0389C42.2148 27.4527 42.5424 26.8884 42.8811 26.3269C43.0355 26.0707 43.1899 25.8144 43.3428 25.5573C44.4818 23.6442 45.7703 21.8569 47.1116 20.0825C47.1828 19.9881 47.2541 19.8938 47.3274 19.7965C47.6357 19.3934 47.953 19.0318 48.3168 18.6767C48.5501 18.4207 48.7808 18.1626 49.0112 17.904C49.177 17.7208 49.345 17.5437 49.5219 17.3713Z" fill="#FBFBFC"/>
<path d="M16.4808 30.927C16.8953 31.0918 17.182 31.3887 17.4914 31.699C17.5486 31.7563 17.6058 31.8136 17.6647 31.8727C19.1992 33.4505 20.2449 35.4187 21.2128 37.3746C21.3223 37.5959 21.4334 37.8159 21.547 38.0351C21.8293 38.5801 22.0529 39.1345 22.2677 39.7092C22.4172 40.093 22.5826 40.4672 22.7514 40.8428C23.0944 41.6113 23.3754 42.3953 23.6471 43.1913C23.7336 43.4413 23.8261 43.689 23.9189 43.9367C24.1788 44.6451 24.3947 45.3681 24.6156 46.0893C24.6819 45.9568 24.7481 45.8242 24.8164 45.6877C24.9323 46.6478 24.9298 47.6043 24.9267 48.5694C24.9265 48.739 24.9263 48.9085 24.9262 49.078C24.9259 49.5206 24.9249 49.9631 24.9238 50.4057C24.9227 50.8587 24.9223 51.3118 24.9218 51.7648C24.9207 52.6511 24.919 53.5373 24.9169 54.4236C23.8747 54.7176 22.8325 55.0029 21.7785 55.252C21.6719 55.2776 21.5654 55.3032 21.4556 55.3296C20.9708 55.4452 20.4895 55.557 19.9959 55.6285C18.5488 53.2633 17.3151 50.7645 16.5446 48.0954C16.4807 47.8871 16.4807 47.8871 16.3804 47.6533C16.2057 47.2032 16.129 46.7312 16.0352 46.2588C16.0022 46.0935 16.0022 46.0935 15.9686 45.925C15.7474 44.7818 15.5984 43.632 15.4766 42.4745C15.4682 42.402 15.4599 42.3296 15.4513 42.2549C15.3837 41.6373 15.3587 41.0273 15.3557 40.4062C15.3547 40.258 15.3547 40.258 15.3536 40.1067C15.3519 39.7893 15.3512 39.472 15.351 39.1546C15.3509 39.0465 15.3507 38.9384 15.3506 38.827C15.351 37.2424 15.4035 35.7043 15.6774 34.1402C15.7007 33.9906 15.7239 33.8409 15.7468 33.6911C15.9009 32.7408 16.1745 31.8373 16.4808 30.927Z" fill="#CDD7E4"/>
<path d="M44.8018 30.927C45.0027 31.0274 45.0027 31.0274 45.074 31.2004C45.1526 31.477 45.229 31.754 45.3039 32.0316C45.3351 32.1377 45.3663 32.2438 45.3985 32.3532C46.5658 36.5824 46.4063 41.524 45.5048 45.7881C45.4885 45.867 45.4721 45.9458 45.4553 46.0271C45.2412 47.0458 44.9444 48.019 44.6009 49.0013C44.5547 49.1477 44.5086 49.2941 44.4628 49.4406C44.0226 50.7512 43.4252 51.9919 42.7932 53.2186C42.7429 53.3207 42.6925 53.4229 42.6406 53.5281C42.272 54.2545 41.852 54.9594 41.3872 55.6285C40.7406 55.5355 40.1278 55.4259 39.5124 55.2053C39.0417 55.0469 38.5555 54.9415 38.0731 54.8252C37.8512 54.7711 37.6294 54.7167 37.4077 54.6621C37.3091 54.638 37.2104 54.6139 37.1088 54.5891C36.8679 54.524 36.8679 54.524 36.6671 54.4236C36.6553 53.4581 36.6464 52.4926 36.641 51.527C36.6384 51.0785 36.6349 50.63 36.6292 50.1815C36.6236 49.7472 36.6207 49.313 36.6194 48.8787C36.6185 48.7144 36.6167 48.5502 36.614 48.386C36.5949 47.1985 36.7822 46.2067 37.1692 45.0852C37.2312 44.8913 37.293 44.6973 37.3544 44.5031C37.4094 44.3372 37.4648 44.1714 37.5207 44.0058C37.5504 43.9171 37.5802 43.8285 37.6109 43.7372C37.9272 42.8023 38.2715 41.8836 38.6796 40.9844C38.9012 40.4863 39.0993 39.9779 39.2864 39.466C39.6215 38.5584 40.0367 37.7078 40.4834 36.8514C40.518 36.7847 40.5526 36.7181 40.5883 36.6494C41.121 35.6279 41.6519 34.6121 42.3715 33.7076C42.5116 33.5275 42.5116 33.5275 42.5924 33.2365C42.6586 33.2365 42.7249 33.2365 42.7932 33.2365C42.8317 33.1519 42.8317 33.1519 42.8709 33.0655C43.2686 32.321 44.0333 31.3112 44.8018 30.927Z" fill="#CDD7E4"/>
<path d="M2.25 74.9089H7.34766C9.55859 74.9089 11.2266 75.2292 12.3516 75.8699C13.4766 76.5105 14.0391 77.616 14.0391 79.1863C14.0391 79.8425 13.9219 80.4363 13.6875 80.9675C13.4609 81.491 13.1289 81.9245 12.6914 82.2683C12.2539 82.6042 11.7148 82.8308 11.0742 82.948V83.0652C11.7383 83.1824 12.3281 83.3894 12.8438 83.6863C13.3672 83.9831 13.7773 84.4089 14.0742 84.9636C14.3789 85.5183 14.5312 86.237 14.5312 87.1199C14.5312 88.1667 14.2812 89.0574 13.7812 89.7917C13.2891 90.5261 12.582 91.0847 11.6602 91.4675C10.7461 91.8503 9.66016 92.0417 8.40234 92.0417H2.25V74.9089ZM5.0625 81.9753H7.75781C9.03125 81.9753 9.91406 81.7683 10.4062 81.3542C10.8984 80.9402 11.1445 80.3347 11.1445 79.5378C11.1445 78.7253 10.8516 78.1394 10.2656 77.78C9.6875 77.4206 8.76562 77.241 7.5 77.241H5.0625V81.9753ZM5.0625 84.2488V89.6863H8.02734C9.33984 89.6863 10.2617 89.4324 10.793 88.9245C11.3242 88.4167 11.5898 87.7292 11.5898 86.862C11.5898 86.3308 11.4688 85.8699 11.2266 85.4792C10.9922 85.0886 10.6055 84.7878 10.0664 84.5769C9.52734 84.3581 8.80078 84.2488 7.88672 84.2488H5.0625ZM29.0977 79.0691V92.0417H26.9297L26.5547 90.2956H26.4023C26.1289 90.741 25.7812 91.112 25.3594 91.4089C24.9375 91.698 24.4688 91.9128 23.9531 92.0535C23.4375 92.2019 22.8945 92.2761 22.3242 92.2761C21.3477 92.2761 20.5117 92.112 19.8164 91.7839C19.1289 91.448 18.6016 90.9324 18.2344 90.237C17.8672 89.5417 17.6836 88.6433 17.6836 87.5417V79.0691H20.4492V87.0261C20.4492 88.0339 20.6523 88.7878 21.0586 89.2878C21.4727 89.7878 22.1133 90.0378 22.9805 90.0378C23.8164 90.0378 24.4805 89.866 24.9727 89.5222C25.4648 89.1785 25.8125 88.6706 26.0156 87.9988C26.2266 87.3269 26.332 86.5027 26.332 85.5261V79.0691H29.0977ZM37.4062 92.2761C35.8594 92.2761 34.6172 91.7136 33.6797 90.5886C32.75 89.4558 32.2852 87.7878 32.2852 85.5847C32.2852 83.3581 32.7578 81.6745 33.7031 80.5339C34.6562 79.3933 35.9102 78.823 37.4648 78.823C38.1211 78.823 38.6953 78.9128 39.1875 79.0925C39.6797 79.2644 40.1016 79.4988 40.4531 79.7956C40.8125 80.0925 41.1172 80.4245 41.3672 80.7917H41.4961C41.457 80.5495 41.4102 80.2019 41.3555 79.7488C41.3086 79.2878 41.2852 78.862 41.2852 78.4714V73.8074H44.0508V92.0417H41.8945L41.4023 90.2722H41.2852C41.0508 90.6472 40.7539 90.987 40.3945 91.2917C40.043 91.5886 39.6211 91.8269 39.1289 92.0066C38.6445 92.1863 38.0703 92.2761 37.4062 92.2761ZM38.1797 90.0378C39.3594 90.0378 40.1914 89.698 40.6758 89.0183C41.1602 88.3386 41.4102 87.3191 41.4258 85.9597V85.5964C41.4258 84.1433 41.1914 83.03 40.7227 82.2566C40.2539 81.4753 39.3984 81.0847 38.1562 81.0847C37.1641 81.0847 36.4062 81.487 35.8828 82.2917C35.3672 83.0886 35.1094 84.2019 35.1094 85.6316C35.1094 87.0613 35.3672 88.155 35.8828 88.9128C36.4062 89.6628 37.1719 90.0378 38.1797 90.0378ZM51.7031 97.8074C49.9453 97.8074 48.5977 97.491 47.6602 96.8581C46.7227 96.2253 46.2539 95.3386 46.2539 94.198C46.2539 93.4011 46.5039 92.7253 47.0039 92.1706C47.5039 91.6238 48.2188 91.2449 49.1484 91.0339C48.7969 90.8777 48.4922 90.6355 48.2344 90.3074C47.9844 89.9714 47.8594 89.6003 47.8594 89.1941C47.8594 88.7097 47.9961 88.2956 48.2695 87.9519C48.543 87.6081 48.9531 87.2761 49.5 86.9558C48.8203 86.6667 48.2734 86.198 47.8594 85.5495C47.4531 84.8933 47.25 84.1238 47.25 83.241C47.25 82.3035 47.4492 81.5066 47.8477 80.8503C48.2461 80.1863 48.8281 79.6824 49.5938 79.3386C50.3594 78.987 51.2852 78.8113 52.3711 78.8113C52.6055 78.8113 52.8594 78.8269 53.1328 78.8581C53.4141 78.8816 53.6719 78.9128 53.9062 78.9519C54.1484 78.9831 54.332 79.0183 54.457 79.0574H58.9453V80.5925L56.7422 81.0027C56.9531 81.2995 57.1211 81.6394 57.2461 82.0222C57.3711 82.3972 57.4336 82.8074 57.4336 83.2527C57.4336 84.5964 56.9688 85.655 56.0391 86.4285C55.1172 87.1941 53.8438 87.5769 52.2188 87.5769C51.8281 87.5613 51.4492 87.53 51.082 87.4831C50.8008 87.655 50.5859 87.8464 50.4375 88.0574C50.2891 88.2605 50.2148 88.491 50.2148 88.7488C50.2148 88.9597 50.2891 89.1316 50.4375 89.2644C50.5859 89.3894 50.8047 89.4831 51.0938 89.5456C51.3906 89.6081 51.75 89.6394 52.1719 89.6394H54.4102C55.832 89.6394 56.918 89.9402 57.668 90.5417C58.418 91.1433 58.793 92.0261 58.793 93.1902C58.793 94.6667 58.1836 95.8035 56.9648 96.6003C55.7461 97.405 53.9922 97.8074 51.7031 97.8074ZM51.8086 95.8738C52.7695 95.8738 53.5781 95.78 54.2344 95.5925C54.8906 95.405 55.3867 95.1355 55.7227 94.7839C56.0586 94.4402 56.2266 94.03 56.2266 93.5535C56.2266 93.1316 56.1211 92.8074 55.9102 92.5808C55.6992 92.3542 55.3828 92.198 54.9609 92.112C54.5391 92.0261 54.0156 91.9831 53.3906 91.9831H51.3516C50.8438 91.9831 50.3945 92.0613 50.0039 92.2175C49.6133 92.3816 49.3086 92.616 49.0898 92.9206C48.8789 93.2253 48.7734 93.5925 48.7734 94.0222C48.7734 94.616 49.0352 95.073 49.5586 95.3933C50.0898 95.7136 50.8398 95.8738 51.8086 95.8738ZM52.3477 85.7722C53.1523 85.7722 53.75 85.5535 54.1406 85.116C54.5312 84.6706 54.7266 84.0456 54.7266 83.241C54.7266 82.366 54.5234 81.7097 54.1172 81.2722C53.7188 80.8347 53.125 80.616 52.3359 80.616C51.5625 80.616 50.9727 80.8386 50.5664 81.2839C50.168 81.7292 49.9688 82.3894 49.9688 83.2644C49.9688 84.0535 50.168 84.6706 50.5664 85.116C50.9727 85.5535 51.5664 85.7722 52.3477 85.7722ZM66.4805 78.823C67.6367 78.823 68.6289 79.0613 69.457 79.5378C70.2852 80.0144 70.9219 80.6902 71.3672 81.5652C71.8125 82.4402 72.0352 83.487 72.0352 84.7058V86.1824H63.375C63.4062 87.4402 63.7422 88.4089 64.3828 89.0886C65.0312 89.7683 65.9375 90.1081 67.1016 90.1081C67.9297 90.1081 68.6719 90.03 69.3281 89.8738C69.9922 89.7097 70.6758 89.4714 71.3789 89.1589V91.3972C70.7305 91.7019 70.0703 91.9245 69.3984 92.0652C68.7266 92.2058 67.9219 92.2761 66.9844 92.2761C65.7109 92.2761 64.5898 92.03 63.6211 91.5378C62.6602 91.0378 61.9062 90.2956 61.3594 89.3113C60.8203 88.3269 60.5508 87.1042 60.5508 85.6433C60.5508 84.1902 60.7969 82.9558 61.2891 81.9402C61.7812 80.9245 62.4727 80.1511 63.3633 79.6199C64.2539 79.0886 65.293 78.823 66.4805 78.823ZM66.4805 80.8972C65.6133 80.8972 64.9102 81.1785 64.3711 81.741C63.8398 82.3035 63.5273 83.1277 63.4336 84.2136H69.3398C69.332 83.5652 69.2227 82.991 69.0117 82.491C68.8086 81.991 68.4961 81.6003 68.0742 81.3191C67.6602 81.0378 67.1289 80.8972 66.4805 80.8972ZM79.9688 90.0495C80.3281 90.0495 80.6836 90.0183 81.0352 89.9558C81.3867 89.8855 81.707 89.8035 81.9961 89.7097V91.7956C81.6914 91.9285 81.2969 92.0417 80.8125 92.1355C80.3281 92.2292 79.8242 92.2761 79.3008 92.2761C78.5664 92.2761 77.9062 92.155 77.3203 91.9128C76.7344 91.6628 76.2695 91.237 75.9258 90.6355C75.582 90.0339 75.4102 89.2019 75.4102 88.1394V81.1667H73.6406V79.9363L75.5391 78.9636L76.4414 76.1863H78.1758V79.0691H81.8906V81.1667H78.1758V88.1042C78.1758 88.7605 78.3398 89.2488 78.668 89.5691C78.9961 89.8894 79.4297 90.0495 79.9688 90.0495ZM91.1484 74.9089H96.2461C98.457 74.9089 100.125 75.2292 101.25 75.8699C102.375 76.5105 102.938 77.616 102.938 79.1863C102.938 79.8425 102.82 80.4363 102.586 80.9675C102.359 81.491 102.027 81.9245 101.59 82.2683C101.152 82.6042 100.613 82.8308 99.9727 82.948V83.0652C100.637 83.1824 101.227 83.3894 101.742 83.6863C102.266 83.9831 102.676 84.4089 102.973 84.9636C103.277 85.5183 103.43 86.237 103.43 87.1199C103.43 88.1667 103.18 89.0574 102.68 89.7917C102.188 90.5261 101.48 91.0847 100.559 91.4675C99.6445 91.8503 98.5586 92.0417 97.3008 92.0417H91.1484V74.9089ZM93.9609 81.9753H96.6562C97.9297 81.9753 98.8125 81.7683 99.3047 81.3542C99.7969 80.9402 100.043 80.3347 100.043 79.5378C100.043 78.7253 99.75 78.1394 99.1641 77.78C98.5859 77.4206 97.6641 77.241 96.3984 77.241H93.9609V81.9753ZM93.9609 84.2488V89.6863H96.9258C98.2383 89.6863 99.1602 89.4324 99.6914 88.9245C100.223 88.4167 100.488 87.7292 100.488 86.862C100.488 86.3308 100.367 85.8699 100.125 85.4792C99.8906 85.0886 99.5039 84.7878 98.9648 84.5769C98.4258 84.3581 97.6992 84.2488 96.7852 84.2488H93.9609ZM111.855 78.823C113.012 78.823 114.004 79.0613 114.832 79.5378C115.66 80.0144 116.297 80.6902 116.742 81.5652C117.188 82.4402 117.41 83.487 117.41 84.7058V86.1824H108.75C108.781 87.4402 109.117 88.4089 109.758 89.0886C110.406 89.7683 111.312 90.1081 112.477 90.1081C113.305 90.1081 114.047 90.03 114.703 89.8738C115.367 89.7097 116.051 89.4714 116.754 89.1589V91.3972C116.105 91.7019 115.445 91.9245 114.773 92.0652C114.102 92.2058 113.297 92.2761 112.359 92.2761C111.086 92.2761 109.965 92.03 108.996 91.5378C108.035 91.0378 107.281 90.2956 106.734 89.3113C106.195 88.3269 105.926 87.1042 105.926 85.6433C105.926 84.1902 106.172 82.9558 106.664 81.9402C107.156 80.9245 107.848 80.1511 108.738 79.6199C109.629 79.0886 110.668 78.823 111.855 78.823ZM111.855 80.8972C110.988 80.8972 110.285 81.1785 109.746 81.741C109.215 82.3035 108.902 83.1277 108.809 84.2136H114.715C114.707 83.5652 114.598 82.991 114.387 82.491C114.184 81.991 113.871 81.6003 113.449 81.3191C113.035 81.0378 112.504 80.8972 111.855 80.8972ZM125.344 90.0495C125.703 90.0495 126.059 90.0183 126.41 89.9558C126.762 89.8855 127.082 89.8035 127.371 89.7097V91.7956C127.066 91.9285 126.672 92.0417 126.188 92.1355C125.703 92.2292 125.199 92.2761 124.676 92.2761C123.941 92.2761 123.281 92.155 122.695 91.9128C122.109 91.6628 121.645 91.237 121.301 90.6355C120.957 90.0339 120.785 89.2019 120.785 88.1394V81.1667H119.016V79.9363L120.914 78.9636L121.816 76.1863H123.551V79.0691H127.266V81.1667H123.551V88.1042C123.551 88.7605 123.715 89.2488 124.043 89.5691C124.371 89.8894 124.805 90.0495 125.344 90.0495ZM134.836 90.0495C135.195 90.0495 135.551 90.0183 135.902 89.9558C136.254 89.8855 136.574 89.8035 136.863 89.7097V91.7956C136.559 91.9285 136.164 92.0417 135.68 92.1355C135.195 92.2292 134.691 92.2761 134.168 92.2761C133.434 92.2761 132.773 92.155 132.188 91.9128C131.602 91.6628 131.137 91.237 130.793 90.6355C130.449 90.0339 130.277 89.2019 130.277 88.1394V81.1667H128.508V79.9363L130.406 78.9636L131.309 76.1863H133.043V79.0691H136.758V81.1667H133.043V88.1042C133.043 88.7605 133.207 89.2488 133.535 89.5691C133.863 89.8894 134.297 90.0495 134.836 90.0495ZM144.668 78.823C145.824 78.823 146.816 79.0613 147.645 79.5378C148.473 80.0144 149.109 80.6902 149.555 81.5652C150 82.4402 150.223 83.487 150.223 84.7058V86.1824H141.562C141.594 87.4402 141.93 88.4089 142.57 89.0886C143.219 89.7683 144.125 90.1081 145.289 90.1081C146.117 90.1081 146.859 90.03 147.516 89.8738C148.18 89.7097 148.863 89.4714 149.566 89.1589V91.3972C148.918 91.7019 148.258 91.9245 147.586 92.0652C146.914 92.2058 146.109 92.2761 145.172 92.2761C143.898 92.2761 142.777 92.03 141.809 91.5378C140.848 91.0378 140.094 90.2956 139.547 89.3113C139.008 88.3269 138.738 87.1042 138.738 85.6433C138.738 84.1902 138.984 82.9558 139.477 81.9402C139.969 80.9245 140.66 80.1511 141.551 79.6199C142.441 79.0886 143.48 78.823 144.668 78.823ZM144.668 80.8972C143.801 80.8972 143.098 81.1785 142.559 81.741C142.027 82.3035 141.715 83.1277 141.621 84.2136H147.527C147.52 83.5652 147.41 82.991 147.199 82.491C146.996 81.991 146.684 81.6003 146.262 81.3191C145.848 81.0378 145.316 80.8972 144.668 80.8972ZM159.902 78.823C160.121 78.823 160.359 78.8347 160.617 78.8581C160.875 78.8816 161.098 78.9128 161.285 78.9519L161.027 81.53C160.863 81.4831 160.66 81.448 160.418 81.4245C160.184 81.4011 159.973 81.3894 159.785 81.3894C159.293 81.3894 158.824 81.4714 158.379 81.6355C157.934 81.7917 157.539 82.0339 157.195 82.362C156.852 82.6824 156.582 83.0847 156.387 83.5691C156.191 84.0535 156.094 84.616 156.094 85.2566V92.0417H153.328V79.0691H155.484L155.859 81.3542H155.988C156.246 80.8933 156.566 80.4714 156.949 80.0886C157.332 79.7058 157.77 79.4011 158.262 79.1745C158.762 78.9402 159.309 78.823 159.902 78.823ZM163.289 90.5886C163.289 89.948 163.453 89.4988 163.781 89.241C164.117 88.9753 164.523 88.8425 165 88.8425C165.477 88.8425 165.883 88.9753 166.219 89.241C166.562 89.4988 166.734 89.948 166.734 90.5886C166.734 91.2136 166.562 91.6667 166.219 91.948C165.883 92.2214 165.477 92.3581 165 92.3581C164.523 92.3581 164.117 92.2214 163.781 91.948C163.453 91.6667 163.289 91.2136 163.289 90.5886ZM176.789 92.0417V74.9089H179.602V89.6511H186.879V92.0417H176.789ZM192.316 79.0691V92.0417H189.562V79.0691H192.316ZM190.957 74.1003C191.379 74.1003 191.742 74.2136 192.047 74.4402C192.359 74.6667 192.516 75.0574 192.516 75.612C192.516 76.1589 192.359 76.5495 192.047 76.7839C191.742 77.0105 191.379 77.1238 190.957 77.1238C190.52 77.1238 190.148 77.0105 189.844 76.7839C189.547 76.5495 189.398 76.1589 189.398 75.612C189.398 75.0574 189.547 74.6667 189.844 74.4402C190.148 74.2136 190.52 74.1003 190.957 74.1003ZM199.23 92.0417L194.297 79.0691H197.215L199.887 86.6863C200.059 87.1706 200.215 87.6941 200.355 88.2566C200.496 88.8191 200.594 89.2917 200.648 89.6745H200.742C200.797 89.2761 200.902 88.7995 201.059 88.2449C201.215 87.6824 201.375 87.1628 201.539 86.6863L204.211 79.0691H207.117L202.184 92.0417H199.23ZM214.254 78.823C215.41 78.823 216.402 79.0613 217.23 79.5378C218.059 80.0144 218.695 80.6902 219.141 81.5652C219.586 82.4402 219.809 83.487 219.809 84.7058V86.1824H211.148C211.18 87.4402 211.516 88.4089 212.156 89.0886C212.805 89.7683 213.711 90.1081 214.875 90.1081C215.703 90.1081 216.445 90.03 217.102 89.8738C217.766 89.7097 218.449 89.4714 219.152 89.1589V91.3972C218.504 91.7019 217.844 91.9245 217.172 92.0652C216.5 92.2058 215.695 92.2761 214.758 92.2761C213.484 92.2761 212.363 92.03 211.395 91.5378C210.434 91.0378 209.68 90.2956 209.133 89.3113C208.594 88.3269 208.324 87.1042 208.324 85.6433C208.324 84.1902 208.57 82.9558 209.062 81.9402C209.555 80.9245 210.246 80.1511 211.137 79.6199C212.027 79.0886 213.066 78.823 214.254 78.823ZM214.254 80.8972C213.387 80.8972 212.684 81.1785 212.145 81.741C211.613 82.3035 211.301 83.1277 211.207 84.2136H217.113C217.105 83.5652 216.996 82.991 216.785 82.491C216.582 81.991 216.27 81.6003 215.848 81.3191C215.434 81.0378 214.902 80.8972 214.254 80.8972ZM229.43 74.9089H234.527C236.738 74.9089 238.406 75.2292 239.531 75.8699C240.656 76.5105 241.219 77.616 241.219 79.1863C241.219 79.8425 241.102 80.4363 240.867 80.9675C240.641 81.491 240.309 81.9245 239.871 82.2683C239.434 82.6042 238.895 82.8308 238.254 82.948V83.0652C238.918 83.1824 239.508 83.3894 240.023 83.6863C240.547 83.9831 240.957 84.4089 241.254 84.9636C241.559 85.5183 241.711 86.237 241.711 87.1199C241.711 88.1667 241.461 89.0574 240.961 89.7917C240.469 90.5261 239.762 91.0847 238.84 91.4675C237.926 91.8503 236.84 92.0417 235.582 92.0417H229.43V74.9089ZM232.242 81.9753H234.938C236.211 81.9753 237.094 81.7683 237.586 81.3542C238.078 80.9402 238.324 80.3347 238.324 79.5378C238.324 78.7253 238.031 78.1394 237.445 77.78C236.867 77.4206 235.945 77.241 234.68 77.241H232.242V81.9753ZM232.242 84.2488V89.6863H235.207C236.52 89.6863 237.441 89.4324 237.973 88.9245C238.504 88.4167 238.77 87.7292 238.77 86.862C238.77 86.3308 238.648 85.8699 238.406 85.4792C238.172 85.0886 237.785 84.7878 237.246 84.5769C236.707 84.3581 235.98 84.2488 235.066 84.2488H232.242ZM250.137 78.823C251.293 78.823 252.285 79.0613 253.113 79.5378C253.941 80.0144 254.578 80.6902 255.023 81.5652C255.469 82.4402 255.691 83.487 255.691 84.7058V86.1824H247.031C247.062 87.4402 247.398 88.4089 248.039 89.0886C248.688 89.7683 249.594 90.1081 250.758 90.1081C251.586 90.1081 252.328 90.03 252.984 89.8738C253.648 89.7097 254.332 89.4714 255.035 89.1589V91.3972C254.387 91.7019 253.727 91.9245 253.055 92.0652C252.383 92.2058 251.578 92.2761 250.641 92.2761C249.367 92.2761 248.246 92.03 247.277 91.5378C246.316 91.0378 245.562 90.2956 245.016 89.3113C244.477 88.3269 244.207 87.1042 244.207 85.6433C244.207 84.1902 244.453 82.9558 244.945 81.9402C245.438 80.9245 246.129 80.1511 247.02 79.6199C247.91 79.0886 248.949 78.823 250.137 78.823ZM250.137 80.8972C249.27 80.8972 248.566 81.1785 248.027 81.741C247.496 82.3035 247.184 83.1277 247.09 84.2136H252.996C252.988 83.5652 252.879 82.991 252.668 82.491C252.465 81.991 252.152 81.6003 251.73 81.3191C251.316 81.0378 250.785 80.8972 250.137 80.8972ZM263.625 90.0495C263.984 90.0495 264.34 90.0183 264.691 89.9558C265.043 89.8855 265.363 89.8035 265.652 89.7097V91.7956C265.348 91.9285 264.953 92.0417 264.469 92.1355C263.984 92.2292 263.48 92.2761 262.957 92.2761C262.223 92.2761 261.562 92.155 260.977 91.9128C260.391 91.6628 259.926 91.237 259.582 90.6355C259.238 90.0339 259.066 89.2019 259.066 88.1394V81.1667H257.297V79.9363L259.195 78.9636L260.098 76.1863H261.832V79.0691H265.547V81.1667H261.832V88.1042C261.832 88.7605 261.996 89.2488 262.324 89.5691C262.652 89.8894 263.086 90.0495 263.625 90.0495ZM273.117 90.0495C273.477 90.0495 273.832 90.0183 274.184 89.9558C274.535 89.8855 274.855 89.8035 275.145 89.7097V91.7956C274.84 91.9285 274.445 92.0417 273.961 92.1355C273.477 92.2292 272.973 92.2761 272.449 92.2761C271.715 92.2761 271.055 92.155 270.469 91.9128C269.883 91.6628 269.418 91.237 269.074 90.6355C268.73 90.0339 268.559 89.2019 268.559 88.1394V81.1667H266.789V79.9363L268.688 78.9636L269.59 76.1863H271.324V79.0691H275.039V81.1667H271.324V88.1042C271.324 88.7605 271.488 89.2488 271.816 89.5691C272.145 89.8894 272.578 90.0495 273.117 90.0495ZM282.949 78.823C284.105 78.823 285.098 79.0613 285.926 79.5378C286.754 80.0144 287.391 80.6902 287.836 81.5652C288.281 82.4402 288.504 83.487 288.504 84.7058V86.1824H279.844C279.875 87.4402 280.211 88.4089 280.852 89.0886C281.5 89.7683 282.406 90.1081 283.57 90.1081C284.398 90.1081 285.141 90.03 285.797 89.8738C286.461 89.7097 287.145 89.4714 287.848 89.1589V91.3972C287.199 91.7019 286.539 91.9245 285.867 92.0652C285.195 92.2058 284.391 92.2761 283.453 92.2761C282.18 92.2761 281.059 92.03 280.09 91.5378C279.129 91.0378 278.375 90.2956 277.828 89.3113C277.289 88.3269 277.02 87.1042 277.02 85.6433C277.02 84.1902 277.266 82.9558 277.758 81.9402C278.25 80.9245 278.941 80.1511 279.832 79.6199C280.723 79.0886 281.762 78.823 282.949 78.823ZM282.949 80.8972C282.082 80.8972 281.379 81.1785 280.84 81.741C280.309 82.3035 279.996 83.1277 279.902 84.2136H285.809C285.801 83.5652 285.691 82.991 285.48 82.491C285.277 81.991 284.965 81.6003 284.543 81.3191C284.129 81.0378 283.598 80.8972 282.949 80.8972ZM298.184 78.823C298.402 78.823 298.641 78.8347 298.898 78.8581C299.156 78.8816 299.379 78.9128 299.566 78.9519L299.309 81.53C299.145 81.4831 298.941 81.448 298.699 81.4245C298.465 81.4011 298.254 81.3894 298.066 81.3894C297.574 81.3894 297.105 81.4714 296.66 81.6355C296.215 81.7917 295.82 82.0339 295.477 82.362C295.133 82.6824 294.863 83.0847 294.668 83.5691C294.473 84.0535 294.375 84.616 294.375 85.2566V92.0417H291.609V79.0691H293.766L294.141 81.3542H294.27C294.527 80.8933 294.848 80.4714 295.23 80.0886C295.613 79.7058 296.051 79.4011 296.543 79.1745C297.043 78.9402 297.59 78.823 298.184 78.823ZM301.57 90.5886C301.57 89.948 301.734 89.4988 302.062 89.241C302.398 88.9753 302.805 88.8425 303.281 88.8425C303.758 88.8425 304.164 88.9753 304.5 89.241C304.844 89.4988 305.016 89.948 305.016 90.5886C305.016 91.2136 304.844 91.6667 304.5 91.948C304.164 92.2214 303.758 92.3581 303.281 92.3581C302.805 92.3581 302.398 92.2214 302.062 91.948C301.734 91.6667 301.57 91.2136 301.57 90.5886Z" fill="white"/>
</svg>
