<svg width="140" height="146" viewBox="0 0 140 146" fill="none" xmlns="http://www.w3.org/2000/svg">
<g opacity="0.33">
<path d="M104.446 157.643L120.544 154.052C120.544 154.052 115.25 130.32 118.467 94.2419C121.685 58.1638 141.013 40.1902 141.013 40.1902C141.013 40.1902 156.785 63.9955 160.292 90.5371C163.799 117.079 158.106 145.672 158.106 145.672L181.871 140.371C181.871 140.371 187.475 107.778 178.17 69.6723C168.864 31.566 142.697 4.45406 142.697 4.45406C142.697 4.45406 123.541 23.1932 112.137 44.221C100.733 65.2488 96.912 87.7996 96.912 87.7996C96.912 87.7996 82.3353 69.3531 63.8422 54.9948C45.3492 40.6366 21.5774 31.4741 21.5774 31.4741C21.5774 31.4741 7.62359 62.7145 15.6542 105.927C23.6848 149.14 43.8856 171.153 43.8856 171.153L68.4163 165.681C68.4163 165.681 50.0067 148.089 41.388 120.277C32.7694 92.4652 36.7576 63.4479 36.7576 63.4479C36.7576 63.4479 69.478 80.2578 80.9884 99.3884C92.4987 118.519 104.446 157.643 104.446 157.643Z" fill="#1E2C2B"/>
<path d="M99.7624 161.903L82.7306 172.131C82.7306 172.131 61.2547 155.224 51.2736 128.519C41.2926 101.815 42.9811 73.3106 42.9811 73.3106C42.9811 73.3106 59.4245 78.4824 78.6921 107.133C97.9598 135.784 99.7624 161.903 99.7624 161.903Z" fill="#1E2C2B"/>
<path d="M127.16 155.791L146.924 157.811C146.924 157.811 159.178 133.379 156.863 104.964C154.548 76.5493 140.904 51.4654 140.904 51.4654C140.904 51.4654 128.218 63.1355 122.955 97.2591C117.691 131.383 127.16 155.791 127.16 155.791Z" fill="#1E2C2B"/>
<path d="M133.013 154.533L142.688 155.541C142.688 155.541 148.668 143.52 147.516 129.527C146.363 115.535 139.668 103.174 139.668 103.174C139.668 103.174 133.467 108.912 130.915 125.71C128.362 142.508 133.013 154.533 133.013 154.533Z" fill="#989E9D"/>
<path d="M95.3209 161.334L86.9922 166.359C86.9922 166.359 76.4695 158.019 71.566 144.863C66.6624 131.707 67.4691 117.674 67.4691 117.674C67.4691 117.674 75.5205 120.231 84.9706 134.352C94.4206 148.473 95.3209 161.334 95.3209 161.334Z" fill="#989E9D"/>
</g>
</svg>
